%FSLAX45Y45*%
G04 Gerber Fmt 4.5, Leading zero omitted, Abs format (unit mm)*
G04 Created by KiCad (PCBNEW (5.0.0)) date 11/19/18 10:01:11*
%MOMM*%
%LPD*%
G01*
G04 APERTURE LIST*
%ADD10C,0.150000*%
%ADD11C,0.200000*%
%ADD12C,0.300000*%
G04 APERTURE END LIST*
D10*
X10000110Y-10000360D02*
X16200110Y-10000360D01*
X16200110Y-10000360D02*
X16200110Y-4400360D01*
X16200110Y-4400360D02*
X10000110Y-4400360D01*
X10000110Y-4400360D02*
X10000110Y-10000360D01*
D11*
X11194310Y-7079760D02*
X11244310Y-7129760D01*
X11244310Y-7079760D02*
X11194310Y-7129760D01*
X11194310Y-7422660D02*
X11244310Y-7472660D01*
X11244310Y-7422660D02*
X11194310Y-7472660D01*
X11207010Y-5492260D02*
X11257010Y-5542260D01*
X11257010Y-5492260D02*
X11207010Y-5542260D01*
X11281404Y-6167166D02*
X11331404Y-6217166D01*
X11331404Y-6167166D02*
X11281404Y-6217166D01*
X11282833Y-6037780D02*
X11332833Y-6087780D01*
X11332833Y-6037780D02*
X11282833Y-6087780D01*
X11282833Y-6037780D02*
X11332833Y-6087780D01*
X11332833Y-6037780D02*
X11282833Y-6087780D01*
X11359410Y-6711460D02*
X11409410Y-6761460D01*
X11409410Y-6711460D02*
X11359410Y-6761460D01*
X11588010Y-6203460D02*
X11638010Y-6253460D01*
X11638010Y-6203460D02*
X11588010Y-6253460D01*
X11740410Y-7422660D02*
X11790410Y-7472660D01*
X11790410Y-7422660D02*
X11740410Y-7472660D01*
X11782111Y-6305060D02*
X11832111Y-6355060D01*
X11832111Y-6305060D02*
X11782111Y-6355060D01*
X11803910Y-7295660D02*
X11853910Y-7345660D01*
X11853910Y-7295660D02*
X11803910Y-7345660D01*
X11993787Y-6303461D02*
X12043787Y-6353461D01*
X12043787Y-6303461D02*
X11993787Y-6353461D01*
X12014106Y-6520960D02*
X12064106Y-6570960D01*
X12064106Y-6520960D02*
X12014106Y-6570960D01*
X12119106Y-6417019D02*
X12169106Y-6467019D01*
X12169106Y-6417019D02*
X12119106Y-6467019D01*
X12134110Y-5631960D02*
X12184110Y-5681960D01*
X12184110Y-5631960D02*
X12134110Y-5681960D01*
X12248410Y-5987560D02*
X12298410Y-6037560D01*
X12298410Y-5987560D02*
X12248410Y-6037560D01*
X12388110Y-5492260D02*
X12438110Y-5542260D01*
X12438110Y-5492260D02*
X12388110Y-5542260D01*
X12400810Y-7117860D02*
X12450810Y-7167860D01*
X12450810Y-7117860D02*
X12400810Y-7167860D01*
X12489710Y-7536960D02*
X12539710Y-7586960D01*
X12539710Y-7536960D02*
X12489710Y-7586960D01*
X12544111Y-6253993D02*
X12594111Y-6303993D01*
X12594111Y-6253993D02*
X12544111Y-6303993D01*
X12591310Y-5593860D02*
X12641310Y-5643860D01*
X12641310Y-5593860D02*
X12591310Y-5643860D01*
X12591310Y-6508260D02*
X12641310Y-6558260D01*
X12641310Y-6508260D02*
X12591310Y-6558260D01*
X12604010Y-7968760D02*
X12654010Y-8018760D01*
X12654010Y-7968760D02*
X12604010Y-8018760D01*
X12731010Y-5648260D02*
X12781010Y-5698260D01*
X12781010Y-5648260D02*
X12731010Y-5698260D01*
X12781810Y-5974758D02*
X12831810Y-6024758D01*
X12831810Y-5974758D02*
X12781810Y-6024758D01*
X12781810Y-6749560D02*
X12831810Y-6799560D01*
X12831810Y-6749560D02*
X12781810Y-6799560D01*
X12788894Y-5836959D02*
X12838894Y-5886959D01*
X12838894Y-5836959D02*
X12788894Y-5886959D01*
X12905622Y-6732361D02*
X12955622Y-6782361D01*
X12955622Y-6732361D02*
X12905622Y-6782361D01*
X12909305Y-6990788D02*
X12959305Y-7040788D01*
X12959305Y-6990788D02*
X12909305Y-7040788D01*
X12956009Y-7143695D02*
X13006009Y-7193695D01*
X13006009Y-7143695D02*
X12956009Y-7193695D01*
X13061210Y-7054360D02*
X13111210Y-7104360D01*
X13111210Y-7054360D02*
X13061210Y-7104360D01*
X13124710Y-6711460D02*
X13174710Y-6761460D01*
X13174710Y-6711460D02*
X13124710Y-6761460D01*
X13150110Y-7168660D02*
X13200110Y-7218660D01*
X13200110Y-7168660D02*
X13150110Y-7218660D01*
X13175510Y-5530360D02*
X13225510Y-5580360D01*
X13225510Y-5530360D02*
X13175510Y-5580360D01*
X13213610Y-6800360D02*
X13263610Y-6850360D01*
X13263610Y-6800360D02*
X13213610Y-6850360D01*
X13302510Y-7536960D02*
X13352510Y-7586960D01*
X13352510Y-7536960D02*
X13302510Y-7586960D01*
X13416810Y-5771660D02*
X13466810Y-5821660D01*
X13466810Y-5771660D02*
X13416810Y-5821660D01*
X13457405Y-5906258D02*
X13507405Y-5956258D01*
X13507405Y-5906258D02*
X13457405Y-5956258D01*
X13461831Y-6454040D02*
X13511831Y-6504040D01*
X13511831Y-6454040D02*
X13461831Y-6504040D01*
X13480310Y-7397260D02*
X13530310Y-7447260D01*
X13530310Y-7397260D02*
X13480310Y-7447260D01*
X13493010Y-7943360D02*
X13543010Y-7993360D01*
X13543010Y-7943360D02*
X13493010Y-7993360D01*
X13569210Y-5962160D02*
X13619210Y-6012160D01*
X13619210Y-5962160D02*
X13569210Y-6012160D01*
X13617503Y-6461061D02*
X13667503Y-6511061D01*
X13667503Y-6461061D02*
X13617503Y-6511061D01*
X13632710Y-5682862D02*
X13682710Y-5732862D01*
X13682710Y-5682862D02*
X13632710Y-5732862D01*
X13772308Y-5622861D02*
X13822308Y-5672861D01*
X13822308Y-5622861D02*
X13772308Y-5672861D01*
X13835910Y-7346460D02*
X13885910Y-7396460D01*
X13885910Y-7346460D02*
X13835910Y-7396460D01*
X14021701Y-8063856D02*
X14071701Y-8113856D01*
X14071701Y-8063856D02*
X14021701Y-8113856D01*
X14102610Y-7663960D02*
X14152610Y-7713960D01*
X14152610Y-7663960D02*
X14102610Y-7713960D01*
X14178810Y-7397260D02*
X14228810Y-7447260D01*
X14228810Y-7397260D02*
X14178810Y-7447260D01*
X14228554Y-7731528D02*
X14278554Y-7781528D01*
X14278554Y-7731528D02*
X14228554Y-7781528D01*
X14496310Y-7295660D02*
X14546310Y-7345660D01*
X14546310Y-7295660D02*
X14496310Y-7345660D01*
X14559810Y-6228860D02*
X14609810Y-6278860D01*
X14609810Y-6228860D02*
X14559810Y-6278860D01*
X14572510Y-6711460D02*
X14622510Y-6761460D01*
X14622510Y-6711460D02*
X14572510Y-6761460D01*
X14610610Y-7409960D02*
X14660610Y-7459960D01*
X14660610Y-7409960D02*
X14610610Y-7459960D01*
X14734009Y-5492648D02*
X14784009Y-5542648D01*
X14784009Y-5492648D02*
X14734009Y-5542648D01*
X15245610Y-6381260D02*
X15295610Y-6431260D01*
X15295610Y-6381260D02*
X15245610Y-6431260D01*
X15294121Y-6221780D02*
X15344121Y-6271780D01*
X15344121Y-6221780D02*
X15294121Y-6271780D01*
X15537710Y-5593860D02*
X15587710Y-5643860D01*
X15587710Y-5593860D02*
X15537710Y-5643860D01*
X15613910Y-9429260D02*
X15663910Y-9479260D01*
X15663910Y-9429260D02*
X15613910Y-9479260D01*
X15766310Y-8997460D02*
X15816310Y-9047460D01*
X15816310Y-8997460D02*
X15766310Y-9047460D01*
X10258710Y-9238360D02*
G75*
G03X10258710Y-9238360I-30000J0D01*
G01*
X10690510Y-6711060D02*
G75*
G03X10690510Y-6711060I-30000J0D01*
G01*
X11554110Y-8273160D02*
G75*
G03X11554110Y-8273160I-30000J0D01*
G01*
X11681110Y-5682360D02*
G75*
G03X11681110Y-5682360I-30000J0D01*
G01*
X11693810Y-7879460D02*
G75*
G03X11693810Y-7879460I-30000J0D01*
G01*
X12062110Y-8679560D02*
G75*
G03X12062110Y-8679560I-30000J0D01*
G01*
X12138310Y-8196960D02*
G75*
G03X12138310Y-8196960I-30000J0D01*
G01*
X12138310Y-8336660D02*
G75*
G03X12138310Y-8336660I-30000J0D01*
G01*
X12138310Y-8476360D02*
G75*
G03X12138310Y-8476360I-30000J0D01*
G01*
X12274107Y-6558211D02*
G75*
G03X12274107Y-6558211I-30000J0D01*
G01*
X12519310Y-8895460D02*
G75*
G03X12519310Y-8895460I-30000J0D01*
G01*
X12976510Y-7750661D02*
G75*
G03X12976510Y-7750661I-30000J0D01*
G01*
X12989210Y-8209660D02*
G75*
G03X12989210Y-8209660I-30000J0D01*
G01*
X12989210Y-8349360D02*
G75*
G03X12989210Y-8349360I-30000J0D01*
G01*
X12989210Y-8489060D02*
G75*
G03X12989210Y-8489060I-30000J0D01*
G01*
X13078110Y-8692260D02*
G75*
G03X13078110Y-8692260I-30000J0D01*
G01*
X13586110Y-8247760D02*
G75*
G03X13586110Y-8247760I-30000J0D01*
G01*
X13823265Y-6631300D02*
G75*
G03X13823265Y-6631300I-30000J0D01*
G01*
X13992510Y-7117460D02*
G75*
G03X13992510Y-7117460I-30000J0D01*
G01*
X14246510Y-5822060D02*
G75*
G03X14246510Y-5822060I-30000J0D01*
G01*
X14310010Y-6622160D02*
G75*
G03X14310010Y-6622160I-30000J0D01*
G01*
X14310010Y-7168260D02*
G75*
G03X14310010Y-7168260I-30000J0D01*
G01*
X15110788Y-6286639D02*
G75*
G03X15110788Y-6286639I-30000J0D01*
G01*
X11200110Y-4660360D02*
X11200110Y-4740360D01*
X11160110Y-4700360D02*
X11240110Y-4700360D01*
X11400110Y-4660360D02*
X11400110Y-4740360D01*
X11360110Y-4700360D02*
X11440110Y-4700360D01*
X11600110Y-4660360D02*
X11600110Y-4740360D01*
X11560110Y-4700360D02*
X11640110Y-4700360D01*
X11800110Y-4660360D02*
X11800110Y-4740360D01*
X11760110Y-4700360D02*
X11840110Y-4700360D01*
X12000110Y-4660360D02*
X12000110Y-4740360D01*
X11960110Y-4700360D02*
X12040110Y-4700360D01*
X12200110Y-4660360D02*
X12200110Y-4740360D01*
X12160110Y-4700360D02*
X12240110Y-4700360D01*
X12400110Y-4660360D02*
X12400110Y-4740360D01*
X12360110Y-4700360D02*
X12440110Y-4700360D01*
X12600110Y-4660360D02*
X12600110Y-4740360D01*
X12560110Y-4700360D02*
X12640110Y-4700360D01*
X12800110Y-4660360D02*
X12800110Y-4740360D01*
X12760110Y-4700360D02*
X12840110Y-4700360D01*
X13000110Y-4660360D02*
X13000110Y-4740360D01*
X12960110Y-4700360D02*
X13040110Y-4700360D01*
X13200110Y-4660360D02*
X13200110Y-4740360D01*
X13160110Y-4700360D02*
X13240110Y-4700360D01*
X13400110Y-4660360D02*
X13400110Y-4740360D01*
X13360110Y-4700360D02*
X13440110Y-4700360D01*
X13600110Y-4660360D02*
X13600110Y-4740360D01*
X13560110Y-4700360D02*
X13640110Y-4700360D01*
X13800110Y-4660360D02*
X13800110Y-4740360D01*
X13760110Y-4700360D02*
X13840110Y-4700360D01*
X14000110Y-4660360D02*
X14000110Y-4740360D01*
X13960110Y-4700360D02*
X14040110Y-4700360D01*
X14200110Y-4660360D02*
X14200110Y-4740360D01*
X14160110Y-4700360D02*
X14240110Y-4700360D01*
X14400110Y-4660360D02*
X14400110Y-4740360D01*
X14360110Y-4700360D02*
X14440110Y-4700360D01*
X14600110Y-4660360D02*
X14600110Y-4740360D01*
X14560110Y-4700360D02*
X14640110Y-4700360D01*
X14800110Y-4660360D02*
X14800110Y-4740360D01*
X14760110Y-4700360D02*
X14840110Y-4700360D01*
X15000110Y-4660360D02*
X15000110Y-4740360D01*
X14960110Y-4700360D02*
X15040110Y-4700360D01*
X15522330Y-6272980D02*
X15522330Y-6209340D01*
X15458690Y-6209340D01*
X15458690Y-6272980D01*
X15522330Y-6272980D01*
X16022330Y-6022980D02*
X16022330Y-5959340D01*
X15958690Y-5959340D01*
X15958690Y-6022980D01*
X16022330Y-6022980D01*
X16022330Y-6522980D02*
X16022330Y-6459340D01*
X15958690Y-6459340D01*
X15958690Y-6522980D01*
X16022330Y-6522980D01*
X15080110Y-7878660D02*
X15130110Y-7828660D01*
X15080110Y-7778660D01*
X15030110Y-7828660D01*
X15080110Y-7878660D01*
X15080110Y-8132660D02*
X15130110Y-8082660D01*
X15080110Y-8032660D01*
X15030110Y-8082660D01*
X15080110Y-8132660D01*
X15080110Y-8386660D02*
X15130110Y-8336660D01*
X15080110Y-8286660D01*
X15030110Y-8336660D01*
X15080110Y-8386660D01*
X15080110Y-8640660D02*
X15130110Y-8590660D01*
X15080110Y-8540660D01*
X15030110Y-8590660D01*
X15080110Y-8640660D01*
X14826110Y-6875360D02*
X14876110Y-6825360D01*
X14826110Y-6775360D01*
X14776110Y-6825360D01*
X14826110Y-6875360D01*
X14826110Y-7129360D02*
X14876110Y-7079360D01*
X14826110Y-7029360D01*
X14776110Y-7079360D01*
X14826110Y-7129360D01*
X14826110Y-7383360D02*
X14876110Y-7333360D01*
X14826110Y-7283360D01*
X14776110Y-7333360D01*
X14826110Y-7383360D01*
X15080110Y-6875360D02*
X15130110Y-6825360D01*
X15080110Y-6775360D01*
X15030110Y-6825360D01*
X15080110Y-6875360D01*
X15080110Y-7129360D02*
X15130110Y-7079360D01*
X15080110Y-7029360D01*
X15030110Y-7079360D01*
X15080110Y-7129360D01*
X15080110Y-7383360D02*
X15130110Y-7333360D01*
X15080110Y-7283360D01*
X15030110Y-7333360D01*
X15080110Y-7383360D01*
X11016110Y-8272360D02*
X11066110Y-8222360D01*
X11016110Y-8172360D01*
X10966110Y-8222360D01*
X11016110Y-8272360D01*
X11016110Y-8526360D02*
X11066110Y-8476360D01*
X11016110Y-8426360D01*
X10966110Y-8476360D01*
X11016110Y-8526360D01*
X11016110Y-8780360D02*
X11066110Y-8730360D01*
X11016110Y-8680360D01*
X10966110Y-8730360D01*
X11016110Y-8780360D01*
X11016110Y-5732360D02*
X11066110Y-5682360D01*
X11016110Y-5632360D01*
X10966110Y-5682360D01*
X11016110Y-5732360D01*
X11016110Y-5986360D02*
X11066110Y-5936360D01*
X11016110Y-5886360D01*
X10966110Y-5936360D01*
X11016110Y-5986360D01*
X11016110Y-6240360D02*
X11066110Y-6190360D01*
X11016110Y-6140360D01*
X10966110Y-6190360D01*
X11016110Y-6240360D01*
X11016110Y-6494360D02*
X11066110Y-6444360D01*
X11016110Y-6394360D01*
X10966110Y-6444360D01*
X11016110Y-6494360D01*
X11016110Y-7002360D02*
X11066110Y-6952360D01*
X11016110Y-6902360D01*
X10966110Y-6952360D01*
X11016110Y-7002360D01*
X11016110Y-7256360D02*
X11066110Y-7206360D01*
X11016110Y-7156360D01*
X10966110Y-7206360D01*
X11016110Y-7256360D01*
X11016110Y-7510360D02*
X11066110Y-7460360D01*
X11016110Y-7410360D01*
X10966110Y-7460360D01*
X11016110Y-7510360D01*
X11016110Y-7764360D02*
X11066110Y-7714360D01*
X11016110Y-7664360D01*
X10966110Y-7714360D01*
X11016110Y-7764360D01*
X14051410Y-9008960D02*
X14101410Y-8958960D01*
X14051410Y-8908960D01*
X14001410Y-8958960D01*
X14051410Y-9008960D01*
X14305410Y-9008960D02*
X14355410Y-8958960D01*
X14305410Y-8908960D01*
X14255410Y-8958960D01*
X14305410Y-9008960D01*
X14559410Y-9008960D02*
X14609410Y-8958960D01*
X14559410Y-8908960D01*
X14509410Y-8958960D01*
X14559410Y-9008960D01*
X14813410Y-9008960D02*
X14863410Y-8958960D01*
X14813410Y-8908960D01*
X14763410Y-8958960D01*
X14813410Y-9008960D01*
X15067410Y-9008960D02*
X15117410Y-8958960D01*
X15067410Y-8908960D01*
X15017410Y-8958960D01*
X15067410Y-9008960D01*
X15321410Y-9008960D02*
X15371410Y-8958960D01*
X15321410Y-8908960D01*
X15271410Y-8958960D01*
X15321410Y-9008960D01*
X10762110Y-5224360D02*
X10812110Y-5174360D01*
X10762110Y-5124360D01*
X10712110Y-5174360D01*
X10762110Y-5224360D01*
X11016110Y-5224360D02*
X11066110Y-5174360D01*
X11016110Y-5124360D01*
X10966110Y-5174360D01*
X11016110Y-5224360D01*
X11270110Y-5224360D02*
X11320110Y-5174360D01*
X11270110Y-5124360D01*
X11220110Y-5174360D01*
X11270110Y-5224360D01*
X11524110Y-5224360D02*
X11574110Y-5174360D01*
X11524110Y-5124360D01*
X11474110Y-5174360D01*
X11524110Y-5224360D01*
X11778110Y-5224360D02*
X11828110Y-5174360D01*
X11778110Y-5124360D01*
X11728110Y-5174360D01*
X11778110Y-5224360D01*
X12032110Y-5224360D02*
X12082110Y-5174360D01*
X12032110Y-5124360D01*
X11982110Y-5174360D01*
X12032110Y-5224360D01*
X12286110Y-5224360D02*
X12336110Y-5174360D01*
X12286110Y-5124360D01*
X12236110Y-5174360D01*
X12286110Y-5224360D01*
X12540110Y-5224360D02*
X12590110Y-5174360D01*
X12540110Y-5124360D01*
X12490110Y-5174360D01*
X12540110Y-5224360D01*
X12794110Y-5224360D02*
X12844110Y-5174360D01*
X12794110Y-5124360D01*
X12744110Y-5174360D01*
X12794110Y-5224360D01*
X13048110Y-5224360D02*
X13098110Y-5174360D01*
X13048110Y-5124360D01*
X12998110Y-5174360D01*
X13048110Y-5224360D01*
X13302110Y-5224360D02*
X13352110Y-5174360D01*
X13302110Y-5124360D01*
X13252110Y-5174360D01*
X13302110Y-5224360D01*
X13556110Y-5224360D02*
X13606110Y-5174360D01*
X13556110Y-5124360D01*
X13506110Y-5174360D01*
X13556110Y-5224360D01*
X13810110Y-5224360D02*
X13860110Y-5174360D01*
X13810110Y-5124360D01*
X13760110Y-5174360D01*
X13810110Y-5224360D01*
X14064110Y-5224360D02*
X14114110Y-5174360D01*
X14064110Y-5124360D01*
X14014110Y-5174360D01*
X14064110Y-5224360D01*
X14318110Y-5224360D02*
X14368110Y-5174360D01*
X14318110Y-5124360D01*
X14268110Y-5174360D01*
X14318110Y-5224360D01*
X14572110Y-5224360D02*
X14622110Y-5174360D01*
X14572110Y-5124360D01*
X14522110Y-5174360D01*
X14572110Y-5224360D01*
X14826110Y-5224360D02*
X14876110Y-5174360D01*
X14826110Y-5124360D01*
X14776110Y-5174360D01*
X14826110Y-5224360D01*
X15080110Y-5224360D02*
X15130110Y-5174360D01*
X15080110Y-5124360D01*
X15030110Y-5174360D01*
X15080110Y-5224360D01*
X15334110Y-5224360D02*
X15384110Y-5174360D01*
X15334110Y-5124360D01*
X15284110Y-5174360D01*
X15334110Y-5224360D01*
X15588110Y-5224360D02*
X15638110Y-5174360D01*
X15588110Y-5124360D01*
X15538110Y-5174360D01*
X15588110Y-5224360D01*
D12*
X10279038Y-10473574D02*
X10279038Y-10173574D01*
X10350467Y-10173574D01*
X10393324Y-10187860D01*
X10421896Y-10216432D01*
X10436181Y-10245003D01*
X10450467Y-10302146D01*
X10450467Y-10345003D01*
X10436181Y-10402146D01*
X10421896Y-10430717D01*
X10393324Y-10459289D01*
X10350467Y-10473574D01*
X10279038Y-10473574D01*
X10579038Y-10473574D02*
X10579038Y-10273574D01*
X10579038Y-10330717D02*
X10593324Y-10302146D01*
X10607610Y-10287860D01*
X10636181Y-10273574D01*
X10664753Y-10273574D01*
X10764753Y-10473574D02*
X10764753Y-10273574D01*
X10764753Y-10173574D02*
X10750467Y-10187860D01*
X10764753Y-10202146D01*
X10779038Y-10187860D01*
X10764753Y-10173574D01*
X10764753Y-10202146D01*
X10950467Y-10473574D02*
X10921896Y-10459289D01*
X10907610Y-10430717D01*
X10907610Y-10173574D01*
X11107610Y-10473574D02*
X11079038Y-10459289D01*
X11064753Y-10430717D01*
X11064753Y-10173574D01*
X11450467Y-10473574D02*
X11450467Y-10173574D01*
X11550467Y-10387860D01*
X11650467Y-10173574D01*
X11650467Y-10473574D01*
X11921896Y-10473574D02*
X11921896Y-10316432D01*
X11907610Y-10287860D01*
X11879038Y-10273574D01*
X11821896Y-10273574D01*
X11793324Y-10287860D01*
X11921896Y-10459289D02*
X11893324Y-10473574D01*
X11821896Y-10473574D01*
X11793324Y-10459289D01*
X11779038Y-10430717D01*
X11779038Y-10402146D01*
X11793324Y-10373574D01*
X11821896Y-10359289D01*
X11893324Y-10359289D01*
X11921896Y-10345003D01*
X12064753Y-10273574D02*
X12064753Y-10573574D01*
X12064753Y-10287860D02*
X12093324Y-10273574D01*
X12150467Y-10273574D01*
X12179038Y-10287860D01*
X12193324Y-10302146D01*
X12207610Y-10330717D01*
X12207610Y-10416432D01*
X12193324Y-10445003D01*
X12179038Y-10459289D01*
X12150467Y-10473574D01*
X12093324Y-10473574D01*
X12064753Y-10459289D01*
X12336181Y-10445003D02*
X12350467Y-10459289D01*
X12336181Y-10473574D01*
X12321896Y-10459289D01*
X12336181Y-10445003D01*
X12336181Y-10473574D01*
X12336181Y-10287860D02*
X12350467Y-10302146D01*
X12336181Y-10316432D01*
X12321896Y-10302146D01*
X12336181Y-10287860D01*
X12336181Y-10316432D01*
X9942610Y-10942860D02*
X9992610Y-10992860D01*
X9992610Y-10942860D02*
X9942610Y-10992860D01*
X10336181Y-10803574D02*
X10364753Y-10803574D01*
X10393324Y-10817860D01*
X10407610Y-10832146D01*
X10421896Y-10860717D01*
X10436181Y-10917860D01*
X10436181Y-10989289D01*
X10421896Y-11046432D01*
X10407610Y-11075003D01*
X10393324Y-11089289D01*
X10364753Y-11103574D01*
X10336181Y-11103574D01*
X10307610Y-11089289D01*
X10293324Y-11075003D01*
X10279038Y-11046432D01*
X10264753Y-10989289D01*
X10264753Y-10917860D01*
X10279038Y-10860717D01*
X10293324Y-10832146D01*
X10307610Y-10817860D01*
X10336181Y-10803574D01*
X10564753Y-11075003D02*
X10579038Y-11089289D01*
X10564753Y-11103574D01*
X10550467Y-11089289D01*
X10564753Y-11075003D01*
X10564753Y-11103574D01*
X10850467Y-10803574D02*
X10707610Y-10803574D01*
X10693324Y-10946432D01*
X10707610Y-10932146D01*
X10736181Y-10917860D01*
X10807610Y-10917860D01*
X10836181Y-10932146D01*
X10850467Y-10946432D01*
X10864753Y-10975003D01*
X10864753Y-11046432D01*
X10850467Y-11075003D01*
X10836181Y-11089289D01*
X10807610Y-11103574D01*
X10736181Y-11103574D01*
X10707610Y-11089289D01*
X10693324Y-11075003D01*
X11050467Y-10803574D02*
X11079038Y-10803574D01*
X11107610Y-10817860D01*
X11121896Y-10832146D01*
X11136181Y-10860717D01*
X11150467Y-10917860D01*
X11150467Y-10989289D01*
X11136181Y-11046432D01*
X11121896Y-11075003D01*
X11107610Y-11089289D01*
X11079038Y-11103574D01*
X11050467Y-11103574D01*
X11021896Y-11089289D01*
X11007610Y-11075003D01*
X10993324Y-11046432D01*
X10979038Y-10989289D01*
X10979038Y-10917860D01*
X10993324Y-10860717D01*
X11007610Y-10832146D01*
X11021896Y-10817860D01*
X11050467Y-10803574D01*
X11279038Y-11103574D02*
X11279038Y-10903574D01*
X11279038Y-10932146D02*
X11293324Y-10917860D01*
X11321896Y-10903574D01*
X11364753Y-10903574D01*
X11393324Y-10917860D01*
X11407610Y-10946432D01*
X11407610Y-11103574D01*
X11407610Y-10946432D02*
X11421896Y-10917860D01*
X11450467Y-10903574D01*
X11493324Y-10903574D01*
X11521896Y-10917860D01*
X11536181Y-10946432D01*
X11536181Y-11103574D01*
X11679038Y-11103574D02*
X11679038Y-10903574D01*
X11679038Y-10932146D02*
X11693324Y-10917860D01*
X11721896Y-10903574D01*
X11764753Y-10903574D01*
X11793324Y-10917860D01*
X11807610Y-10946432D01*
X11807610Y-11103574D01*
X11807610Y-10946432D02*
X11821896Y-10917860D01*
X11850467Y-10903574D01*
X11893324Y-10903574D01*
X11921896Y-10917860D01*
X11936181Y-10946432D01*
X11936181Y-11103574D01*
X12521896Y-10789289D02*
X12264753Y-11175003D01*
X12907610Y-10803574D02*
X12936181Y-10803574D01*
X12964753Y-10817860D01*
X12979038Y-10832146D01*
X12993324Y-10860717D01*
X13007610Y-10917860D01*
X13007610Y-10989289D01*
X12993324Y-11046432D01*
X12979038Y-11075003D01*
X12964753Y-11089289D01*
X12936181Y-11103574D01*
X12907610Y-11103574D01*
X12879038Y-11089289D01*
X12864753Y-11075003D01*
X12850467Y-11046432D01*
X12836181Y-10989289D01*
X12836181Y-10917860D01*
X12850467Y-10860717D01*
X12864753Y-10832146D01*
X12879038Y-10817860D01*
X12907610Y-10803574D01*
X13136181Y-11075003D02*
X13150467Y-11089289D01*
X13136181Y-11103574D01*
X13121896Y-11089289D01*
X13136181Y-11075003D01*
X13136181Y-11103574D01*
X13336181Y-10803574D02*
X13364753Y-10803574D01*
X13393324Y-10817860D01*
X13407610Y-10832146D01*
X13421896Y-10860717D01*
X13436181Y-10917860D01*
X13436181Y-10989289D01*
X13421896Y-11046432D01*
X13407610Y-11075003D01*
X13393324Y-11089289D01*
X13364753Y-11103574D01*
X13336181Y-11103574D01*
X13307610Y-11089289D01*
X13293324Y-11075003D01*
X13279038Y-11046432D01*
X13264753Y-10989289D01*
X13264753Y-10917860D01*
X13279038Y-10860717D01*
X13293324Y-10832146D01*
X13307610Y-10817860D01*
X13336181Y-10803574D01*
X13550467Y-10832146D02*
X13564753Y-10817860D01*
X13593324Y-10803574D01*
X13664753Y-10803574D01*
X13693324Y-10817860D01*
X13707610Y-10832146D01*
X13721896Y-10860717D01*
X13721896Y-10889289D01*
X13707610Y-10932146D01*
X13536181Y-11103574D01*
X13721896Y-11103574D01*
X13907610Y-10803574D02*
X13936181Y-10803574D01*
X13964753Y-10817860D01*
X13979038Y-10832146D01*
X13993324Y-10860717D01*
X14007610Y-10917860D01*
X14007610Y-10989289D01*
X13993324Y-11046432D01*
X13979038Y-11075003D01*
X13964753Y-11089289D01*
X13936181Y-11103574D01*
X13907610Y-11103574D01*
X13879038Y-11089289D01*
X13864753Y-11075003D01*
X13850467Y-11046432D01*
X13836181Y-10989289D01*
X13836181Y-10917860D01*
X13850467Y-10860717D01*
X13864753Y-10832146D01*
X13879038Y-10817860D01*
X13907610Y-10803574D01*
X14121896Y-10803574D02*
X14121896Y-10860717D01*
X14236181Y-10803574D02*
X14236181Y-10860717D01*
X14679038Y-11217860D02*
X14664753Y-11203574D01*
X14636181Y-11160717D01*
X14621896Y-11132146D01*
X14607610Y-11089289D01*
X14593324Y-11017860D01*
X14593324Y-10960717D01*
X14607610Y-10889289D01*
X14621896Y-10846432D01*
X14636181Y-10817860D01*
X14664753Y-10775003D01*
X14679038Y-10760717D01*
X14921896Y-10803574D02*
X14864753Y-10803574D01*
X14836181Y-10817860D01*
X14821896Y-10832146D01*
X14793324Y-10875003D01*
X14779038Y-10932146D01*
X14779038Y-11046432D01*
X14793324Y-11075003D01*
X14807610Y-11089289D01*
X14836181Y-11103574D01*
X14893324Y-11103574D01*
X14921896Y-11089289D01*
X14936181Y-11075003D01*
X14950467Y-11046432D01*
X14950467Y-10975003D01*
X14936181Y-10946432D01*
X14921896Y-10932146D01*
X14893324Y-10917860D01*
X14836181Y-10917860D01*
X14807610Y-10932146D01*
X14793324Y-10946432D01*
X14779038Y-10975003D01*
X15136181Y-10803574D02*
X15164753Y-10803574D01*
X15193324Y-10817860D01*
X15207610Y-10832146D01*
X15221896Y-10860717D01*
X15236181Y-10917860D01*
X15236181Y-10989289D01*
X15221896Y-11046432D01*
X15207610Y-11075003D01*
X15193324Y-11089289D01*
X15164753Y-11103574D01*
X15136181Y-11103574D01*
X15107610Y-11089289D01*
X15093324Y-11075003D01*
X15079038Y-11046432D01*
X15064753Y-10989289D01*
X15064753Y-10917860D01*
X15079038Y-10860717D01*
X15093324Y-10832146D01*
X15107610Y-10817860D01*
X15136181Y-10803574D01*
X15593324Y-11103574D02*
X15593324Y-10803574D01*
X15721896Y-11103574D02*
X15721896Y-10946432D01*
X15707610Y-10917860D01*
X15679038Y-10903574D01*
X15636181Y-10903574D01*
X15607610Y-10917860D01*
X15593324Y-10932146D01*
X15907610Y-11103574D02*
X15879038Y-11089289D01*
X15864753Y-11075003D01*
X15850467Y-11046432D01*
X15850467Y-10960717D01*
X15864753Y-10932146D01*
X15879038Y-10917860D01*
X15907610Y-10903574D01*
X15950467Y-10903574D01*
X15979038Y-10917860D01*
X15993324Y-10932146D01*
X16007610Y-10960717D01*
X16007610Y-11046432D01*
X15993324Y-11075003D01*
X15979038Y-11089289D01*
X15950467Y-11103574D01*
X15907610Y-11103574D01*
X16179038Y-11103574D02*
X16150467Y-11089289D01*
X16136181Y-11060717D01*
X16136181Y-10803574D01*
X16407610Y-11089289D02*
X16379038Y-11103574D01*
X16321896Y-11103574D01*
X16293324Y-11089289D01*
X16279038Y-11060717D01*
X16279038Y-10946432D01*
X16293324Y-10917860D01*
X16321896Y-10903574D01*
X16379038Y-10903574D01*
X16407610Y-10917860D01*
X16421896Y-10946432D01*
X16421896Y-10975003D01*
X16279038Y-11003574D01*
X16536181Y-11089289D02*
X16564753Y-11103574D01*
X16621896Y-11103574D01*
X16650467Y-11089289D01*
X16664753Y-11060717D01*
X16664753Y-11046432D01*
X16650467Y-11017860D01*
X16621896Y-11003574D01*
X16579038Y-11003574D01*
X16550467Y-10989289D01*
X16536181Y-10960717D01*
X16536181Y-10946432D01*
X16550467Y-10917860D01*
X16579038Y-10903574D01*
X16621896Y-10903574D01*
X16650467Y-10917860D01*
X16764753Y-11217860D02*
X16779038Y-11203574D01*
X16807610Y-11160717D01*
X16821896Y-11132146D01*
X16836181Y-11089289D01*
X16850467Y-11017860D01*
X16850467Y-10960717D01*
X16836181Y-10889289D01*
X16821896Y-10846432D01*
X16807610Y-10817860D01*
X16779038Y-10775003D01*
X16764753Y-10760717D01*
X9992610Y-11363860D02*
G75*
G03X9992610Y-11363860I-30000J0D01*
G01*
X10336181Y-11199574D02*
X10364753Y-11199574D01*
X10393324Y-11213860D01*
X10407610Y-11228146D01*
X10421896Y-11256717D01*
X10436181Y-11313860D01*
X10436181Y-11385289D01*
X10421896Y-11442431D01*
X10407610Y-11471003D01*
X10393324Y-11485289D01*
X10364753Y-11499574D01*
X10336181Y-11499574D01*
X10307610Y-11485289D01*
X10293324Y-11471003D01*
X10279038Y-11442431D01*
X10264753Y-11385289D01*
X10264753Y-11313860D01*
X10279038Y-11256717D01*
X10293324Y-11228146D01*
X10307610Y-11213860D01*
X10336181Y-11199574D01*
X10564753Y-11471003D02*
X10579038Y-11485289D01*
X10564753Y-11499574D01*
X10550467Y-11485289D01*
X10564753Y-11471003D01*
X10564753Y-11499574D01*
X10836181Y-11199574D02*
X10779038Y-11199574D01*
X10750467Y-11213860D01*
X10736181Y-11228146D01*
X10707610Y-11271003D01*
X10693324Y-11328146D01*
X10693324Y-11442431D01*
X10707610Y-11471003D01*
X10721896Y-11485289D01*
X10750467Y-11499574D01*
X10807610Y-11499574D01*
X10836181Y-11485289D01*
X10850467Y-11471003D01*
X10864753Y-11442431D01*
X10864753Y-11371003D01*
X10850467Y-11342431D01*
X10836181Y-11328146D01*
X10807610Y-11313860D01*
X10750467Y-11313860D01*
X10721896Y-11328146D01*
X10707610Y-11342431D01*
X10693324Y-11371003D01*
X11050467Y-11199574D02*
X11079038Y-11199574D01*
X11107610Y-11213860D01*
X11121896Y-11228146D01*
X11136181Y-11256717D01*
X11150467Y-11313860D01*
X11150467Y-11385289D01*
X11136181Y-11442431D01*
X11121896Y-11471003D01*
X11107610Y-11485289D01*
X11079038Y-11499574D01*
X11050467Y-11499574D01*
X11021896Y-11485289D01*
X11007610Y-11471003D01*
X10993324Y-11442431D01*
X10979038Y-11385289D01*
X10979038Y-11313860D01*
X10993324Y-11256717D01*
X11007610Y-11228146D01*
X11021896Y-11213860D01*
X11050467Y-11199574D01*
X11279038Y-11499574D02*
X11279038Y-11299574D01*
X11279038Y-11328146D02*
X11293324Y-11313860D01*
X11321896Y-11299574D01*
X11364753Y-11299574D01*
X11393324Y-11313860D01*
X11407610Y-11342431D01*
X11407610Y-11499574D01*
X11407610Y-11342431D02*
X11421896Y-11313860D01*
X11450467Y-11299574D01*
X11493324Y-11299574D01*
X11521896Y-11313860D01*
X11536181Y-11342431D01*
X11536181Y-11499574D01*
X11679038Y-11499574D02*
X11679038Y-11299574D01*
X11679038Y-11328146D02*
X11693324Y-11313860D01*
X11721896Y-11299574D01*
X11764753Y-11299574D01*
X11793324Y-11313860D01*
X11807610Y-11342431D01*
X11807610Y-11499574D01*
X11807610Y-11342431D02*
X11821896Y-11313860D01*
X11850467Y-11299574D01*
X11893324Y-11299574D01*
X11921896Y-11313860D01*
X11936181Y-11342431D01*
X11936181Y-11499574D01*
X12521896Y-11185289D02*
X12264753Y-11571003D01*
X12907610Y-11199574D02*
X12936181Y-11199574D01*
X12964753Y-11213860D01*
X12979038Y-11228146D01*
X12993324Y-11256717D01*
X13007610Y-11313860D01*
X13007610Y-11385289D01*
X12993324Y-11442431D01*
X12979038Y-11471003D01*
X12964753Y-11485289D01*
X12936181Y-11499574D01*
X12907610Y-11499574D01*
X12879038Y-11485289D01*
X12864753Y-11471003D01*
X12850467Y-11442431D01*
X12836181Y-11385289D01*
X12836181Y-11313860D01*
X12850467Y-11256717D01*
X12864753Y-11228146D01*
X12879038Y-11213860D01*
X12907610Y-11199574D01*
X13136181Y-11471003D02*
X13150467Y-11485289D01*
X13136181Y-11499574D01*
X13121896Y-11485289D01*
X13136181Y-11471003D01*
X13136181Y-11499574D01*
X13336181Y-11199574D02*
X13364753Y-11199574D01*
X13393324Y-11213860D01*
X13407610Y-11228146D01*
X13421896Y-11256717D01*
X13436181Y-11313860D01*
X13436181Y-11385289D01*
X13421896Y-11442431D01*
X13407610Y-11471003D01*
X13393324Y-11485289D01*
X13364753Y-11499574D01*
X13336181Y-11499574D01*
X13307610Y-11485289D01*
X13293324Y-11471003D01*
X13279038Y-11442431D01*
X13264753Y-11385289D01*
X13264753Y-11313860D01*
X13279038Y-11256717D01*
X13293324Y-11228146D01*
X13307610Y-11213860D01*
X13336181Y-11199574D01*
X13550467Y-11228146D02*
X13564753Y-11213860D01*
X13593324Y-11199574D01*
X13664753Y-11199574D01*
X13693324Y-11213860D01*
X13707610Y-11228146D01*
X13721896Y-11256717D01*
X13721896Y-11285289D01*
X13707610Y-11328146D01*
X13536181Y-11499574D01*
X13721896Y-11499574D01*
X13979038Y-11299574D02*
X13979038Y-11499574D01*
X13907610Y-11185289D02*
X13836181Y-11399574D01*
X14021896Y-11399574D01*
X14121896Y-11199574D02*
X14121896Y-11256717D01*
X14236181Y-11199574D02*
X14236181Y-11256717D01*
X14679038Y-11613860D02*
X14664753Y-11599574D01*
X14636181Y-11556717D01*
X14621896Y-11528146D01*
X14607610Y-11485289D01*
X14593324Y-11413860D01*
X14593324Y-11356717D01*
X14607610Y-11285289D01*
X14621896Y-11242431D01*
X14636181Y-11213860D01*
X14664753Y-11171003D01*
X14679038Y-11156717D01*
X14779038Y-11228146D02*
X14793324Y-11213860D01*
X14821896Y-11199574D01*
X14893324Y-11199574D01*
X14921896Y-11213860D01*
X14936181Y-11228146D01*
X14950467Y-11256717D01*
X14950467Y-11285289D01*
X14936181Y-11328146D01*
X14764753Y-11499574D01*
X14950467Y-11499574D01*
X15050467Y-11199574D02*
X15236181Y-11199574D01*
X15136181Y-11313860D01*
X15179038Y-11313860D01*
X15207610Y-11328146D01*
X15221896Y-11342431D01*
X15236181Y-11371003D01*
X15236181Y-11442431D01*
X15221896Y-11471003D01*
X15207610Y-11485289D01*
X15179038Y-11499574D01*
X15093324Y-11499574D01*
X15064753Y-11485289D01*
X15050467Y-11471003D01*
X15593324Y-11499574D02*
X15593324Y-11199574D01*
X15721896Y-11499574D02*
X15721896Y-11342431D01*
X15707610Y-11313860D01*
X15679038Y-11299574D01*
X15636181Y-11299574D01*
X15607610Y-11313860D01*
X15593324Y-11328146D01*
X15907610Y-11499574D02*
X15879038Y-11485289D01*
X15864753Y-11471003D01*
X15850467Y-11442431D01*
X15850467Y-11356717D01*
X15864753Y-11328146D01*
X15879038Y-11313860D01*
X15907610Y-11299574D01*
X15950467Y-11299574D01*
X15979038Y-11313860D01*
X15993324Y-11328146D01*
X16007610Y-11356717D01*
X16007610Y-11442431D01*
X15993324Y-11471003D01*
X15979038Y-11485289D01*
X15950467Y-11499574D01*
X15907610Y-11499574D01*
X16179038Y-11499574D02*
X16150467Y-11485289D01*
X16136181Y-11456717D01*
X16136181Y-11199574D01*
X16407610Y-11485289D02*
X16379038Y-11499574D01*
X16321896Y-11499574D01*
X16293324Y-11485289D01*
X16279038Y-11456717D01*
X16279038Y-11342431D01*
X16293324Y-11313860D01*
X16321896Y-11299574D01*
X16379038Y-11299574D01*
X16407610Y-11313860D01*
X16421896Y-11342431D01*
X16421896Y-11371003D01*
X16279038Y-11399574D01*
X16536181Y-11485289D02*
X16564753Y-11499574D01*
X16621896Y-11499574D01*
X16650467Y-11485289D01*
X16664753Y-11456717D01*
X16664753Y-11442431D01*
X16650467Y-11413860D01*
X16621896Y-11399574D01*
X16579038Y-11399574D01*
X16550467Y-11385289D01*
X16536181Y-11356717D01*
X16536181Y-11342431D01*
X16550467Y-11313860D01*
X16579038Y-11299574D01*
X16621896Y-11299574D01*
X16650467Y-11313860D01*
X16764753Y-11613860D02*
X16779038Y-11599574D01*
X16807610Y-11556717D01*
X16821896Y-11528146D01*
X16836181Y-11485289D01*
X16850467Y-11413860D01*
X16850467Y-11356717D01*
X16836181Y-11285289D01*
X16821896Y-11242431D01*
X16807610Y-11213860D01*
X16779038Y-11171003D01*
X16764753Y-11156717D01*
X9952610Y-11719860D02*
X9952610Y-11799860D01*
X9912610Y-11759860D02*
X9992610Y-11759860D01*
X10336181Y-11595574D02*
X10364753Y-11595574D01*
X10393324Y-11609860D01*
X10407610Y-11624146D01*
X10421896Y-11652717D01*
X10436181Y-11709860D01*
X10436181Y-11781289D01*
X10421896Y-11838431D01*
X10407610Y-11867003D01*
X10393324Y-11881289D01*
X10364753Y-11895574D01*
X10336181Y-11895574D01*
X10307610Y-11881289D01*
X10293324Y-11867003D01*
X10279038Y-11838431D01*
X10264753Y-11781289D01*
X10264753Y-11709860D01*
X10279038Y-11652717D01*
X10293324Y-11624146D01*
X10307610Y-11609860D01*
X10336181Y-11595574D01*
X10564753Y-11867003D02*
X10579038Y-11881289D01*
X10564753Y-11895574D01*
X10550467Y-11881289D01*
X10564753Y-11867003D01*
X10564753Y-11895574D01*
X10750467Y-11724146D02*
X10721896Y-11709860D01*
X10707610Y-11695574D01*
X10693324Y-11667003D01*
X10693324Y-11652717D01*
X10707610Y-11624146D01*
X10721896Y-11609860D01*
X10750467Y-11595574D01*
X10807610Y-11595574D01*
X10836181Y-11609860D01*
X10850467Y-11624146D01*
X10864753Y-11652717D01*
X10864753Y-11667003D01*
X10850467Y-11695574D01*
X10836181Y-11709860D01*
X10807610Y-11724146D01*
X10750467Y-11724146D01*
X10721896Y-11738431D01*
X10707610Y-11752717D01*
X10693324Y-11781289D01*
X10693324Y-11838431D01*
X10707610Y-11867003D01*
X10721896Y-11881289D01*
X10750467Y-11895574D01*
X10807610Y-11895574D01*
X10836181Y-11881289D01*
X10850467Y-11867003D01*
X10864753Y-11838431D01*
X10864753Y-11781289D01*
X10850467Y-11752717D01*
X10836181Y-11738431D01*
X10807610Y-11724146D01*
X11050467Y-11595574D02*
X11079038Y-11595574D01*
X11107610Y-11609860D01*
X11121896Y-11624146D01*
X11136181Y-11652717D01*
X11150467Y-11709860D01*
X11150467Y-11781289D01*
X11136181Y-11838431D01*
X11121896Y-11867003D01*
X11107610Y-11881289D01*
X11079038Y-11895574D01*
X11050467Y-11895574D01*
X11021896Y-11881289D01*
X11007610Y-11867003D01*
X10993324Y-11838431D01*
X10979038Y-11781289D01*
X10979038Y-11709860D01*
X10993324Y-11652717D01*
X11007610Y-11624146D01*
X11021896Y-11609860D01*
X11050467Y-11595574D01*
X11279038Y-11895574D02*
X11279038Y-11695574D01*
X11279038Y-11724146D02*
X11293324Y-11709860D01*
X11321896Y-11695574D01*
X11364753Y-11695574D01*
X11393324Y-11709860D01*
X11407610Y-11738431D01*
X11407610Y-11895574D01*
X11407610Y-11738431D02*
X11421896Y-11709860D01*
X11450467Y-11695574D01*
X11493324Y-11695574D01*
X11521896Y-11709860D01*
X11536181Y-11738431D01*
X11536181Y-11895574D01*
X11679038Y-11895574D02*
X11679038Y-11695574D01*
X11679038Y-11724146D02*
X11693324Y-11709860D01*
X11721896Y-11695574D01*
X11764753Y-11695574D01*
X11793324Y-11709860D01*
X11807610Y-11738431D01*
X11807610Y-11895574D01*
X11807610Y-11738431D02*
X11821896Y-11709860D01*
X11850467Y-11695574D01*
X11893324Y-11695574D01*
X11921896Y-11709860D01*
X11936181Y-11738431D01*
X11936181Y-11895574D01*
X12521896Y-11581289D02*
X12264753Y-11967003D01*
X12907610Y-11595574D02*
X12936181Y-11595574D01*
X12964753Y-11609860D01*
X12979038Y-11624146D01*
X12993324Y-11652717D01*
X13007610Y-11709860D01*
X13007610Y-11781289D01*
X12993324Y-11838431D01*
X12979038Y-11867003D01*
X12964753Y-11881289D01*
X12936181Y-11895574D01*
X12907610Y-11895574D01*
X12879038Y-11881289D01*
X12864753Y-11867003D01*
X12850467Y-11838431D01*
X12836181Y-11781289D01*
X12836181Y-11709860D01*
X12850467Y-11652717D01*
X12864753Y-11624146D01*
X12879038Y-11609860D01*
X12907610Y-11595574D01*
X13136181Y-11867003D02*
X13150467Y-11881289D01*
X13136181Y-11895574D01*
X13121896Y-11881289D01*
X13136181Y-11867003D01*
X13136181Y-11895574D01*
X13336181Y-11595574D02*
X13364753Y-11595574D01*
X13393324Y-11609860D01*
X13407610Y-11624146D01*
X13421896Y-11652717D01*
X13436181Y-11709860D01*
X13436181Y-11781289D01*
X13421896Y-11838431D01*
X13407610Y-11867003D01*
X13393324Y-11881289D01*
X13364753Y-11895574D01*
X13336181Y-11895574D01*
X13307610Y-11881289D01*
X13293324Y-11867003D01*
X13279038Y-11838431D01*
X13264753Y-11781289D01*
X13264753Y-11709860D01*
X13279038Y-11652717D01*
X13293324Y-11624146D01*
X13307610Y-11609860D01*
X13336181Y-11595574D01*
X13536181Y-11595574D02*
X13721896Y-11595574D01*
X13621896Y-11709860D01*
X13664753Y-11709860D01*
X13693324Y-11724146D01*
X13707610Y-11738431D01*
X13721896Y-11767003D01*
X13721896Y-11838431D01*
X13707610Y-11867003D01*
X13693324Y-11881289D01*
X13664753Y-11895574D01*
X13579038Y-11895574D01*
X13550467Y-11881289D01*
X13536181Y-11867003D01*
X14007610Y-11895574D02*
X13836181Y-11895574D01*
X13921896Y-11895574D02*
X13921896Y-11595574D01*
X13893324Y-11638431D01*
X13864753Y-11667003D01*
X13836181Y-11681289D01*
X14121896Y-11595574D02*
X14121896Y-11652717D01*
X14236181Y-11595574D02*
X14236181Y-11652717D01*
X14679038Y-12009860D02*
X14664753Y-11995574D01*
X14636181Y-11952717D01*
X14621896Y-11924146D01*
X14607610Y-11881289D01*
X14593324Y-11809860D01*
X14593324Y-11752717D01*
X14607610Y-11681289D01*
X14621896Y-11638431D01*
X14636181Y-11609860D01*
X14664753Y-11567003D01*
X14679038Y-11552717D01*
X14779038Y-11624146D02*
X14793324Y-11609860D01*
X14821896Y-11595574D01*
X14893324Y-11595574D01*
X14921896Y-11609860D01*
X14936181Y-11624146D01*
X14950467Y-11652717D01*
X14950467Y-11681289D01*
X14936181Y-11724146D01*
X14764753Y-11895574D01*
X14950467Y-11895574D01*
X15136181Y-11595574D02*
X15164753Y-11595574D01*
X15193324Y-11609860D01*
X15207610Y-11624146D01*
X15221896Y-11652717D01*
X15236181Y-11709860D01*
X15236181Y-11781289D01*
X15221896Y-11838431D01*
X15207610Y-11867003D01*
X15193324Y-11881289D01*
X15164753Y-11895574D01*
X15136181Y-11895574D01*
X15107610Y-11881289D01*
X15093324Y-11867003D01*
X15079038Y-11838431D01*
X15064753Y-11781289D01*
X15064753Y-11709860D01*
X15079038Y-11652717D01*
X15093324Y-11624146D01*
X15107610Y-11609860D01*
X15136181Y-11595574D01*
X15593324Y-11895574D02*
X15593324Y-11595574D01*
X15721896Y-11895574D02*
X15721896Y-11738431D01*
X15707610Y-11709860D01*
X15679038Y-11695574D01*
X15636181Y-11695574D01*
X15607610Y-11709860D01*
X15593324Y-11724146D01*
X15907610Y-11895574D02*
X15879038Y-11881289D01*
X15864753Y-11867003D01*
X15850467Y-11838431D01*
X15850467Y-11752717D01*
X15864753Y-11724146D01*
X15879038Y-11709860D01*
X15907610Y-11695574D01*
X15950467Y-11695574D01*
X15979038Y-11709860D01*
X15993324Y-11724146D01*
X16007610Y-11752717D01*
X16007610Y-11838431D01*
X15993324Y-11867003D01*
X15979038Y-11881289D01*
X15950467Y-11895574D01*
X15907610Y-11895574D01*
X16179038Y-11895574D02*
X16150467Y-11881289D01*
X16136181Y-11852717D01*
X16136181Y-11595574D01*
X16407610Y-11881289D02*
X16379038Y-11895574D01*
X16321896Y-11895574D01*
X16293324Y-11881289D01*
X16279038Y-11852717D01*
X16279038Y-11738431D01*
X16293324Y-11709860D01*
X16321896Y-11695574D01*
X16379038Y-11695574D01*
X16407610Y-11709860D01*
X16421896Y-11738431D01*
X16421896Y-11767003D01*
X16279038Y-11795574D01*
X16536181Y-11881289D02*
X16564753Y-11895574D01*
X16621896Y-11895574D01*
X16650467Y-11881289D01*
X16664753Y-11852717D01*
X16664753Y-11838431D01*
X16650467Y-11809860D01*
X16621896Y-11795574D01*
X16579038Y-11795574D01*
X16550467Y-11781289D01*
X16536181Y-11752717D01*
X16536181Y-11738431D01*
X16550467Y-11709860D01*
X16579038Y-11695574D01*
X16621896Y-11695574D01*
X16650467Y-11709860D01*
X16764753Y-12009860D02*
X16779038Y-11995574D01*
X16807610Y-11952717D01*
X16821896Y-11924146D01*
X16836181Y-11881289D01*
X16850467Y-11809860D01*
X16850467Y-11752717D01*
X16836181Y-11681289D01*
X16821896Y-11638431D01*
X16807610Y-11609860D01*
X16779038Y-11567003D01*
X16764753Y-11552717D01*
X9979430Y-12187680D02*
X9979430Y-12124040D01*
X9915790Y-12124040D01*
X9915790Y-12187680D01*
X9979430Y-12187680D01*
X10336181Y-11991574D02*
X10364753Y-11991574D01*
X10393324Y-12005860D01*
X10407610Y-12020146D01*
X10421896Y-12048717D01*
X10436181Y-12105860D01*
X10436181Y-12177289D01*
X10421896Y-12234431D01*
X10407610Y-12263003D01*
X10393324Y-12277289D01*
X10364753Y-12291574D01*
X10336181Y-12291574D01*
X10307610Y-12277289D01*
X10293324Y-12263003D01*
X10279038Y-12234431D01*
X10264753Y-12177289D01*
X10264753Y-12105860D01*
X10279038Y-12048717D01*
X10293324Y-12020146D01*
X10307610Y-12005860D01*
X10336181Y-11991574D01*
X10564753Y-12263003D02*
X10579038Y-12277289D01*
X10564753Y-12291574D01*
X10550467Y-12277289D01*
X10564753Y-12263003D01*
X10564753Y-12291574D01*
X10721896Y-12291574D02*
X10779038Y-12291574D01*
X10807610Y-12277289D01*
X10821896Y-12263003D01*
X10850467Y-12220146D01*
X10864753Y-12163003D01*
X10864753Y-12048717D01*
X10850467Y-12020146D01*
X10836181Y-12005860D01*
X10807610Y-11991574D01*
X10750467Y-11991574D01*
X10721896Y-12005860D01*
X10707610Y-12020146D01*
X10693324Y-12048717D01*
X10693324Y-12120146D01*
X10707610Y-12148717D01*
X10721896Y-12163003D01*
X10750467Y-12177289D01*
X10807610Y-12177289D01*
X10836181Y-12163003D01*
X10850467Y-12148717D01*
X10864753Y-12120146D01*
X11050467Y-11991574D02*
X11079038Y-11991574D01*
X11107610Y-12005860D01*
X11121896Y-12020146D01*
X11136181Y-12048717D01*
X11150467Y-12105860D01*
X11150467Y-12177289D01*
X11136181Y-12234431D01*
X11121896Y-12263003D01*
X11107610Y-12277289D01*
X11079038Y-12291574D01*
X11050467Y-12291574D01*
X11021896Y-12277289D01*
X11007610Y-12263003D01*
X10993324Y-12234431D01*
X10979038Y-12177289D01*
X10979038Y-12105860D01*
X10993324Y-12048717D01*
X11007610Y-12020146D01*
X11021896Y-12005860D01*
X11050467Y-11991574D01*
X11279038Y-12291574D02*
X11279038Y-12091574D01*
X11279038Y-12120146D02*
X11293324Y-12105860D01*
X11321896Y-12091574D01*
X11364753Y-12091574D01*
X11393324Y-12105860D01*
X11407610Y-12134431D01*
X11407610Y-12291574D01*
X11407610Y-12134431D02*
X11421896Y-12105860D01*
X11450467Y-12091574D01*
X11493324Y-12091574D01*
X11521896Y-12105860D01*
X11536181Y-12134431D01*
X11536181Y-12291574D01*
X11679038Y-12291574D02*
X11679038Y-12091574D01*
X11679038Y-12120146D02*
X11693324Y-12105860D01*
X11721896Y-12091574D01*
X11764753Y-12091574D01*
X11793324Y-12105860D01*
X11807610Y-12134431D01*
X11807610Y-12291574D01*
X11807610Y-12134431D02*
X11821896Y-12105860D01*
X11850467Y-12091574D01*
X11893324Y-12091574D01*
X11921896Y-12105860D01*
X11936181Y-12134431D01*
X11936181Y-12291574D01*
X12521896Y-11977289D02*
X12264753Y-12363003D01*
X12907610Y-11991574D02*
X12936181Y-11991574D01*
X12964753Y-12005860D01*
X12979038Y-12020146D01*
X12993324Y-12048717D01*
X13007610Y-12105860D01*
X13007610Y-12177289D01*
X12993324Y-12234431D01*
X12979038Y-12263003D01*
X12964753Y-12277289D01*
X12936181Y-12291574D01*
X12907610Y-12291574D01*
X12879038Y-12277289D01*
X12864753Y-12263003D01*
X12850467Y-12234431D01*
X12836181Y-12177289D01*
X12836181Y-12105860D01*
X12850467Y-12048717D01*
X12864753Y-12020146D01*
X12879038Y-12005860D01*
X12907610Y-11991574D01*
X13136181Y-12263003D02*
X13150467Y-12277289D01*
X13136181Y-12291574D01*
X13121896Y-12277289D01*
X13136181Y-12263003D01*
X13136181Y-12291574D01*
X13336181Y-11991574D02*
X13364753Y-11991574D01*
X13393324Y-12005860D01*
X13407610Y-12020146D01*
X13421896Y-12048717D01*
X13436181Y-12105860D01*
X13436181Y-12177289D01*
X13421896Y-12234431D01*
X13407610Y-12263003D01*
X13393324Y-12277289D01*
X13364753Y-12291574D01*
X13336181Y-12291574D01*
X13307610Y-12277289D01*
X13293324Y-12263003D01*
X13279038Y-12234431D01*
X13264753Y-12177289D01*
X13264753Y-12105860D01*
X13279038Y-12048717D01*
X13293324Y-12020146D01*
X13307610Y-12005860D01*
X13336181Y-11991574D01*
X13536181Y-11991574D02*
X13721896Y-11991574D01*
X13621896Y-12105860D01*
X13664753Y-12105860D01*
X13693324Y-12120146D01*
X13707610Y-12134431D01*
X13721896Y-12163003D01*
X13721896Y-12234431D01*
X13707610Y-12263003D01*
X13693324Y-12277289D01*
X13664753Y-12291574D01*
X13579038Y-12291574D01*
X13550467Y-12277289D01*
X13536181Y-12263003D01*
X13993324Y-11991574D02*
X13850467Y-11991574D01*
X13836181Y-12134431D01*
X13850467Y-12120146D01*
X13879038Y-12105860D01*
X13950467Y-12105860D01*
X13979038Y-12120146D01*
X13993324Y-12134431D01*
X14007610Y-12163003D01*
X14007610Y-12234431D01*
X13993324Y-12263003D01*
X13979038Y-12277289D01*
X13950467Y-12291574D01*
X13879038Y-12291574D01*
X13850467Y-12277289D01*
X13836181Y-12263003D01*
X14121896Y-11991574D02*
X14121896Y-12048717D01*
X14236181Y-11991574D02*
X14236181Y-12048717D01*
X14679038Y-12405860D02*
X14664753Y-12391574D01*
X14636181Y-12348717D01*
X14621896Y-12320146D01*
X14607610Y-12277289D01*
X14593324Y-12205860D01*
X14593324Y-12148717D01*
X14607610Y-12077289D01*
X14621896Y-12034431D01*
X14636181Y-12005860D01*
X14664753Y-11963003D01*
X14679038Y-11948717D01*
X14764753Y-11991574D02*
X14950467Y-11991574D01*
X14850467Y-12105860D01*
X14893324Y-12105860D01*
X14921896Y-12120146D01*
X14936181Y-12134431D01*
X14950467Y-12163003D01*
X14950467Y-12234431D01*
X14936181Y-12263003D01*
X14921896Y-12277289D01*
X14893324Y-12291574D01*
X14807610Y-12291574D01*
X14779038Y-12277289D01*
X14764753Y-12263003D01*
X15307610Y-12291574D02*
X15307610Y-11991574D01*
X15436181Y-12291574D02*
X15436181Y-12134431D01*
X15421896Y-12105860D01*
X15393324Y-12091574D01*
X15350467Y-12091574D01*
X15321896Y-12105860D01*
X15307610Y-12120146D01*
X15621896Y-12291574D02*
X15593324Y-12277289D01*
X15579038Y-12263003D01*
X15564753Y-12234431D01*
X15564753Y-12148717D01*
X15579038Y-12120146D01*
X15593324Y-12105860D01*
X15621896Y-12091574D01*
X15664753Y-12091574D01*
X15693324Y-12105860D01*
X15707610Y-12120146D01*
X15721896Y-12148717D01*
X15721896Y-12234431D01*
X15707610Y-12263003D01*
X15693324Y-12277289D01*
X15664753Y-12291574D01*
X15621896Y-12291574D01*
X15893324Y-12291574D02*
X15864753Y-12277289D01*
X15850467Y-12248717D01*
X15850467Y-11991574D01*
X16121896Y-12277289D02*
X16093324Y-12291574D01*
X16036181Y-12291574D01*
X16007610Y-12277289D01*
X15993324Y-12248717D01*
X15993324Y-12134431D01*
X16007610Y-12105860D01*
X16036181Y-12091574D01*
X16093324Y-12091574D01*
X16121896Y-12105860D01*
X16136181Y-12134431D01*
X16136181Y-12163003D01*
X15993324Y-12191574D01*
X16250467Y-12277289D02*
X16279038Y-12291574D01*
X16336181Y-12291574D01*
X16364753Y-12277289D01*
X16379038Y-12248717D01*
X16379038Y-12234431D01*
X16364753Y-12205860D01*
X16336181Y-12191574D01*
X16293324Y-12191574D01*
X16264753Y-12177289D01*
X16250467Y-12148717D01*
X16250467Y-12134431D01*
X16264753Y-12105860D01*
X16293324Y-12091574D01*
X16336181Y-12091574D01*
X16364753Y-12105860D01*
X16479038Y-12405860D02*
X16493324Y-12391574D01*
X16521896Y-12348717D01*
X16536181Y-12320146D01*
X16550467Y-12277289D01*
X16564753Y-12205860D01*
X16564753Y-12148717D01*
X16550467Y-12077289D01*
X16536181Y-12034431D01*
X16521896Y-12005860D01*
X16493324Y-11963003D01*
X16479038Y-11948717D01*
X9942610Y-12601860D02*
X9992610Y-12551860D01*
X9942610Y-12501860D01*
X9892610Y-12551860D01*
X9942610Y-12601860D01*
X10436181Y-12687574D02*
X10264753Y-12687574D01*
X10350467Y-12687574D02*
X10350467Y-12387574D01*
X10321896Y-12430431D01*
X10293324Y-12459003D01*
X10264753Y-12473289D01*
X10564753Y-12659003D02*
X10579038Y-12673289D01*
X10564753Y-12687574D01*
X10550467Y-12673289D01*
X10564753Y-12659003D01*
X10564753Y-12687574D01*
X10764753Y-12387574D02*
X10793324Y-12387574D01*
X10821896Y-12401860D01*
X10836181Y-12416146D01*
X10850467Y-12444717D01*
X10864753Y-12501860D01*
X10864753Y-12573289D01*
X10850467Y-12630431D01*
X10836181Y-12659003D01*
X10821896Y-12673289D01*
X10793324Y-12687574D01*
X10764753Y-12687574D01*
X10736181Y-12673289D01*
X10721896Y-12659003D01*
X10707610Y-12630431D01*
X10693324Y-12573289D01*
X10693324Y-12501860D01*
X10707610Y-12444717D01*
X10721896Y-12416146D01*
X10736181Y-12401860D01*
X10764753Y-12387574D01*
X11050467Y-12387574D02*
X11079038Y-12387574D01*
X11107610Y-12401860D01*
X11121896Y-12416146D01*
X11136181Y-12444717D01*
X11150467Y-12501860D01*
X11150467Y-12573289D01*
X11136181Y-12630431D01*
X11121896Y-12659003D01*
X11107610Y-12673289D01*
X11079038Y-12687574D01*
X11050467Y-12687574D01*
X11021896Y-12673289D01*
X11007610Y-12659003D01*
X10993324Y-12630431D01*
X10979038Y-12573289D01*
X10979038Y-12501860D01*
X10993324Y-12444717D01*
X11007610Y-12416146D01*
X11021896Y-12401860D01*
X11050467Y-12387574D01*
X11279038Y-12687574D02*
X11279038Y-12487574D01*
X11279038Y-12516146D02*
X11293324Y-12501860D01*
X11321896Y-12487574D01*
X11364753Y-12487574D01*
X11393324Y-12501860D01*
X11407610Y-12530431D01*
X11407610Y-12687574D01*
X11407610Y-12530431D02*
X11421896Y-12501860D01*
X11450467Y-12487574D01*
X11493324Y-12487574D01*
X11521896Y-12501860D01*
X11536181Y-12530431D01*
X11536181Y-12687574D01*
X11679038Y-12687574D02*
X11679038Y-12487574D01*
X11679038Y-12516146D02*
X11693324Y-12501860D01*
X11721896Y-12487574D01*
X11764753Y-12487574D01*
X11793324Y-12501860D01*
X11807610Y-12530431D01*
X11807610Y-12687574D01*
X11807610Y-12530431D02*
X11821896Y-12501860D01*
X11850467Y-12487574D01*
X11893324Y-12487574D01*
X11921896Y-12501860D01*
X11936181Y-12530431D01*
X11936181Y-12687574D01*
X12521896Y-12373289D02*
X12264753Y-12759003D01*
X12907610Y-12387574D02*
X12936181Y-12387574D01*
X12964753Y-12401860D01*
X12979038Y-12416146D01*
X12993324Y-12444717D01*
X13007610Y-12501860D01*
X13007610Y-12573289D01*
X12993324Y-12630431D01*
X12979038Y-12659003D01*
X12964753Y-12673289D01*
X12936181Y-12687574D01*
X12907610Y-12687574D01*
X12879038Y-12673289D01*
X12864753Y-12659003D01*
X12850467Y-12630431D01*
X12836181Y-12573289D01*
X12836181Y-12501860D01*
X12850467Y-12444717D01*
X12864753Y-12416146D01*
X12879038Y-12401860D01*
X12907610Y-12387574D01*
X13136181Y-12659003D02*
X13150467Y-12673289D01*
X13136181Y-12687574D01*
X13121896Y-12673289D01*
X13136181Y-12659003D01*
X13136181Y-12687574D01*
X13336181Y-12387574D02*
X13364753Y-12387574D01*
X13393324Y-12401860D01*
X13407610Y-12416146D01*
X13421896Y-12444717D01*
X13436181Y-12501860D01*
X13436181Y-12573289D01*
X13421896Y-12630431D01*
X13407610Y-12659003D01*
X13393324Y-12673289D01*
X13364753Y-12687574D01*
X13336181Y-12687574D01*
X13307610Y-12673289D01*
X13293324Y-12659003D01*
X13279038Y-12630431D01*
X13264753Y-12573289D01*
X13264753Y-12501860D01*
X13279038Y-12444717D01*
X13293324Y-12416146D01*
X13307610Y-12401860D01*
X13336181Y-12387574D01*
X13536181Y-12387574D02*
X13721896Y-12387574D01*
X13621896Y-12501860D01*
X13664753Y-12501860D01*
X13693324Y-12516146D01*
X13707610Y-12530431D01*
X13721896Y-12559003D01*
X13721896Y-12630431D01*
X13707610Y-12659003D01*
X13693324Y-12673289D01*
X13664753Y-12687574D01*
X13579038Y-12687574D01*
X13550467Y-12673289D01*
X13536181Y-12659003D01*
X13864753Y-12687574D02*
X13921896Y-12687574D01*
X13950467Y-12673289D01*
X13964753Y-12659003D01*
X13993324Y-12616146D01*
X14007610Y-12559003D01*
X14007610Y-12444717D01*
X13993324Y-12416146D01*
X13979038Y-12401860D01*
X13950467Y-12387574D01*
X13893324Y-12387574D01*
X13864753Y-12401860D01*
X13850467Y-12416146D01*
X13836181Y-12444717D01*
X13836181Y-12516146D01*
X13850467Y-12544717D01*
X13864753Y-12559003D01*
X13893324Y-12573289D01*
X13950467Y-12573289D01*
X13979038Y-12559003D01*
X13993324Y-12544717D01*
X14007610Y-12516146D01*
X14121896Y-12387574D02*
X14121896Y-12444717D01*
X14236181Y-12387574D02*
X14236181Y-12444717D01*
X14679038Y-12801860D02*
X14664753Y-12787574D01*
X14636181Y-12744717D01*
X14621896Y-12716146D01*
X14607610Y-12673289D01*
X14593324Y-12601860D01*
X14593324Y-12544717D01*
X14607610Y-12473289D01*
X14621896Y-12430431D01*
X14636181Y-12401860D01*
X14664753Y-12359003D01*
X14679038Y-12344717D01*
X14921896Y-12487574D02*
X14921896Y-12687574D01*
X14850467Y-12373289D02*
X14779038Y-12587574D01*
X14964753Y-12587574D01*
X15050467Y-12387574D02*
X15250467Y-12387574D01*
X15121896Y-12687574D01*
X15593324Y-12687574D02*
X15593324Y-12387574D01*
X15721896Y-12687574D02*
X15721896Y-12530431D01*
X15707610Y-12501860D01*
X15679038Y-12487574D01*
X15636181Y-12487574D01*
X15607610Y-12501860D01*
X15593324Y-12516146D01*
X15907610Y-12687574D02*
X15879038Y-12673289D01*
X15864753Y-12659003D01*
X15850467Y-12630431D01*
X15850467Y-12544717D01*
X15864753Y-12516146D01*
X15879038Y-12501860D01*
X15907610Y-12487574D01*
X15950467Y-12487574D01*
X15979038Y-12501860D01*
X15993324Y-12516146D01*
X16007610Y-12544717D01*
X16007610Y-12630431D01*
X15993324Y-12659003D01*
X15979038Y-12673289D01*
X15950467Y-12687574D01*
X15907610Y-12687574D01*
X16179038Y-12687574D02*
X16150467Y-12673289D01*
X16136181Y-12644717D01*
X16136181Y-12387574D01*
X16407610Y-12673289D02*
X16379038Y-12687574D01*
X16321896Y-12687574D01*
X16293324Y-12673289D01*
X16279038Y-12644717D01*
X16279038Y-12530431D01*
X16293324Y-12501860D01*
X16321896Y-12487574D01*
X16379038Y-12487574D01*
X16407610Y-12501860D01*
X16421896Y-12530431D01*
X16421896Y-12559003D01*
X16279038Y-12587574D01*
X16536181Y-12673289D02*
X16564753Y-12687574D01*
X16621896Y-12687574D01*
X16650467Y-12673289D01*
X16664753Y-12644717D01*
X16664753Y-12630431D01*
X16650467Y-12601860D01*
X16621896Y-12587574D01*
X16579038Y-12587574D01*
X16550467Y-12573289D01*
X16536181Y-12544717D01*
X16536181Y-12530431D01*
X16550467Y-12501860D01*
X16579038Y-12487574D01*
X16621896Y-12487574D01*
X16650467Y-12501860D01*
X16764753Y-12801860D02*
X16779038Y-12787574D01*
X16807610Y-12744717D01*
X16821896Y-12716146D01*
X16836181Y-12673289D01*
X16850467Y-12601860D01*
X16850467Y-12544717D01*
X16836181Y-12473289D01*
X16821896Y-12430431D01*
X16807610Y-12401860D01*
X16779038Y-12359003D01*
X16764753Y-12344717D01*
M02*
