M48
;DRILL file {KiCad (5.0.0)} date 11/19/18 10:01:09
;FORMAT={-:-/ absolute / metric / decimal}
FMAT,2
METRIC,TZ
T1C0.500
T2C0.600
T3C0.800
T4C0.900
T5C1.000
%
G90
G05
M71
T1
X112.193Y-71.048
X112.193Y-74.477
X112.32Y-55.173
X113.064Y-61.922
X113.078Y-60.628
X113.078Y-60.628
X113.844Y-67.365
X116.13Y-62.285
X117.654Y-74.477
X118.071Y-63.301
X118.289Y-73.207
X120.188Y-63.285
X120.391Y-65.46
X121.441Y-64.42
X121.591Y-56.57
X122.734Y-60.126
X124.131Y-55.173
X124.258Y-71.429
X125.147Y-75.62
X125.691Y-62.79
X126.163Y-56.189
X126.163Y-65.333
X126.29Y-79.938
X127.56Y-56.733
X128.068Y-59.998
X128.068Y-67.746
X128.139Y-58.62
X129.306Y-67.574
X129.343Y-70.158
X129.81Y-71.687
X130.862Y-70.794
X131.497Y-67.365
X131.751Y-71.937
X132.005Y-55.554
X132.386Y-68.254
X133.275Y-75.62
X134.418Y-57.967
X134.824Y-59.313
X134.868Y-64.79
X135.053Y-74.223
X135.18Y-79.684
X135.942Y-59.872
X136.425Y-64.861
X136.577Y-57.079
X137.973Y-56.479
X138.609Y-73.715
X140.467Y-80.889
X141.276Y-76.89
X142.038Y-74.223
X142.536Y-77.565
X145.213Y-73.207
X145.848Y-62.539
X145.975Y-67.365
X146.356Y-74.35
X147.59Y-55.176
X152.706Y-64.063
X153.191Y-62.468
X155.627Y-56.189
X156.389Y-94.543
X157.913Y-90.225
T2
X102.287Y-92.384
X106.605Y-67.111
X115.241Y-82.732
X116.511Y-56.824
X116.638Y-78.795
X120.321Y-86.796
X121.083Y-81.97
X121.083Y-83.367
X121.083Y-84.764
X122.441Y-65.582
X124.893Y-88.955
X129.465Y-77.507
X129.592Y-82.097
X129.592Y-83.494
X129.592Y-84.891
X130.481Y-86.923
X135.561Y-82.478
X137.933Y-66.313
X139.625Y-71.175
X142.165Y-58.221
X142.8Y-66.222
X142.8Y-71.683
X150.808Y-62.866
T3
X112.001Y-47.004
X114.001Y-47.004
X116.001Y-47.004
X118.001Y-47.004
X120.001Y-47.004
X122.001Y-47.004
X124.001Y-47.004
X126.001Y-47.004
X128.001Y-47.004
X130.001Y-47.004
X132.001Y-47.004
X134.001Y-47.004
X136.001Y-47.004
X138.001Y-47.004
X140.001Y-47.004
X142.001Y-47.004
X144.001Y-47.004
X146.001Y-47.004
X148.001Y-47.004
X150.001Y-47.004
T4
X154.905Y-62.412
X159.905Y-59.912
X159.905Y-64.912
T5
X150.801Y-78.287
X150.801Y-80.827
X150.801Y-83.367
X150.801Y-85.907
X148.261Y-68.254
X148.261Y-70.794
X148.261Y-73.334
X150.801Y-68.254
X150.801Y-70.794
X150.801Y-73.334
X110.161Y-82.224
X110.161Y-84.764
X110.161Y-87.304
X110.161Y-56.824
X110.161Y-59.364
X110.161Y-61.904
X110.161Y-64.444
X110.161Y-69.524
X110.161Y-72.064
X110.161Y-74.604
X110.161Y-77.144
X140.514Y-89.59
X143.054Y-89.59
X145.594Y-89.59
X148.134Y-89.59
X150.674Y-89.59
X153.214Y-89.59
X107.621Y-51.744
X110.161Y-51.744
X112.701Y-51.744
X115.241Y-51.744
X117.781Y-51.744
X120.321Y-51.744
X122.861Y-51.744
X125.401Y-51.744
X127.941Y-51.744
X130.481Y-51.744
X133.021Y-51.744
X135.561Y-51.744
X138.101Y-51.744
X140.641Y-51.744
X143.181Y-51.744
X145.721Y-51.744
X148.261Y-51.744
X150.801Y-51.744
X153.341Y-51.744
X155.881Y-51.744
T0
M30
