G04 #@! TF.GenerationSoftware,KiCad,Pcbnew,(5.0.0)*
G04 #@! TF.CreationDate,2018-11-19T10:00:08+01:00*
G04 #@! TF.ProjectId,GrafikDisplay_K0108_V2,47726166696B446973706C61795F4B30,rev?*
G04 #@! TF.SameCoordinates,Original*
G04 #@! TF.FileFunction,Soldermask,Top*
G04 #@! TF.FilePolarity,Negative*
%FSLAX46Y46*%
G04 Gerber Fmt 4.6, Leading zero omitted, Abs format (unit mm)*
G04 Created by KiCad (PCBNEW (5.0.0)) date 11/19/18 10:00:08*
%MOMM*%
%LPD*%
G01*
G04 APERTURE LIST*
%ADD10R,2.200000X2.500000*%
%ADD11C,0.100000*%
%ADD12C,1.275000*%
%ADD13O,2.100000X2.100000*%
%ADD14R,2.100000X2.100000*%
%ADD15C,0.500000*%
%ADD16R,1.900000X1.400000*%
%ADD17R,1.300000X1.200000*%
%ADD18R,1.400000X1.900000*%
%ADD19R,1.200000X2.400000*%
%ADD20C,4.400000*%
%ADD21O,1.750000X1.750000*%
%ADD22R,1.750000X1.750000*%
%ADD23C,2.400000*%
%ADD24C,2.020000*%
%ADD25C,1.650000*%
%ADD26R,0.950000X2.000000*%
%ADD27R,2.000000X0.950000*%
%ADD28R,6.200000X6.800000*%
%ADD29R,1.600000X2.600000*%
%ADD30R,2.000000X3.400000*%
%ADD31R,1.700000X2.100000*%
G04 APERTURE END LIST*
D10*
G04 #@! TO.C,Q1*
X138679500Y-64008700D03*
X138679500Y-61108700D03*
X140979500Y-61108700D03*
X140979500Y-64008700D03*
G04 #@! TD*
D11*
G04 #@! TO.C,C16*
G36*
X115489593Y-78121135D02*
X115520535Y-78125725D01*
X115550878Y-78133325D01*
X115580330Y-78143863D01*
X115608608Y-78157238D01*
X115635438Y-78173319D01*
X115660563Y-78191953D01*
X115683740Y-78212960D01*
X115704747Y-78236137D01*
X115723381Y-78261262D01*
X115739462Y-78288092D01*
X115752837Y-78316370D01*
X115763375Y-78345822D01*
X115770975Y-78376165D01*
X115775565Y-78407107D01*
X115777100Y-78438350D01*
X115777100Y-79150850D01*
X115775565Y-79182093D01*
X115770975Y-79213035D01*
X115763375Y-79243378D01*
X115752837Y-79272830D01*
X115739462Y-79301108D01*
X115723381Y-79327938D01*
X115704747Y-79353063D01*
X115683740Y-79376240D01*
X115660563Y-79397247D01*
X115635438Y-79415881D01*
X115608608Y-79431962D01*
X115580330Y-79445337D01*
X115550878Y-79455875D01*
X115520535Y-79463475D01*
X115489593Y-79468065D01*
X115458350Y-79469600D01*
X114820850Y-79469600D01*
X114789607Y-79468065D01*
X114758665Y-79463475D01*
X114728322Y-79455875D01*
X114698870Y-79445337D01*
X114670592Y-79431962D01*
X114643762Y-79415881D01*
X114618637Y-79397247D01*
X114595460Y-79376240D01*
X114574453Y-79353063D01*
X114555819Y-79327938D01*
X114539738Y-79301108D01*
X114526363Y-79272830D01*
X114515825Y-79243378D01*
X114508225Y-79213035D01*
X114503635Y-79182093D01*
X114502100Y-79150850D01*
X114502100Y-78438350D01*
X114503635Y-78407107D01*
X114508225Y-78376165D01*
X114515825Y-78345822D01*
X114526363Y-78316370D01*
X114539738Y-78288092D01*
X114555819Y-78261262D01*
X114574453Y-78236137D01*
X114595460Y-78212960D01*
X114618637Y-78191953D01*
X114643762Y-78173319D01*
X114670592Y-78157238D01*
X114698870Y-78143863D01*
X114728322Y-78133325D01*
X114758665Y-78125725D01*
X114789607Y-78121135D01*
X114820850Y-78119600D01*
X115458350Y-78119600D01*
X115489593Y-78121135D01*
X115489593Y-78121135D01*
G37*
D12*
X115139600Y-78794600D03*
D11*
G36*
X113914593Y-78121135D02*
X113945535Y-78125725D01*
X113975878Y-78133325D01*
X114005330Y-78143863D01*
X114033608Y-78157238D01*
X114060438Y-78173319D01*
X114085563Y-78191953D01*
X114108740Y-78212960D01*
X114129747Y-78236137D01*
X114148381Y-78261262D01*
X114164462Y-78288092D01*
X114177837Y-78316370D01*
X114188375Y-78345822D01*
X114195975Y-78376165D01*
X114200565Y-78407107D01*
X114202100Y-78438350D01*
X114202100Y-79150850D01*
X114200565Y-79182093D01*
X114195975Y-79213035D01*
X114188375Y-79243378D01*
X114177837Y-79272830D01*
X114164462Y-79301108D01*
X114148381Y-79327938D01*
X114129747Y-79353063D01*
X114108740Y-79376240D01*
X114085563Y-79397247D01*
X114060438Y-79415881D01*
X114033608Y-79431962D01*
X114005330Y-79445337D01*
X113975878Y-79455875D01*
X113945535Y-79463475D01*
X113914593Y-79468065D01*
X113883350Y-79469600D01*
X113245850Y-79469600D01*
X113214607Y-79468065D01*
X113183665Y-79463475D01*
X113153322Y-79455875D01*
X113123870Y-79445337D01*
X113095592Y-79431962D01*
X113068762Y-79415881D01*
X113043637Y-79397247D01*
X113020460Y-79376240D01*
X112999453Y-79353063D01*
X112980819Y-79327938D01*
X112964738Y-79301108D01*
X112951363Y-79272830D01*
X112940825Y-79243378D01*
X112933225Y-79213035D01*
X112928635Y-79182093D01*
X112927100Y-79150850D01*
X112927100Y-78438350D01*
X112928635Y-78407107D01*
X112933225Y-78376165D01*
X112940825Y-78345822D01*
X112951363Y-78316370D01*
X112964738Y-78288092D01*
X112980819Y-78261262D01*
X112999453Y-78236137D01*
X113020460Y-78212960D01*
X113043637Y-78191953D01*
X113068762Y-78173319D01*
X113095592Y-78157238D01*
X113123870Y-78143863D01*
X113153322Y-78133325D01*
X113183665Y-78125725D01*
X113214607Y-78121135D01*
X113245850Y-78119600D01*
X113883350Y-78119600D01*
X113914593Y-78121135D01*
X113914593Y-78121135D01*
G37*
D12*
X113564600Y-78794600D03*
G04 #@! TD*
D13*
G04 #@! TO.C,X6*
X150801100Y-85906600D03*
X150801100Y-83366600D03*
X150801100Y-80826600D03*
D14*
X150801100Y-78286600D03*
G04 #@! TD*
D11*
G04 #@! TO.C,R13*
G36*
X146235593Y-84661135D02*
X146266535Y-84665725D01*
X146296878Y-84673325D01*
X146326330Y-84683863D01*
X146354608Y-84697238D01*
X146381438Y-84713319D01*
X146406563Y-84731953D01*
X146429740Y-84752960D01*
X146450747Y-84776137D01*
X146469381Y-84801262D01*
X146485462Y-84828092D01*
X146498837Y-84856370D01*
X146509375Y-84885822D01*
X146516975Y-84916165D01*
X146521565Y-84947107D01*
X146523100Y-84978350D01*
X146523100Y-85615850D01*
X146521565Y-85647093D01*
X146516975Y-85678035D01*
X146509375Y-85708378D01*
X146498837Y-85737830D01*
X146485462Y-85766108D01*
X146469381Y-85792938D01*
X146450747Y-85818063D01*
X146429740Y-85841240D01*
X146406563Y-85862247D01*
X146381438Y-85880881D01*
X146354608Y-85896962D01*
X146326330Y-85910337D01*
X146296878Y-85920875D01*
X146266535Y-85928475D01*
X146235593Y-85933065D01*
X146204350Y-85934600D01*
X145491850Y-85934600D01*
X145460607Y-85933065D01*
X145429665Y-85928475D01*
X145399322Y-85920875D01*
X145369870Y-85910337D01*
X145341592Y-85896962D01*
X145314762Y-85880881D01*
X145289637Y-85862247D01*
X145266460Y-85841240D01*
X145245453Y-85818063D01*
X145226819Y-85792938D01*
X145210738Y-85766108D01*
X145197363Y-85737830D01*
X145186825Y-85708378D01*
X145179225Y-85678035D01*
X145174635Y-85647093D01*
X145173100Y-85615850D01*
X145173100Y-84978350D01*
X145174635Y-84947107D01*
X145179225Y-84916165D01*
X145186825Y-84885822D01*
X145197363Y-84856370D01*
X145210738Y-84828092D01*
X145226819Y-84801262D01*
X145245453Y-84776137D01*
X145266460Y-84752960D01*
X145289637Y-84731953D01*
X145314762Y-84713319D01*
X145341592Y-84697238D01*
X145369870Y-84683863D01*
X145399322Y-84673325D01*
X145429665Y-84665725D01*
X145460607Y-84661135D01*
X145491850Y-84659600D01*
X146204350Y-84659600D01*
X146235593Y-84661135D01*
X146235593Y-84661135D01*
G37*
D12*
X145848100Y-85297100D03*
D11*
G36*
X146235593Y-83086135D02*
X146266535Y-83090725D01*
X146296878Y-83098325D01*
X146326330Y-83108863D01*
X146354608Y-83122238D01*
X146381438Y-83138319D01*
X146406563Y-83156953D01*
X146429740Y-83177960D01*
X146450747Y-83201137D01*
X146469381Y-83226262D01*
X146485462Y-83253092D01*
X146498837Y-83281370D01*
X146509375Y-83310822D01*
X146516975Y-83341165D01*
X146521565Y-83372107D01*
X146523100Y-83403350D01*
X146523100Y-84040850D01*
X146521565Y-84072093D01*
X146516975Y-84103035D01*
X146509375Y-84133378D01*
X146498837Y-84162830D01*
X146485462Y-84191108D01*
X146469381Y-84217938D01*
X146450747Y-84243063D01*
X146429740Y-84266240D01*
X146406563Y-84287247D01*
X146381438Y-84305881D01*
X146354608Y-84321962D01*
X146326330Y-84335337D01*
X146296878Y-84345875D01*
X146266535Y-84353475D01*
X146235593Y-84358065D01*
X146204350Y-84359600D01*
X145491850Y-84359600D01*
X145460607Y-84358065D01*
X145429665Y-84353475D01*
X145399322Y-84345875D01*
X145369870Y-84335337D01*
X145341592Y-84321962D01*
X145314762Y-84305881D01*
X145289637Y-84287247D01*
X145266460Y-84266240D01*
X145245453Y-84243063D01*
X145226819Y-84217938D01*
X145210738Y-84191108D01*
X145197363Y-84162830D01*
X145186825Y-84133378D01*
X145179225Y-84103035D01*
X145174635Y-84072093D01*
X145173100Y-84040850D01*
X145173100Y-83403350D01*
X145174635Y-83372107D01*
X145179225Y-83341165D01*
X145186825Y-83310822D01*
X145197363Y-83281370D01*
X145210738Y-83253092D01*
X145226819Y-83226262D01*
X145245453Y-83201137D01*
X145266460Y-83177960D01*
X145289637Y-83156953D01*
X145314762Y-83138319D01*
X145341592Y-83122238D01*
X145369870Y-83108863D01*
X145399322Y-83098325D01*
X145429665Y-83090725D01*
X145460607Y-83086135D01*
X145491850Y-83084600D01*
X146204350Y-83084600D01*
X146235593Y-83086135D01*
X146235593Y-83086135D01*
G37*
D12*
X145848100Y-83722100D03*
G04 #@! TD*
D11*
G04 #@! TO.C,R14*
G36*
X148013593Y-84661135D02*
X148044535Y-84665725D01*
X148074878Y-84673325D01*
X148104330Y-84683863D01*
X148132608Y-84697238D01*
X148159438Y-84713319D01*
X148184563Y-84731953D01*
X148207740Y-84752960D01*
X148228747Y-84776137D01*
X148247381Y-84801262D01*
X148263462Y-84828092D01*
X148276837Y-84856370D01*
X148287375Y-84885822D01*
X148294975Y-84916165D01*
X148299565Y-84947107D01*
X148301100Y-84978350D01*
X148301100Y-85615850D01*
X148299565Y-85647093D01*
X148294975Y-85678035D01*
X148287375Y-85708378D01*
X148276837Y-85737830D01*
X148263462Y-85766108D01*
X148247381Y-85792938D01*
X148228747Y-85818063D01*
X148207740Y-85841240D01*
X148184563Y-85862247D01*
X148159438Y-85880881D01*
X148132608Y-85896962D01*
X148104330Y-85910337D01*
X148074878Y-85920875D01*
X148044535Y-85928475D01*
X148013593Y-85933065D01*
X147982350Y-85934600D01*
X147269850Y-85934600D01*
X147238607Y-85933065D01*
X147207665Y-85928475D01*
X147177322Y-85920875D01*
X147147870Y-85910337D01*
X147119592Y-85896962D01*
X147092762Y-85880881D01*
X147067637Y-85862247D01*
X147044460Y-85841240D01*
X147023453Y-85818063D01*
X147004819Y-85792938D01*
X146988738Y-85766108D01*
X146975363Y-85737830D01*
X146964825Y-85708378D01*
X146957225Y-85678035D01*
X146952635Y-85647093D01*
X146951100Y-85615850D01*
X146951100Y-84978350D01*
X146952635Y-84947107D01*
X146957225Y-84916165D01*
X146964825Y-84885822D01*
X146975363Y-84856370D01*
X146988738Y-84828092D01*
X147004819Y-84801262D01*
X147023453Y-84776137D01*
X147044460Y-84752960D01*
X147067637Y-84731953D01*
X147092762Y-84713319D01*
X147119592Y-84697238D01*
X147147870Y-84683863D01*
X147177322Y-84673325D01*
X147207665Y-84665725D01*
X147238607Y-84661135D01*
X147269850Y-84659600D01*
X147982350Y-84659600D01*
X148013593Y-84661135D01*
X148013593Y-84661135D01*
G37*
D12*
X147626100Y-85297100D03*
D11*
G36*
X148013593Y-83086135D02*
X148044535Y-83090725D01*
X148074878Y-83098325D01*
X148104330Y-83108863D01*
X148132608Y-83122238D01*
X148159438Y-83138319D01*
X148184563Y-83156953D01*
X148207740Y-83177960D01*
X148228747Y-83201137D01*
X148247381Y-83226262D01*
X148263462Y-83253092D01*
X148276837Y-83281370D01*
X148287375Y-83310822D01*
X148294975Y-83341165D01*
X148299565Y-83372107D01*
X148301100Y-83403350D01*
X148301100Y-84040850D01*
X148299565Y-84072093D01*
X148294975Y-84103035D01*
X148287375Y-84133378D01*
X148276837Y-84162830D01*
X148263462Y-84191108D01*
X148247381Y-84217938D01*
X148228747Y-84243063D01*
X148207740Y-84266240D01*
X148184563Y-84287247D01*
X148159438Y-84305881D01*
X148132608Y-84321962D01*
X148104330Y-84335337D01*
X148074878Y-84345875D01*
X148044535Y-84353475D01*
X148013593Y-84358065D01*
X147982350Y-84359600D01*
X147269850Y-84359600D01*
X147238607Y-84358065D01*
X147207665Y-84353475D01*
X147177322Y-84345875D01*
X147147870Y-84335337D01*
X147119592Y-84321962D01*
X147092762Y-84305881D01*
X147067637Y-84287247D01*
X147044460Y-84266240D01*
X147023453Y-84243063D01*
X147004819Y-84217938D01*
X146988738Y-84191108D01*
X146975363Y-84162830D01*
X146964825Y-84133378D01*
X146957225Y-84103035D01*
X146952635Y-84072093D01*
X146951100Y-84040850D01*
X146951100Y-83403350D01*
X146952635Y-83372107D01*
X146957225Y-83341165D01*
X146964825Y-83310822D01*
X146975363Y-83281370D01*
X146988738Y-83253092D01*
X147004819Y-83226262D01*
X147023453Y-83201137D01*
X147044460Y-83177960D01*
X147067637Y-83156953D01*
X147092762Y-83138319D01*
X147119592Y-83122238D01*
X147147870Y-83108863D01*
X147177322Y-83098325D01*
X147207665Y-83090725D01*
X147238607Y-83086135D01*
X147269850Y-83084600D01*
X147982350Y-83084600D01*
X148013593Y-83086135D01*
X148013593Y-83086135D01*
G37*
D12*
X147626100Y-83722100D03*
G04 #@! TD*
D11*
G04 #@! TO.C,R15*
G36*
X148267593Y-77549135D02*
X148298535Y-77553725D01*
X148328878Y-77561325D01*
X148358330Y-77571863D01*
X148386608Y-77585238D01*
X148413438Y-77601319D01*
X148438563Y-77619953D01*
X148461740Y-77640960D01*
X148482747Y-77664137D01*
X148501381Y-77689262D01*
X148517462Y-77716092D01*
X148530837Y-77744370D01*
X148541375Y-77773822D01*
X148548975Y-77804165D01*
X148553565Y-77835107D01*
X148555100Y-77866350D01*
X148555100Y-78503850D01*
X148553565Y-78535093D01*
X148548975Y-78566035D01*
X148541375Y-78596378D01*
X148530837Y-78625830D01*
X148517462Y-78654108D01*
X148501381Y-78680938D01*
X148482747Y-78706063D01*
X148461740Y-78729240D01*
X148438563Y-78750247D01*
X148413438Y-78768881D01*
X148386608Y-78784962D01*
X148358330Y-78798337D01*
X148328878Y-78808875D01*
X148298535Y-78816475D01*
X148267593Y-78821065D01*
X148236350Y-78822600D01*
X147523850Y-78822600D01*
X147492607Y-78821065D01*
X147461665Y-78816475D01*
X147431322Y-78808875D01*
X147401870Y-78798337D01*
X147373592Y-78784962D01*
X147346762Y-78768881D01*
X147321637Y-78750247D01*
X147298460Y-78729240D01*
X147277453Y-78706063D01*
X147258819Y-78680938D01*
X147242738Y-78654108D01*
X147229363Y-78625830D01*
X147218825Y-78596378D01*
X147211225Y-78566035D01*
X147206635Y-78535093D01*
X147205100Y-78503850D01*
X147205100Y-77866350D01*
X147206635Y-77835107D01*
X147211225Y-77804165D01*
X147218825Y-77773822D01*
X147229363Y-77744370D01*
X147242738Y-77716092D01*
X147258819Y-77689262D01*
X147277453Y-77664137D01*
X147298460Y-77640960D01*
X147321637Y-77619953D01*
X147346762Y-77601319D01*
X147373592Y-77585238D01*
X147401870Y-77571863D01*
X147431322Y-77561325D01*
X147461665Y-77553725D01*
X147492607Y-77549135D01*
X147523850Y-77547600D01*
X148236350Y-77547600D01*
X148267593Y-77549135D01*
X148267593Y-77549135D01*
G37*
D12*
X147880100Y-78185100D03*
D11*
G36*
X148267593Y-75974135D02*
X148298535Y-75978725D01*
X148328878Y-75986325D01*
X148358330Y-75996863D01*
X148386608Y-76010238D01*
X148413438Y-76026319D01*
X148438563Y-76044953D01*
X148461740Y-76065960D01*
X148482747Y-76089137D01*
X148501381Y-76114262D01*
X148517462Y-76141092D01*
X148530837Y-76169370D01*
X148541375Y-76198822D01*
X148548975Y-76229165D01*
X148553565Y-76260107D01*
X148555100Y-76291350D01*
X148555100Y-76928850D01*
X148553565Y-76960093D01*
X148548975Y-76991035D01*
X148541375Y-77021378D01*
X148530837Y-77050830D01*
X148517462Y-77079108D01*
X148501381Y-77105938D01*
X148482747Y-77131063D01*
X148461740Y-77154240D01*
X148438563Y-77175247D01*
X148413438Y-77193881D01*
X148386608Y-77209962D01*
X148358330Y-77223337D01*
X148328878Y-77233875D01*
X148298535Y-77241475D01*
X148267593Y-77246065D01*
X148236350Y-77247600D01*
X147523850Y-77247600D01*
X147492607Y-77246065D01*
X147461665Y-77241475D01*
X147431322Y-77233875D01*
X147401870Y-77223337D01*
X147373592Y-77209962D01*
X147346762Y-77193881D01*
X147321637Y-77175247D01*
X147298460Y-77154240D01*
X147277453Y-77131063D01*
X147258819Y-77105938D01*
X147242738Y-77079108D01*
X147229363Y-77050830D01*
X147218825Y-77021378D01*
X147211225Y-76991035D01*
X147206635Y-76960093D01*
X147205100Y-76928850D01*
X147205100Y-76291350D01*
X147206635Y-76260107D01*
X147211225Y-76229165D01*
X147218825Y-76198822D01*
X147229363Y-76169370D01*
X147242738Y-76141092D01*
X147258819Y-76114262D01*
X147277453Y-76089137D01*
X147298460Y-76065960D01*
X147321637Y-76044953D01*
X147346762Y-76026319D01*
X147373592Y-76010238D01*
X147401870Y-75996863D01*
X147431322Y-75986325D01*
X147461665Y-75978725D01*
X147492607Y-75974135D01*
X147523850Y-75972600D01*
X148236350Y-75972600D01*
X148267593Y-75974135D01*
X148267593Y-75974135D01*
G37*
D12*
X147880100Y-76610100D03*
G04 #@! TD*
D13*
G04 #@! TO.C,X2*
X150801100Y-73333600D03*
X148261100Y-73333600D03*
X150801100Y-70793600D03*
X148261100Y-70793600D03*
X150801100Y-68253600D03*
D14*
X148261100Y-68253600D03*
G04 #@! TD*
D15*
G04 #@! TO.C,JP6*
X113067100Y-69142600D03*
D11*
G36*
X113060988Y-70091998D02*
X113042566Y-70091998D01*
X113022960Y-70091035D01*
X112974129Y-70086225D01*
X112954720Y-70083346D01*
X112906595Y-70073774D01*
X112887552Y-70069004D01*
X112840597Y-70054760D01*
X112822120Y-70048149D01*
X112776787Y-70029372D01*
X112759039Y-70020977D01*
X112715766Y-69997846D01*
X112698938Y-69987760D01*
X112658139Y-69960500D01*
X112642370Y-69948805D01*
X112604441Y-69917677D01*
X112589900Y-69904497D01*
X112555203Y-69869800D01*
X112542023Y-69855259D01*
X112510895Y-69817330D01*
X112499200Y-69801561D01*
X112471940Y-69760762D01*
X112461854Y-69743934D01*
X112438723Y-69700661D01*
X112430328Y-69682913D01*
X112411551Y-69637580D01*
X112404940Y-69619103D01*
X112390696Y-69572148D01*
X112385926Y-69553105D01*
X112376354Y-69504980D01*
X112373475Y-69485571D01*
X112368665Y-69436740D01*
X112367702Y-69417134D01*
X112367702Y-69398712D01*
X112367100Y-69392600D01*
X112367100Y-68892600D01*
X112367702Y-68886488D01*
X112367702Y-68868066D01*
X112368665Y-68848460D01*
X112373475Y-68799629D01*
X112376354Y-68780220D01*
X112385926Y-68732095D01*
X112390696Y-68713052D01*
X112404940Y-68666097D01*
X112411551Y-68647620D01*
X112430328Y-68602287D01*
X112438723Y-68584539D01*
X112461854Y-68541266D01*
X112471940Y-68524438D01*
X112499200Y-68483639D01*
X112510895Y-68467870D01*
X112542023Y-68429941D01*
X112555203Y-68415400D01*
X112589900Y-68380703D01*
X112604441Y-68367523D01*
X112642370Y-68336395D01*
X112658139Y-68324700D01*
X112698938Y-68297440D01*
X112715766Y-68287354D01*
X112759039Y-68264223D01*
X112776787Y-68255828D01*
X112822120Y-68237051D01*
X112840597Y-68230440D01*
X112887552Y-68216196D01*
X112906595Y-68211426D01*
X112954720Y-68201854D01*
X112974129Y-68198975D01*
X113022960Y-68194165D01*
X113042566Y-68193202D01*
X113060988Y-68193202D01*
X113067100Y-68192600D01*
X113567100Y-68192600D01*
X113606118Y-68196443D01*
X113643637Y-68207824D01*
X113678214Y-68226306D01*
X113708521Y-68251179D01*
X113733394Y-68281486D01*
X113751876Y-68316063D01*
X113763257Y-68353582D01*
X113767100Y-68392600D01*
X113767100Y-69892600D01*
X113763257Y-69931618D01*
X113751876Y-69969137D01*
X113733394Y-70003714D01*
X113708521Y-70034021D01*
X113678214Y-70058894D01*
X113643637Y-70077376D01*
X113606118Y-70088757D01*
X113567100Y-70092600D01*
X113067100Y-70092600D01*
X113060988Y-70091998D01*
X113060988Y-70091998D01*
G37*
D15*
X114367100Y-69142600D03*
D11*
G36*
X113828082Y-70088757D02*
X113790563Y-70077376D01*
X113755986Y-70058894D01*
X113725679Y-70034021D01*
X113700806Y-70003714D01*
X113682324Y-69969137D01*
X113670943Y-69931618D01*
X113667100Y-69892600D01*
X113667100Y-68392600D01*
X113670943Y-68353582D01*
X113682324Y-68316063D01*
X113700806Y-68281486D01*
X113725679Y-68251179D01*
X113755986Y-68226306D01*
X113790563Y-68207824D01*
X113828082Y-68196443D01*
X113867100Y-68192600D01*
X114367100Y-68192600D01*
X114373212Y-68193202D01*
X114391634Y-68193202D01*
X114411240Y-68194165D01*
X114460071Y-68198975D01*
X114479480Y-68201854D01*
X114527605Y-68211426D01*
X114546648Y-68216196D01*
X114593603Y-68230440D01*
X114612080Y-68237051D01*
X114657413Y-68255828D01*
X114675161Y-68264223D01*
X114718434Y-68287354D01*
X114735262Y-68297440D01*
X114776061Y-68324700D01*
X114791830Y-68336395D01*
X114829759Y-68367523D01*
X114844300Y-68380703D01*
X114878997Y-68415400D01*
X114892177Y-68429941D01*
X114923305Y-68467870D01*
X114935000Y-68483639D01*
X114962260Y-68524438D01*
X114972346Y-68541266D01*
X114995477Y-68584539D01*
X115003872Y-68602287D01*
X115022649Y-68647620D01*
X115029260Y-68666097D01*
X115043504Y-68713052D01*
X115048274Y-68732095D01*
X115057846Y-68780220D01*
X115060725Y-68799629D01*
X115065535Y-68848460D01*
X115066498Y-68868066D01*
X115066498Y-68886488D01*
X115067100Y-68892600D01*
X115067100Y-69392600D01*
X115066498Y-69398712D01*
X115066498Y-69417134D01*
X115065535Y-69436740D01*
X115060725Y-69485571D01*
X115057846Y-69504980D01*
X115048274Y-69553105D01*
X115043504Y-69572148D01*
X115029260Y-69619103D01*
X115022649Y-69637580D01*
X115003872Y-69682913D01*
X114995477Y-69700661D01*
X114972346Y-69743934D01*
X114962260Y-69760762D01*
X114935000Y-69801561D01*
X114923305Y-69817330D01*
X114892177Y-69855259D01*
X114878997Y-69869800D01*
X114844300Y-69904497D01*
X114829759Y-69917677D01*
X114791830Y-69948805D01*
X114776061Y-69960500D01*
X114735262Y-69987760D01*
X114718434Y-69997846D01*
X114675161Y-70020977D01*
X114657413Y-70029372D01*
X114612080Y-70048149D01*
X114593603Y-70054760D01*
X114546648Y-70069004D01*
X114527605Y-70073774D01*
X114479480Y-70083346D01*
X114460071Y-70086225D01*
X114411240Y-70091035D01*
X114391634Y-70091998D01*
X114373212Y-70091998D01*
X114367100Y-70092600D01*
X113867100Y-70092600D01*
X113828082Y-70088757D01*
X113828082Y-70088757D01*
G37*
G04 #@! TD*
G04 #@! TO.C,R11*
G36*
X113596593Y-63020135D02*
X113627535Y-63024725D01*
X113657878Y-63032325D01*
X113687330Y-63042863D01*
X113715608Y-63056238D01*
X113742438Y-63072319D01*
X113767563Y-63090953D01*
X113790740Y-63111960D01*
X113811747Y-63135137D01*
X113830381Y-63160262D01*
X113846462Y-63187092D01*
X113859837Y-63215370D01*
X113870375Y-63244822D01*
X113877975Y-63275165D01*
X113882565Y-63306107D01*
X113884100Y-63337350D01*
X113884100Y-63974850D01*
X113882565Y-64006093D01*
X113877975Y-64037035D01*
X113870375Y-64067378D01*
X113859837Y-64096830D01*
X113846462Y-64125108D01*
X113830381Y-64151938D01*
X113811747Y-64177063D01*
X113790740Y-64200240D01*
X113767563Y-64221247D01*
X113742438Y-64239881D01*
X113715608Y-64255962D01*
X113687330Y-64269337D01*
X113657878Y-64279875D01*
X113627535Y-64287475D01*
X113596593Y-64292065D01*
X113565350Y-64293600D01*
X112852850Y-64293600D01*
X112821607Y-64292065D01*
X112790665Y-64287475D01*
X112760322Y-64279875D01*
X112730870Y-64269337D01*
X112702592Y-64255962D01*
X112675762Y-64239881D01*
X112650637Y-64221247D01*
X112627460Y-64200240D01*
X112606453Y-64177063D01*
X112587819Y-64151938D01*
X112571738Y-64125108D01*
X112558363Y-64096830D01*
X112547825Y-64067378D01*
X112540225Y-64037035D01*
X112535635Y-64006093D01*
X112534100Y-63974850D01*
X112534100Y-63337350D01*
X112535635Y-63306107D01*
X112540225Y-63275165D01*
X112547825Y-63244822D01*
X112558363Y-63215370D01*
X112571738Y-63187092D01*
X112587819Y-63160262D01*
X112606453Y-63135137D01*
X112627460Y-63111960D01*
X112650637Y-63090953D01*
X112675762Y-63072319D01*
X112702592Y-63056238D01*
X112730870Y-63042863D01*
X112760322Y-63032325D01*
X112790665Y-63024725D01*
X112821607Y-63020135D01*
X112852850Y-63018600D01*
X113565350Y-63018600D01*
X113596593Y-63020135D01*
X113596593Y-63020135D01*
G37*
D12*
X113209100Y-63656100D03*
D11*
G36*
X113596593Y-64595135D02*
X113627535Y-64599725D01*
X113657878Y-64607325D01*
X113687330Y-64617863D01*
X113715608Y-64631238D01*
X113742438Y-64647319D01*
X113767563Y-64665953D01*
X113790740Y-64686960D01*
X113811747Y-64710137D01*
X113830381Y-64735262D01*
X113846462Y-64762092D01*
X113859837Y-64790370D01*
X113870375Y-64819822D01*
X113877975Y-64850165D01*
X113882565Y-64881107D01*
X113884100Y-64912350D01*
X113884100Y-65549850D01*
X113882565Y-65581093D01*
X113877975Y-65612035D01*
X113870375Y-65642378D01*
X113859837Y-65671830D01*
X113846462Y-65700108D01*
X113830381Y-65726938D01*
X113811747Y-65752063D01*
X113790740Y-65775240D01*
X113767563Y-65796247D01*
X113742438Y-65814881D01*
X113715608Y-65830962D01*
X113687330Y-65844337D01*
X113657878Y-65854875D01*
X113627535Y-65862475D01*
X113596593Y-65867065D01*
X113565350Y-65868600D01*
X112852850Y-65868600D01*
X112821607Y-65867065D01*
X112790665Y-65862475D01*
X112760322Y-65854875D01*
X112730870Y-65844337D01*
X112702592Y-65830962D01*
X112675762Y-65814881D01*
X112650637Y-65796247D01*
X112627460Y-65775240D01*
X112606453Y-65752063D01*
X112587819Y-65726938D01*
X112571738Y-65700108D01*
X112558363Y-65671830D01*
X112547825Y-65642378D01*
X112540225Y-65612035D01*
X112535635Y-65581093D01*
X112534100Y-65549850D01*
X112534100Y-64912350D01*
X112535635Y-64881107D01*
X112540225Y-64850165D01*
X112547825Y-64819822D01*
X112558363Y-64790370D01*
X112571738Y-64762092D01*
X112587819Y-64735262D01*
X112606453Y-64710137D01*
X112627460Y-64686960D01*
X112650637Y-64665953D01*
X112675762Y-64647319D01*
X112702592Y-64631238D01*
X112730870Y-64617863D01*
X112760322Y-64607325D01*
X112790665Y-64599725D01*
X112821607Y-64595135D01*
X112852850Y-64593600D01*
X113565350Y-64593600D01*
X113596593Y-64595135D01*
X113596593Y-64595135D01*
G37*
D12*
X113209100Y-65231100D03*
G04 #@! TD*
D11*
G04 #@! TO.C,R12*
G36*
X115247593Y-63020135D02*
X115278535Y-63024725D01*
X115308878Y-63032325D01*
X115338330Y-63042863D01*
X115366608Y-63056238D01*
X115393438Y-63072319D01*
X115418563Y-63090953D01*
X115441740Y-63111960D01*
X115462747Y-63135137D01*
X115481381Y-63160262D01*
X115497462Y-63187092D01*
X115510837Y-63215370D01*
X115521375Y-63244822D01*
X115528975Y-63275165D01*
X115533565Y-63306107D01*
X115535100Y-63337350D01*
X115535100Y-63974850D01*
X115533565Y-64006093D01*
X115528975Y-64037035D01*
X115521375Y-64067378D01*
X115510837Y-64096830D01*
X115497462Y-64125108D01*
X115481381Y-64151938D01*
X115462747Y-64177063D01*
X115441740Y-64200240D01*
X115418563Y-64221247D01*
X115393438Y-64239881D01*
X115366608Y-64255962D01*
X115338330Y-64269337D01*
X115308878Y-64279875D01*
X115278535Y-64287475D01*
X115247593Y-64292065D01*
X115216350Y-64293600D01*
X114503850Y-64293600D01*
X114472607Y-64292065D01*
X114441665Y-64287475D01*
X114411322Y-64279875D01*
X114381870Y-64269337D01*
X114353592Y-64255962D01*
X114326762Y-64239881D01*
X114301637Y-64221247D01*
X114278460Y-64200240D01*
X114257453Y-64177063D01*
X114238819Y-64151938D01*
X114222738Y-64125108D01*
X114209363Y-64096830D01*
X114198825Y-64067378D01*
X114191225Y-64037035D01*
X114186635Y-64006093D01*
X114185100Y-63974850D01*
X114185100Y-63337350D01*
X114186635Y-63306107D01*
X114191225Y-63275165D01*
X114198825Y-63244822D01*
X114209363Y-63215370D01*
X114222738Y-63187092D01*
X114238819Y-63160262D01*
X114257453Y-63135137D01*
X114278460Y-63111960D01*
X114301637Y-63090953D01*
X114326762Y-63072319D01*
X114353592Y-63056238D01*
X114381870Y-63042863D01*
X114411322Y-63032325D01*
X114441665Y-63024725D01*
X114472607Y-63020135D01*
X114503850Y-63018600D01*
X115216350Y-63018600D01*
X115247593Y-63020135D01*
X115247593Y-63020135D01*
G37*
D12*
X114860100Y-63656100D03*
D11*
G36*
X115247593Y-64595135D02*
X115278535Y-64599725D01*
X115308878Y-64607325D01*
X115338330Y-64617863D01*
X115366608Y-64631238D01*
X115393438Y-64647319D01*
X115418563Y-64665953D01*
X115441740Y-64686960D01*
X115462747Y-64710137D01*
X115481381Y-64735262D01*
X115497462Y-64762092D01*
X115510837Y-64790370D01*
X115521375Y-64819822D01*
X115528975Y-64850165D01*
X115533565Y-64881107D01*
X115535100Y-64912350D01*
X115535100Y-65549850D01*
X115533565Y-65581093D01*
X115528975Y-65612035D01*
X115521375Y-65642378D01*
X115510837Y-65671830D01*
X115497462Y-65700108D01*
X115481381Y-65726938D01*
X115462747Y-65752063D01*
X115441740Y-65775240D01*
X115418563Y-65796247D01*
X115393438Y-65814881D01*
X115366608Y-65830962D01*
X115338330Y-65844337D01*
X115308878Y-65854875D01*
X115278535Y-65862475D01*
X115247593Y-65867065D01*
X115216350Y-65868600D01*
X114503850Y-65868600D01*
X114472607Y-65867065D01*
X114441665Y-65862475D01*
X114411322Y-65854875D01*
X114381870Y-65844337D01*
X114353592Y-65830962D01*
X114326762Y-65814881D01*
X114301637Y-65796247D01*
X114278460Y-65775240D01*
X114257453Y-65752063D01*
X114238819Y-65726938D01*
X114222738Y-65700108D01*
X114209363Y-65671830D01*
X114198825Y-65642378D01*
X114191225Y-65612035D01*
X114186635Y-65581093D01*
X114185100Y-65549850D01*
X114185100Y-64912350D01*
X114186635Y-64881107D01*
X114191225Y-64850165D01*
X114198825Y-64819822D01*
X114209363Y-64790370D01*
X114222738Y-64762092D01*
X114238819Y-64735262D01*
X114257453Y-64710137D01*
X114278460Y-64686960D01*
X114301637Y-64665953D01*
X114326762Y-64647319D01*
X114353592Y-64631238D01*
X114381870Y-64617863D01*
X114411322Y-64607325D01*
X114441665Y-64599725D01*
X114472607Y-64595135D01*
X114503850Y-64593600D01*
X115216350Y-64593600D01*
X115247593Y-64595135D01*
X115247593Y-64595135D01*
G37*
D12*
X114860100Y-65231100D03*
G04 #@! TD*
D11*
G04 #@! TO.C,R9*
G36*
X113977593Y-76279135D02*
X114008535Y-76283725D01*
X114038878Y-76291325D01*
X114068330Y-76301863D01*
X114096608Y-76315238D01*
X114123438Y-76331319D01*
X114148563Y-76349953D01*
X114171740Y-76370960D01*
X114192747Y-76394137D01*
X114211381Y-76419262D01*
X114227462Y-76446092D01*
X114240837Y-76474370D01*
X114251375Y-76503822D01*
X114258975Y-76534165D01*
X114263565Y-76565107D01*
X114265100Y-76596350D01*
X114265100Y-77233850D01*
X114263565Y-77265093D01*
X114258975Y-77296035D01*
X114251375Y-77326378D01*
X114240837Y-77355830D01*
X114227462Y-77384108D01*
X114211381Y-77410938D01*
X114192747Y-77436063D01*
X114171740Y-77459240D01*
X114148563Y-77480247D01*
X114123438Y-77498881D01*
X114096608Y-77514962D01*
X114068330Y-77528337D01*
X114038878Y-77538875D01*
X114008535Y-77546475D01*
X113977593Y-77551065D01*
X113946350Y-77552600D01*
X113233850Y-77552600D01*
X113202607Y-77551065D01*
X113171665Y-77546475D01*
X113141322Y-77538875D01*
X113111870Y-77528337D01*
X113083592Y-77514962D01*
X113056762Y-77498881D01*
X113031637Y-77480247D01*
X113008460Y-77459240D01*
X112987453Y-77436063D01*
X112968819Y-77410938D01*
X112952738Y-77384108D01*
X112939363Y-77355830D01*
X112928825Y-77326378D01*
X112921225Y-77296035D01*
X112916635Y-77265093D01*
X112915100Y-77233850D01*
X112915100Y-76596350D01*
X112916635Y-76565107D01*
X112921225Y-76534165D01*
X112928825Y-76503822D01*
X112939363Y-76474370D01*
X112952738Y-76446092D01*
X112968819Y-76419262D01*
X112987453Y-76394137D01*
X113008460Y-76370960D01*
X113031637Y-76349953D01*
X113056762Y-76331319D01*
X113083592Y-76315238D01*
X113111870Y-76301863D01*
X113141322Y-76291325D01*
X113171665Y-76283725D01*
X113202607Y-76279135D01*
X113233850Y-76277600D01*
X113946350Y-76277600D01*
X113977593Y-76279135D01*
X113977593Y-76279135D01*
G37*
D12*
X113590100Y-76915100D03*
D11*
G36*
X113977593Y-74704135D02*
X114008535Y-74708725D01*
X114038878Y-74716325D01*
X114068330Y-74726863D01*
X114096608Y-74740238D01*
X114123438Y-74756319D01*
X114148563Y-74774953D01*
X114171740Y-74795960D01*
X114192747Y-74819137D01*
X114211381Y-74844262D01*
X114227462Y-74871092D01*
X114240837Y-74899370D01*
X114251375Y-74928822D01*
X114258975Y-74959165D01*
X114263565Y-74990107D01*
X114265100Y-75021350D01*
X114265100Y-75658850D01*
X114263565Y-75690093D01*
X114258975Y-75721035D01*
X114251375Y-75751378D01*
X114240837Y-75780830D01*
X114227462Y-75809108D01*
X114211381Y-75835938D01*
X114192747Y-75861063D01*
X114171740Y-75884240D01*
X114148563Y-75905247D01*
X114123438Y-75923881D01*
X114096608Y-75939962D01*
X114068330Y-75953337D01*
X114038878Y-75963875D01*
X114008535Y-75971475D01*
X113977593Y-75976065D01*
X113946350Y-75977600D01*
X113233850Y-75977600D01*
X113202607Y-75976065D01*
X113171665Y-75971475D01*
X113141322Y-75963875D01*
X113111870Y-75953337D01*
X113083592Y-75939962D01*
X113056762Y-75923881D01*
X113031637Y-75905247D01*
X113008460Y-75884240D01*
X112987453Y-75861063D01*
X112968819Y-75835938D01*
X112952738Y-75809108D01*
X112939363Y-75780830D01*
X112928825Y-75751378D01*
X112921225Y-75721035D01*
X112916635Y-75690093D01*
X112915100Y-75658850D01*
X112915100Y-75021350D01*
X112916635Y-74990107D01*
X112921225Y-74959165D01*
X112928825Y-74928822D01*
X112939363Y-74899370D01*
X112952738Y-74871092D01*
X112968819Y-74844262D01*
X112987453Y-74819137D01*
X113008460Y-74795960D01*
X113031637Y-74774953D01*
X113056762Y-74756319D01*
X113083592Y-74740238D01*
X113111870Y-74726863D01*
X113141322Y-74716325D01*
X113171665Y-74708725D01*
X113202607Y-74704135D01*
X113233850Y-74702600D01*
X113946350Y-74702600D01*
X113977593Y-74704135D01*
X113977593Y-74704135D01*
G37*
D12*
X113590100Y-75340100D03*
G04 #@! TD*
D11*
G04 #@! TO.C,R10*
G36*
X113977593Y-72596135D02*
X114008535Y-72600725D01*
X114038878Y-72608325D01*
X114068330Y-72618863D01*
X114096608Y-72632238D01*
X114123438Y-72648319D01*
X114148563Y-72666953D01*
X114171740Y-72687960D01*
X114192747Y-72711137D01*
X114211381Y-72736262D01*
X114227462Y-72763092D01*
X114240837Y-72791370D01*
X114251375Y-72820822D01*
X114258975Y-72851165D01*
X114263565Y-72882107D01*
X114265100Y-72913350D01*
X114265100Y-73550850D01*
X114263565Y-73582093D01*
X114258975Y-73613035D01*
X114251375Y-73643378D01*
X114240837Y-73672830D01*
X114227462Y-73701108D01*
X114211381Y-73727938D01*
X114192747Y-73753063D01*
X114171740Y-73776240D01*
X114148563Y-73797247D01*
X114123438Y-73815881D01*
X114096608Y-73831962D01*
X114068330Y-73845337D01*
X114038878Y-73855875D01*
X114008535Y-73863475D01*
X113977593Y-73868065D01*
X113946350Y-73869600D01*
X113233850Y-73869600D01*
X113202607Y-73868065D01*
X113171665Y-73863475D01*
X113141322Y-73855875D01*
X113111870Y-73845337D01*
X113083592Y-73831962D01*
X113056762Y-73815881D01*
X113031637Y-73797247D01*
X113008460Y-73776240D01*
X112987453Y-73753063D01*
X112968819Y-73727938D01*
X112952738Y-73701108D01*
X112939363Y-73672830D01*
X112928825Y-73643378D01*
X112921225Y-73613035D01*
X112916635Y-73582093D01*
X112915100Y-73550850D01*
X112915100Y-72913350D01*
X112916635Y-72882107D01*
X112921225Y-72851165D01*
X112928825Y-72820822D01*
X112939363Y-72791370D01*
X112952738Y-72763092D01*
X112968819Y-72736262D01*
X112987453Y-72711137D01*
X113008460Y-72687960D01*
X113031637Y-72666953D01*
X113056762Y-72648319D01*
X113083592Y-72632238D01*
X113111870Y-72618863D01*
X113141322Y-72608325D01*
X113171665Y-72600725D01*
X113202607Y-72596135D01*
X113233850Y-72594600D01*
X113946350Y-72594600D01*
X113977593Y-72596135D01*
X113977593Y-72596135D01*
G37*
D12*
X113590100Y-73232100D03*
D11*
G36*
X113977593Y-71021135D02*
X114008535Y-71025725D01*
X114038878Y-71033325D01*
X114068330Y-71043863D01*
X114096608Y-71057238D01*
X114123438Y-71073319D01*
X114148563Y-71091953D01*
X114171740Y-71112960D01*
X114192747Y-71136137D01*
X114211381Y-71161262D01*
X114227462Y-71188092D01*
X114240837Y-71216370D01*
X114251375Y-71245822D01*
X114258975Y-71276165D01*
X114263565Y-71307107D01*
X114265100Y-71338350D01*
X114265100Y-71975850D01*
X114263565Y-72007093D01*
X114258975Y-72038035D01*
X114251375Y-72068378D01*
X114240837Y-72097830D01*
X114227462Y-72126108D01*
X114211381Y-72152938D01*
X114192747Y-72178063D01*
X114171740Y-72201240D01*
X114148563Y-72222247D01*
X114123438Y-72240881D01*
X114096608Y-72256962D01*
X114068330Y-72270337D01*
X114038878Y-72280875D01*
X114008535Y-72288475D01*
X113977593Y-72293065D01*
X113946350Y-72294600D01*
X113233850Y-72294600D01*
X113202607Y-72293065D01*
X113171665Y-72288475D01*
X113141322Y-72280875D01*
X113111870Y-72270337D01*
X113083592Y-72256962D01*
X113056762Y-72240881D01*
X113031637Y-72222247D01*
X113008460Y-72201240D01*
X112987453Y-72178063D01*
X112968819Y-72152938D01*
X112952738Y-72126108D01*
X112939363Y-72097830D01*
X112928825Y-72068378D01*
X112921225Y-72038035D01*
X112916635Y-72007093D01*
X112915100Y-71975850D01*
X112915100Y-71338350D01*
X112916635Y-71307107D01*
X112921225Y-71276165D01*
X112928825Y-71245822D01*
X112939363Y-71216370D01*
X112952738Y-71188092D01*
X112968819Y-71161262D01*
X112987453Y-71136137D01*
X113008460Y-71112960D01*
X113031637Y-71091953D01*
X113056762Y-71073319D01*
X113083592Y-71057238D01*
X113111870Y-71043863D01*
X113141322Y-71033325D01*
X113171665Y-71025725D01*
X113202607Y-71021135D01*
X113233850Y-71019600D01*
X113946350Y-71019600D01*
X113977593Y-71021135D01*
X113977593Y-71021135D01*
G37*
D12*
X113590100Y-71657100D03*
G04 #@! TD*
D11*
G04 #@! TO.C,R7*
G36*
X119184593Y-74831135D02*
X119215535Y-74835725D01*
X119245878Y-74843325D01*
X119275330Y-74853863D01*
X119303608Y-74867238D01*
X119330438Y-74883319D01*
X119355563Y-74901953D01*
X119378740Y-74922960D01*
X119399747Y-74946137D01*
X119418381Y-74971262D01*
X119434462Y-74998092D01*
X119447837Y-75026370D01*
X119458375Y-75055822D01*
X119465975Y-75086165D01*
X119470565Y-75117107D01*
X119472100Y-75148350D01*
X119472100Y-75785850D01*
X119470565Y-75817093D01*
X119465975Y-75848035D01*
X119458375Y-75878378D01*
X119447837Y-75907830D01*
X119434462Y-75936108D01*
X119418381Y-75962938D01*
X119399747Y-75988063D01*
X119378740Y-76011240D01*
X119355563Y-76032247D01*
X119330438Y-76050881D01*
X119303608Y-76066962D01*
X119275330Y-76080337D01*
X119245878Y-76090875D01*
X119215535Y-76098475D01*
X119184593Y-76103065D01*
X119153350Y-76104600D01*
X118440850Y-76104600D01*
X118409607Y-76103065D01*
X118378665Y-76098475D01*
X118348322Y-76090875D01*
X118318870Y-76080337D01*
X118290592Y-76066962D01*
X118263762Y-76050881D01*
X118238637Y-76032247D01*
X118215460Y-76011240D01*
X118194453Y-75988063D01*
X118175819Y-75962938D01*
X118159738Y-75936108D01*
X118146363Y-75907830D01*
X118135825Y-75878378D01*
X118128225Y-75848035D01*
X118123635Y-75817093D01*
X118122100Y-75785850D01*
X118122100Y-75148350D01*
X118123635Y-75117107D01*
X118128225Y-75086165D01*
X118135825Y-75055822D01*
X118146363Y-75026370D01*
X118159738Y-74998092D01*
X118175819Y-74971262D01*
X118194453Y-74946137D01*
X118215460Y-74922960D01*
X118238637Y-74901953D01*
X118263762Y-74883319D01*
X118290592Y-74867238D01*
X118318870Y-74853863D01*
X118348322Y-74843325D01*
X118378665Y-74835725D01*
X118409607Y-74831135D01*
X118440850Y-74829600D01*
X119153350Y-74829600D01*
X119184593Y-74831135D01*
X119184593Y-74831135D01*
G37*
D12*
X118797100Y-75467100D03*
D11*
G36*
X119184593Y-76406135D02*
X119215535Y-76410725D01*
X119245878Y-76418325D01*
X119275330Y-76428863D01*
X119303608Y-76442238D01*
X119330438Y-76458319D01*
X119355563Y-76476953D01*
X119378740Y-76497960D01*
X119399747Y-76521137D01*
X119418381Y-76546262D01*
X119434462Y-76573092D01*
X119447837Y-76601370D01*
X119458375Y-76630822D01*
X119465975Y-76661165D01*
X119470565Y-76692107D01*
X119472100Y-76723350D01*
X119472100Y-77360850D01*
X119470565Y-77392093D01*
X119465975Y-77423035D01*
X119458375Y-77453378D01*
X119447837Y-77482830D01*
X119434462Y-77511108D01*
X119418381Y-77537938D01*
X119399747Y-77563063D01*
X119378740Y-77586240D01*
X119355563Y-77607247D01*
X119330438Y-77625881D01*
X119303608Y-77641962D01*
X119275330Y-77655337D01*
X119245878Y-77665875D01*
X119215535Y-77673475D01*
X119184593Y-77678065D01*
X119153350Y-77679600D01*
X118440850Y-77679600D01*
X118409607Y-77678065D01*
X118378665Y-77673475D01*
X118348322Y-77665875D01*
X118318870Y-77655337D01*
X118290592Y-77641962D01*
X118263762Y-77625881D01*
X118238637Y-77607247D01*
X118215460Y-77586240D01*
X118194453Y-77563063D01*
X118175819Y-77537938D01*
X118159738Y-77511108D01*
X118146363Y-77482830D01*
X118135825Y-77453378D01*
X118128225Y-77423035D01*
X118123635Y-77392093D01*
X118122100Y-77360850D01*
X118122100Y-76723350D01*
X118123635Y-76692107D01*
X118128225Y-76661165D01*
X118135825Y-76630822D01*
X118146363Y-76601370D01*
X118159738Y-76573092D01*
X118175819Y-76546262D01*
X118194453Y-76521137D01*
X118215460Y-76497960D01*
X118238637Y-76476953D01*
X118263762Y-76458319D01*
X118290592Y-76442238D01*
X118318870Y-76428863D01*
X118348322Y-76418325D01*
X118378665Y-76410725D01*
X118409607Y-76406135D01*
X118440850Y-76404600D01*
X119153350Y-76404600D01*
X119184593Y-76406135D01*
X119184593Y-76406135D01*
G37*
D12*
X118797100Y-77042100D03*
G04 #@! TD*
D11*
G04 #@! TO.C,R8*
G36*
X120835593Y-74831135D02*
X120866535Y-74835725D01*
X120896878Y-74843325D01*
X120926330Y-74853863D01*
X120954608Y-74867238D01*
X120981438Y-74883319D01*
X121006563Y-74901953D01*
X121029740Y-74922960D01*
X121050747Y-74946137D01*
X121069381Y-74971262D01*
X121085462Y-74998092D01*
X121098837Y-75026370D01*
X121109375Y-75055822D01*
X121116975Y-75086165D01*
X121121565Y-75117107D01*
X121123100Y-75148350D01*
X121123100Y-75785850D01*
X121121565Y-75817093D01*
X121116975Y-75848035D01*
X121109375Y-75878378D01*
X121098837Y-75907830D01*
X121085462Y-75936108D01*
X121069381Y-75962938D01*
X121050747Y-75988063D01*
X121029740Y-76011240D01*
X121006563Y-76032247D01*
X120981438Y-76050881D01*
X120954608Y-76066962D01*
X120926330Y-76080337D01*
X120896878Y-76090875D01*
X120866535Y-76098475D01*
X120835593Y-76103065D01*
X120804350Y-76104600D01*
X120091850Y-76104600D01*
X120060607Y-76103065D01*
X120029665Y-76098475D01*
X119999322Y-76090875D01*
X119969870Y-76080337D01*
X119941592Y-76066962D01*
X119914762Y-76050881D01*
X119889637Y-76032247D01*
X119866460Y-76011240D01*
X119845453Y-75988063D01*
X119826819Y-75962938D01*
X119810738Y-75936108D01*
X119797363Y-75907830D01*
X119786825Y-75878378D01*
X119779225Y-75848035D01*
X119774635Y-75817093D01*
X119773100Y-75785850D01*
X119773100Y-75148350D01*
X119774635Y-75117107D01*
X119779225Y-75086165D01*
X119786825Y-75055822D01*
X119797363Y-75026370D01*
X119810738Y-74998092D01*
X119826819Y-74971262D01*
X119845453Y-74946137D01*
X119866460Y-74922960D01*
X119889637Y-74901953D01*
X119914762Y-74883319D01*
X119941592Y-74867238D01*
X119969870Y-74853863D01*
X119999322Y-74843325D01*
X120029665Y-74835725D01*
X120060607Y-74831135D01*
X120091850Y-74829600D01*
X120804350Y-74829600D01*
X120835593Y-74831135D01*
X120835593Y-74831135D01*
G37*
D12*
X120448100Y-75467100D03*
D11*
G36*
X120835593Y-76406135D02*
X120866535Y-76410725D01*
X120896878Y-76418325D01*
X120926330Y-76428863D01*
X120954608Y-76442238D01*
X120981438Y-76458319D01*
X121006563Y-76476953D01*
X121029740Y-76497960D01*
X121050747Y-76521137D01*
X121069381Y-76546262D01*
X121085462Y-76573092D01*
X121098837Y-76601370D01*
X121109375Y-76630822D01*
X121116975Y-76661165D01*
X121121565Y-76692107D01*
X121123100Y-76723350D01*
X121123100Y-77360850D01*
X121121565Y-77392093D01*
X121116975Y-77423035D01*
X121109375Y-77453378D01*
X121098837Y-77482830D01*
X121085462Y-77511108D01*
X121069381Y-77537938D01*
X121050747Y-77563063D01*
X121029740Y-77586240D01*
X121006563Y-77607247D01*
X120981438Y-77625881D01*
X120954608Y-77641962D01*
X120926330Y-77655337D01*
X120896878Y-77665875D01*
X120866535Y-77673475D01*
X120835593Y-77678065D01*
X120804350Y-77679600D01*
X120091850Y-77679600D01*
X120060607Y-77678065D01*
X120029665Y-77673475D01*
X119999322Y-77665875D01*
X119969870Y-77655337D01*
X119941592Y-77641962D01*
X119914762Y-77625881D01*
X119889637Y-77607247D01*
X119866460Y-77586240D01*
X119845453Y-77563063D01*
X119826819Y-77537938D01*
X119810738Y-77511108D01*
X119797363Y-77482830D01*
X119786825Y-77453378D01*
X119779225Y-77423035D01*
X119774635Y-77392093D01*
X119773100Y-77360850D01*
X119773100Y-76723350D01*
X119774635Y-76692107D01*
X119779225Y-76661165D01*
X119786825Y-76630822D01*
X119797363Y-76601370D01*
X119810738Y-76573092D01*
X119826819Y-76546262D01*
X119845453Y-76521137D01*
X119866460Y-76497960D01*
X119889637Y-76476953D01*
X119914762Y-76458319D01*
X119941592Y-76442238D01*
X119969870Y-76428863D01*
X119999322Y-76418325D01*
X120029665Y-76410725D01*
X120060607Y-76406135D01*
X120091850Y-76404600D01*
X120804350Y-76404600D01*
X120835593Y-76406135D01*
X120835593Y-76406135D01*
G37*
D12*
X120448100Y-77042100D03*
G04 #@! TD*
D16*
G04 #@! TO.C,JP5*
X146229100Y-57458600D03*
D15*
X146229100Y-56158600D03*
D11*
G36*
X145279702Y-56152488D02*
X145279702Y-56134066D01*
X145280665Y-56114460D01*
X145285475Y-56065629D01*
X145288354Y-56046220D01*
X145297926Y-55998095D01*
X145302696Y-55979052D01*
X145316940Y-55932097D01*
X145323551Y-55913620D01*
X145342328Y-55868287D01*
X145350723Y-55850539D01*
X145373854Y-55807266D01*
X145383940Y-55790438D01*
X145411200Y-55749639D01*
X145422895Y-55733870D01*
X145454023Y-55695941D01*
X145467203Y-55681400D01*
X145501900Y-55646703D01*
X145516441Y-55633523D01*
X145554370Y-55602395D01*
X145570139Y-55590700D01*
X145610938Y-55563440D01*
X145627766Y-55553354D01*
X145671039Y-55530223D01*
X145688787Y-55521828D01*
X145734120Y-55503051D01*
X145752597Y-55496440D01*
X145799552Y-55482196D01*
X145818595Y-55477426D01*
X145866720Y-55467854D01*
X145886129Y-55464975D01*
X145934960Y-55460165D01*
X145954566Y-55459202D01*
X145972988Y-55459202D01*
X145979100Y-55458600D01*
X146479100Y-55458600D01*
X146485212Y-55459202D01*
X146503634Y-55459202D01*
X146523240Y-55460165D01*
X146572071Y-55464975D01*
X146591480Y-55467854D01*
X146639605Y-55477426D01*
X146658648Y-55482196D01*
X146705603Y-55496440D01*
X146724080Y-55503051D01*
X146769413Y-55521828D01*
X146787161Y-55530223D01*
X146830434Y-55553354D01*
X146847262Y-55563440D01*
X146888061Y-55590700D01*
X146903830Y-55602395D01*
X146941759Y-55633523D01*
X146956300Y-55646703D01*
X146990997Y-55681400D01*
X147004177Y-55695941D01*
X147035305Y-55733870D01*
X147047000Y-55749639D01*
X147074260Y-55790438D01*
X147084346Y-55807266D01*
X147107477Y-55850539D01*
X147115872Y-55868287D01*
X147134649Y-55913620D01*
X147141260Y-55932097D01*
X147155504Y-55979052D01*
X147160274Y-55998095D01*
X147169846Y-56046220D01*
X147172725Y-56065629D01*
X147177535Y-56114460D01*
X147178498Y-56134066D01*
X147178498Y-56152488D01*
X147179100Y-56158600D01*
X147179100Y-56708600D01*
X147175257Y-56747618D01*
X147163876Y-56785137D01*
X147145394Y-56819714D01*
X147120521Y-56850021D01*
X147090214Y-56874894D01*
X147055637Y-56893376D01*
X147018118Y-56904757D01*
X146979100Y-56908600D01*
X145479100Y-56908600D01*
X145440082Y-56904757D01*
X145402563Y-56893376D01*
X145367986Y-56874894D01*
X145337679Y-56850021D01*
X145312806Y-56819714D01*
X145294324Y-56785137D01*
X145282943Y-56747618D01*
X145279100Y-56708600D01*
X145279100Y-56158600D01*
X145279702Y-56152488D01*
X145279702Y-56152488D01*
G37*
D15*
X146229100Y-58758600D03*
D11*
G36*
X145282943Y-58169582D02*
X145294324Y-58132063D01*
X145312806Y-58097486D01*
X145337679Y-58067179D01*
X145367986Y-58042306D01*
X145402563Y-58023824D01*
X145440082Y-58012443D01*
X145479100Y-58008600D01*
X145729100Y-58008600D01*
X145729100Y-57858600D01*
X145732943Y-57819582D01*
X145744324Y-57782063D01*
X145762806Y-57747486D01*
X145787679Y-57717179D01*
X145817986Y-57692306D01*
X145852563Y-57673824D01*
X145890082Y-57662443D01*
X145929100Y-57658600D01*
X146529100Y-57658600D01*
X146568118Y-57662443D01*
X146605637Y-57673824D01*
X146640214Y-57692306D01*
X146670521Y-57717179D01*
X146695394Y-57747486D01*
X146713876Y-57782063D01*
X146725257Y-57819582D01*
X146729100Y-57858600D01*
X146729100Y-58008600D01*
X146979100Y-58008600D01*
X147018118Y-58012443D01*
X147055637Y-58023824D01*
X147090214Y-58042306D01*
X147120521Y-58067179D01*
X147145394Y-58097486D01*
X147163876Y-58132063D01*
X147175257Y-58169582D01*
X147179100Y-58208600D01*
X147179100Y-58758600D01*
X147178498Y-58764712D01*
X147178498Y-58783134D01*
X147177535Y-58802740D01*
X147172725Y-58851571D01*
X147169846Y-58870980D01*
X147160274Y-58919105D01*
X147155504Y-58938148D01*
X147141260Y-58985103D01*
X147134649Y-59003580D01*
X147115872Y-59048913D01*
X147107477Y-59066661D01*
X147084346Y-59109934D01*
X147074260Y-59126762D01*
X147047000Y-59167561D01*
X147035305Y-59183330D01*
X147004177Y-59221259D01*
X146990997Y-59235800D01*
X146956300Y-59270497D01*
X146941759Y-59283677D01*
X146903830Y-59314805D01*
X146888061Y-59326500D01*
X146847262Y-59353760D01*
X146830434Y-59363846D01*
X146787161Y-59386977D01*
X146769413Y-59395372D01*
X146724080Y-59414149D01*
X146705603Y-59420760D01*
X146658648Y-59435004D01*
X146639605Y-59439774D01*
X146591480Y-59449346D01*
X146572071Y-59452225D01*
X146523240Y-59457035D01*
X146503634Y-59457998D01*
X146485212Y-59457998D01*
X146479100Y-59458600D01*
X145979100Y-59458600D01*
X145972988Y-59457998D01*
X145954566Y-59457998D01*
X145934960Y-59457035D01*
X145886129Y-59452225D01*
X145866720Y-59449346D01*
X145818595Y-59439774D01*
X145799552Y-59435004D01*
X145752597Y-59420760D01*
X145734120Y-59414149D01*
X145688787Y-59395372D01*
X145671039Y-59386977D01*
X145627766Y-59363846D01*
X145610938Y-59353760D01*
X145570139Y-59326500D01*
X145554370Y-59314805D01*
X145516441Y-59283677D01*
X145501900Y-59270497D01*
X145467203Y-59235800D01*
X145454023Y-59221259D01*
X145422895Y-59183330D01*
X145411200Y-59167561D01*
X145383940Y-59126762D01*
X145373854Y-59109934D01*
X145350723Y-59066661D01*
X145342328Y-59048913D01*
X145323551Y-59003580D01*
X145316940Y-58985103D01*
X145302696Y-58938148D01*
X145297926Y-58919105D01*
X145288354Y-58870980D01*
X145285475Y-58851571D01*
X145280665Y-58802740D01*
X145279702Y-58783134D01*
X145279702Y-58764712D01*
X145279100Y-58758600D01*
X145279100Y-58208600D01*
X145282943Y-58169582D01*
X145282943Y-58169582D01*
G37*
G04 #@! TD*
D17*
G04 #@! TO.C,Q2*
X117130100Y-76127600D03*
X115130100Y-77077600D03*
X115130100Y-75177600D03*
G04 #@! TD*
G04 #@! TO.C,Q4*
X117130100Y-72444600D03*
X115130100Y-73394600D03*
X115130100Y-71494600D03*
G04 #@! TD*
D11*
G04 #@! TO.C,C15*
G36*
X140901593Y-84102135D02*
X140932535Y-84106725D01*
X140962878Y-84114325D01*
X140992330Y-84124863D01*
X141020608Y-84138238D01*
X141047438Y-84154319D01*
X141072563Y-84172953D01*
X141095740Y-84193960D01*
X141116747Y-84217137D01*
X141135381Y-84242262D01*
X141151462Y-84269092D01*
X141164837Y-84297370D01*
X141175375Y-84326822D01*
X141182975Y-84357165D01*
X141187565Y-84388107D01*
X141189100Y-84419350D01*
X141189100Y-85056850D01*
X141187565Y-85088093D01*
X141182975Y-85119035D01*
X141175375Y-85149378D01*
X141164837Y-85178830D01*
X141151462Y-85207108D01*
X141135381Y-85233938D01*
X141116747Y-85259063D01*
X141095740Y-85282240D01*
X141072563Y-85303247D01*
X141047438Y-85321881D01*
X141020608Y-85337962D01*
X140992330Y-85351337D01*
X140962878Y-85361875D01*
X140932535Y-85369475D01*
X140901593Y-85374065D01*
X140870350Y-85375600D01*
X140157850Y-85375600D01*
X140126607Y-85374065D01*
X140095665Y-85369475D01*
X140065322Y-85361875D01*
X140035870Y-85351337D01*
X140007592Y-85337962D01*
X139980762Y-85321881D01*
X139955637Y-85303247D01*
X139932460Y-85282240D01*
X139911453Y-85259063D01*
X139892819Y-85233938D01*
X139876738Y-85207108D01*
X139863363Y-85178830D01*
X139852825Y-85149378D01*
X139845225Y-85119035D01*
X139840635Y-85088093D01*
X139839100Y-85056850D01*
X139839100Y-84419350D01*
X139840635Y-84388107D01*
X139845225Y-84357165D01*
X139852825Y-84326822D01*
X139863363Y-84297370D01*
X139876738Y-84269092D01*
X139892819Y-84242262D01*
X139911453Y-84217137D01*
X139932460Y-84193960D01*
X139955637Y-84172953D01*
X139980762Y-84154319D01*
X140007592Y-84138238D01*
X140035870Y-84124863D01*
X140065322Y-84114325D01*
X140095665Y-84106725D01*
X140126607Y-84102135D01*
X140157850Y-84100600D01*
X140870350Y-84100600D01*
X140901593Y-84102135D01*
X140901593Y-84102135D01*
G37*
D12*
X140514100Y-84738100D03*
D11*
G36*
X140901593Y-85677135D02*
X140932535Y-85681725D01*
X140962878Y-85689325D01*
X140992330Y-85699863D01*
X141020608Y-85713238D01*
X141047438Y-85729319D01*
X141072563Y-85747953D01*
X141095740Y-85768960D01*
X141116747Y-85792137D01*
X141135381Y-85817262D01*
X141151462Y-85844092D01*
X141164837Y-85872370D01*
X141175375Y-85901822D01*
X141182975Y-85932165D01*
X141187565Y-85963107D01*
X141189100Y-85994350D01*
X141189100Y-86631850D01*
X141187565Y-86663093D01*
X141182975Y-86694035D01*
X141175375Y-86724378D01*
X141164837Y-86753830D01*
X141151462Y-86782108D01*
X141135381Y-86808938D01*
X141116747Y-86834063D01*
X141095740Y-86857240D01*
X141072563Y-86878247D01*
X141047438Y-86896881D01*
X141020608Y-86912962D01*
X140992330Y-86926337D01*
X140962878Y-86936875D01*
X140932535Y-86944475D01*
X140901593Y-86949065D01*
X140870350Y-86950600D01*
X140157850Y-86950600D01*
X140126607Y-86949065D01*
X140095665Y-86944475D01*
X140065322Y-86936875D01*
X140035870Y-86926337D01*
X140007592Y-86912962D01*
X139980762Y-86896881D01*
X139955637Y-86878247D01*
X139932460Y-86857240D01*
X139911453Y-86834063D01*
X139892819Y-86808938D01*
X139876738Y-86782108D01*
X139863363Y-86753830D01*
X139852825Y-86724378D01*
X139845225Y-86694035D01*
X139840635Y-86663093D01*
X139839100Y-86631850D01*
X139839100Y-85994350D01*
X139840635Y-85963107D01*
X139845225Y-85932165D01*
X139852825Y-85901822D01*
X139863363Y-85872370D01*
X139876738Y-85844092D01*
X139892819Y-85817262D01*
X139911453Y-85792137D01*
X139932460Y-85768960D01*
X139955637Y-85747953D01*
X139980762Y-85729319D01*
X140007592Y-85713238D01*
X140035870Y-85699863D01*
X140065322Y-85689325D01*
X140095665Y-85681725D01*
X140126607Y-85677135D01*
X140157850Y-85675600D01*
X140870350Y-85675600D01*
X140901593Y-85677135D01*
X140901593Y-85677135D01*
G37*
D12*
X140514100Y-86313100D03*
G04 #@! TD*
D13*
G04 #@! TO.C,X3a1*
X140514100Y-89589600D03*
X143054100Y-89589600D03*
X145594100Y-89589600D03*
X148134100Y-89589600D03*
X150674100Y-89589600D03*
D14*
X153214100Y-89589600D03*
G04 #@! TD*
D18*
G04 #@! TO.C,JP4*
X117781100Y-58855600D03*
D15*
X119081100Y-58855600D03*
D11*
G36*
X119087212Y-57906202D02*
X119105634Y-57906202D01*
X119125240Y-57907165D01*
X119174071Y-57911975D01*
X119193480Y-57914854D01*
X119241605Y-57924426D01*
X119260648Y-57929196D01*
X119307603Y-57943440D01*
X119326080Y-57950051D01*
X119371413Y-57968828D01*
X119389161Y-57977223D01*
X119432434Y-58000354D01*
X119449262Y-58010440D01*
X119490061Y-58037700D01*
X119505830Y-58049395D01*
X119543759Y-58080523D01*
X119558300Y-58093703D01*
X119592997Y-58128400D01*
X119606177Y-58142941D01*
X119637305Y-58180870D01*
X119649000Y-58196639D01*
X119676260Y-58237438D01*
X119686346Y-58254266D01*
X119709477Y-58297539D01*
X119717872Y-58315287D01*
X119736649Y-58360620D01*
X119743260Y-58379097D01*
X119757504Y-58426052D01*
X119762274Y-58445095D01*
X119771846Y-58493220D01*
X119774725Y-58512629D01*
X119779535Y-58561460D01*
X119780498Y-58581066D01*
X119780498Y-58599488D01*
X119781100Y-58605600D01*
X119781100Y-59105600D01*
X119780498Y-59111712D01*
X119780498Y-59130134D01*
X119779535Y-59149740D01*
X119774725Y-59198571D01*
X119771846Y-59217980D01*
X119762274Y-59266105D01*
X119757504Y-59285148D01*
X119743260Y-59332103D01*
X119736649Y-59350580D01*
X119717872Y-59395913D01*
X119709477Y-59413661D01*
X119686346Y-59456934D01*
X119676260Y-59473762D01*
X119649000Y-59514561D01*
X119637305Y-59530330D01*
X119606177Y-59568259D01*
X119592997Y-59582800D01*
X119558300Y-59617497D01*
X119543759Y-59630677D01*
X119505830Y-59661805D01*
X119490061Y-59673500D01*
X119449262Y-59700760D01*
X119432434Y-59710846D01*
X119389161Y-59733977D01*
X119371413Y-59742372D01*
X119326080Y-59761149D01*
X119307603Y-59767760D01*
X119260648Y-59782004D01*
X119241605Y-59786774D01*
X119193480Y-59796346D01*
X119174071Y-59799225D01*
X119125240Y-59804035D01*
X119105634Y-59804998D01*
X119087212Y-59804998D01*
X119081100Y-59805600D01*
X118531100Y-59805600D01*
X118492082Y-59801757D01*
X118454563Y-59790376D01*
X118419986Y-59771894D01*
X118389679Y-59747021D01*
X118364806Y-59716714D01*
X118346324Y-59682137D01*
X118334943Y-59644618D01*
X118331100Y-59605600D01*
X118331100Y-58105600D01*
X118334943Y-58066582D01*
X118346324Y-58029063D01*
X118364806Y-57994486D01*
X118389679Y-57964179D01*
X118419986Y-57939306D01*
X118454563Y-57920824D01*
X118492082Y-57909443D01*
X118531100Y-57905600D01*
X119081100Y-57905600D01*
X119087212Y-57906202D01*
X119087212Y-57906202D01*
G37*
D15*
X116481100Y-58855600D03*
D11*
G36*
X117070118Y-57909443D02*
X117107637Y-57920824D01*
X117142214Y-57939306D01*
X117172521Y-57964179D01*
X117197394Y-57994486D01*
X117215876Y-58029063D01*
X117227257Y-58066582D01*
X117231100Y-58105600D01*
X117231100Y-58355600D01*
X117381100Y-58355600D01*
X117420118Y-58359443D01*
X117457637Y-58370824D01*
X117492214Y-58389306D01*
X117522521Y-58414179D01*
X117547394Y-58444486D01*
X117565876Y-58479063D01*
X117577257Y-58516582D01*
X117581100Y-58555600D01*
X117581100Y-59155600D01*
X117577257Y-59194618D01*
X117565876Y-59232137D01*
X117547394Y-59266714D01*
X117522521Y-59297021D01*
X117492214Y-59321894D01*
X117457637Y-59340376D01*
X117420118Y-59351757D01*
X117381100Y-59355600D01*
X117231100Y-59355600D01*
X117231100Y-59605600D01*
X117227257Y-59644618D01*
X117215876Y-59682137D01*
X117197394Y-59716714D01*
X117172521Y-59747021D01*
X117142214Y-59771894D01*
X117107637Y-59790376D01*
X117070118Y-59801757D01*
X117031100Y-59805600D01*
X116481100Y-59805600D01*
X116474988Y-59804998D01*
X116456566Y-59804998D01*
X116436960Y-59804035D01*
X116388129Y-59799225D01*
X116368720Y-59796346D01*
X116320595Y-59786774D01*
X116301552Y-59782004D01*
X116254597Y-59767760D01*
X116236120Y-59761149D01*
X116190787Y-59742372D01*
X116173039Y-59733977D01*
X116129766Y-59710846D01*
X116112938Y-59700760D01*
X116072139Y-59673500D01*
X116056370Y-59661805D01*
X116018441Y-59630677D01*
X116003900Y-59617497D01*
X115969203Y-59582800D01*
X115956023Y-59568259D01*
X115924895Y-59530330D01*
X115913200Y-59514561D01*
X115885940Y-59473762D01*
X115875854Y-59456934D01*
X115852723Y-59413661D01*
X115844328Y-59395913D01*
X115825551Y-59350580D01*
X115818940Y-59332103D01*
X115804696Y-59285148D01*
X115799926Y-59266105D01*
X115790354Y-59217980D01*
X115787475Y-59198571D01*
X115782665Y-59149740D01*
X115781702Y-59130134D01*
X115781702Y-59111712D01*
X115781100Y-59105600D01*
X115781100Y-58605600D01*
X115781702Y-58599488D01*
X115781702Y-58581066D01*
X115782665Y-58561460D01*
X115787475Y-58512629D01*
X115790354Y-58493220D01*
X115799926Y-58445095D01*
X115804696Y-58426052D01*
X115818940Y-58379097D01*
X115825551Y-58360620D01*
X115844328Y-58315287D01*
X115852723Y-58297539D01*
X115875854Y-58254266D01*
X115885940Y-58237438D01*
X115913200Y-58196639D01*
X115924895Y-58180870D01*
X115956023Y-58142941D01*
X115969203Y-58128400D01*
X116003900Y-58093703D01*
X116018441Y-58080523D01*
X116056370Y-58049395D01*
X116072139Y-58037700D01*
X116112938Y-58010440D01*
X116129766Y-58000354D01*
X116173039Y-57977223D01*
X116190787Y-57968828D01*
X116236120Y-57950051D01*
X116254597Y-57943440D01*
X116301552Y-57929196D01*
X116320595Y-57924426D01*
X116368720Y-57914854D01*
X116388129Y-57911975D01*
X116436960Y-57907165D01*
X116456566Y-57906202D01*
X116474988Y-57906202D01*
X116481100Y-57905600D01*
X117031100Y-57905600D01*
X117070118Y-57909443D01*
X117070118Y-57909443D01*
G37*
G04 #@! TD*
D16*
G04 #@! TO.C,JP3*
X150801100Y-56188600D03*
D15*
X150801100Y-57488600D03*
D11*
G36*
X151750498Y-57494712D02*
X151750498Y-57513134D01*
X151749535Y-57532740D01*
X151744725Y-57581571D01*
X151741846Y-57600980D01*
X151732274Y-57649105D01*
X151727504Y-57668148D01*
X151713260Y-57715103D01*
X151706649Y-57733580D01*
X151687872Y-57778913D01*
X151679477Y-57796661D01*
X151656346Y-57839934D01*
X151646260Y-57856762D01*
X151619000Y-57897561D01*
X151607305Y-57913330D01*
X151576177Y-57951259D01*
X151562997Y-57965800D01*
X151528300Y-58000497D01*
X151513759Y-58013677D01*
X151475830Y-58044805D01*
X151460061Y-58056500D01*
X151419262Y-58083760D01*
X151402434Y-58093846D01*
X151359161Y-58116977D01*
X151341413Y-58125372D01*
X151296080Y-58144149D01*
X151277603Y-58150760D01*
X151230648Y-58165004D01*
X151211605Y-58169774D01*
X151163480Y-58179346D01*
X151144071Y-58182225D01*
X151095240Y-58187035D01*
X151075634Y-58187998D01*
X151057212Y-58187998D01*
X151051100Y-58188600D01*
X150551100Y-58188600D01*
X150544988Y-58187998D01*
X150526566Y-58187998D01*
X150506960Y-58187035D01*
X150458129Y-58182225D01*
X150438720Y-58179346D01*
X150390595Y-58169774D01*
X150371552Y-58165004D01*
X150324597Y-58150760D01*
X150306120Y-58144149D01*
X150260787Y-58125372D01*
X150243039Y-58116977D01*
X150199766Y-58093846D01*
X150182938Y-58083760D01*
X150142139Y-58056500D01*
X150126370Y-58044805D01*
X150088441Y-58013677D01*
X150073900Y-58000497D01*
X150039203Y-57965800D01*
X150026023Y-57951259D01*
X149994895Y-57913330D01*
X149983200Y-57897561D01*
X149955940Y-57856762D01*
X149945854Y-57839934D01*
X149922723Y-57796661D01*
X149914328Y-57778913D01*
X149895551Y-57733580D01*
X149888940Y-57715103D01*
X149874696Y-57668148D01*
X149869926Y-57649105D01*
X149860354Y-57600980D01*
X149857475Y-57581571D01*
X149852665Y-57532740D01*
X149851702Y-57513134D01*
X149851702Y-57494712D01*
X149851100Y-57488600D01*
X149851100Y-56938600D01*
X149854943Y-56899582D01*
X149866324Y-56862063D01*
X149884806Y-56827486D01*
X149909679Y-56797179D01*
X149939986Y-56772306D01*
X149974563Y-56753824D01*
X150012082Y-56742443D01*
X150051100Y-56738600D01*
X151551100Y-56738600D01*
X151590118Y-56742443D01*
X151627637Y-56753824D01*
X151662214Y-56772306D01*
X151692521Y-56797179D01*
X151717394Y-56827486D01*
X151735876Y-56862063D01*
X151747257Y-56899582D01*
X151751100Y-56938600D01*
X151751100Y-57488600D01*
X151750498Y-57494712D01*
X151750498Y-57494712D01*
G37*
D15*
X150801100Y-54888600D03*
D11*
G36*
X151747257Y-55477618D02*
X151735876Y-55515137D01*
X151717394Y-55549714D01*
X151692521Y-55580021D01*
X151662214Y-55604894D01*
X151627637Y-55623376D01*
X151590118Y-55634757D01*
X151551100Y-55638600D01*
X151301100Y-55638600D01*
X151301100Y-55788600D01*
X151297257Y-55827618D01*
X151285876Y-55865137D01*
X151267394Y-55899714D01*
X151242521Y-55930021D01*
X151212214Y-55954894D01*
X151177637Y-55973376D01*
X151140118Y-55984757D01*
X151101100Y-55988600D01*
X150501100Y-55988600D01*
X150462082Y-55984757D01*
X150424563Y-55973376D01*
X150389986Y-55954894D01*
X150359679Y-55930021D01*
X150334806Y-55899714D01*
X150316324Y-55865137D01*
X150304943Y-55827618D01*
X150301100Y-55788600D01*
X150301100Y-55638600D01*
X150051100Y-55638600D01*
X150012082Y-55634757D01*
X149974563Y-55623376D01*
X149939986Y-55604894D01*
X149909679Y-55580021D01*
X149884806Y-55549714D01*
X149866324Y-55515137D01*
X149854943Y-55477618D01*
X149851100Y-55438600D01*
X149851100Y-54888600D01*
X149851702Y-54882488D01*
X149851702Y-54864066D01*
X149852665Y-54844460D01*
X149857475Y-54795629D01*
X149860354Y-54776220D01*
X149869926Y-54728095D01*
X149874696Y-54709052D01*
X149888940Y-54662097D01*
X149895551Y-54643620D01*
X149914328Y-54598287D01*
X149922723Y-54580539D01*
X149945854Y-54537266D01*
X149955940Y-54520438D01*
X149983200Y-54479639D01*
X149994895Y-54463870D01*
X150026023Y-54425941D01*
X150039203Y-54411400D01*
X150073900Y-54376703D01*
X150088441Y-54363523D01*
X150126370Y-54332395D01*
X150142139Y-54320700D01*
X150182938Y-54293440D01*
X150199766Y-54283354D01*
X150243039Y-54260223D01*
X150260787Y-54251828D01*
X150306120Y-54233051D01*
X150324597Y-54226440D01*
X150371552Y-54212196D01*
X150390595Y-54207426D01*
X150438720Y-54197854D01*
X150458129Y-54194975D01*
X150506960Y-54190165D01*
X150526566Y-54189202D01*
X150544988Y-54189202D01*
X150551100Y-54188600D01*
X151051100Y-54188600D01*
X151057212Y-54189202D01*
X151075634Y-54189202D01*
X151095240Y-54190165D01*
X151144071Y-54194975D01*
X151163480Y-54197854D01*
X151211605Y-54207426D01*
X151230648Y-54212196D01*
X151277603Y-54226440D01*
X151296080Y-54233051D01*
X151341413Y-54251828D01*
X151359161Y-54260223D01*
X151402434Y-54283354D01*
X151419262Y-54293440D01*
X151460061Y-54320700D01*
X151475830Y-54332395D01*
X151513759Y-54363523D01*
X151528300Y-54376703D01*
X151562997Y-54411400D01*
X151576177Y-54425941D01*
X151607305Y-54463870D01*
X151619000Y-54479639D01*
X151646260Y-54520438D01*
X151656346Y-54537266D01*
X151679477Y-54580539D01*
X151687872Y-54598287D01*
X151706649Y-54643620D01*
X151713260Y-54662097D01*
X151727504Y-54709052D01*
X151732274Y-54728095D01*
X151741846Y-54776220D01*
X151744725Y-54795629D01*
X151749535Y-54844460D01*
X151750498Y-54864066D01*
X151750498Y-54882488D01*
X151751100Y-54888600D01*
X151751100Y-55438600D01*
X151747257Y-55477618D01*
X151747257Y-55477618D01*
G37*
G04 #@! TD*
D18*
G04 #@! TO.C,JP1*
X120194100Y-54918600D03*
D15*
X121494100Y-54918600D03*
D11*
G36*
X121500212Y-53969202D02*
X121518634Y-53969202D01*
X121538240Y-53970165D01*
X121587071Y-53974975D01*
X121606480Y-53977854D01*
X121654605Y-53987426D01*
X121673648Y-53992196D01*
X121720603Y-54006440D01*
X121739080Y-54013051D01*
X121784413Y-54031828D01*
X121802161Y-54040223D01*
X121845434Y-54063354D01*
X121862262Y-54073440D01*
X121903061Y-54100700D01*
X121918830Y-54112395D01*
X121956759Y-54143523D01*
X121971300Y-54156703D01*
X122005997Y-54191400D01*
X122019177Y-54205941D01*
X122050305Y-54243870D01*
X122062000Y-54259639D01*
X122089260Y-54300438D01*
X122099346Y-54317266D01*
X122122477Y-54360539D01*
X122130872Y-54378287D01*
X122149649Y-54423620D01*
X122156260Y-54442097D01*
X122170504Y-54489052D01*
X122175274Y-54508095D01*
X122184846Y-54556220D01*
X122187725Y-54575629D01*
X122192535Y-54624460D01*
X122193498Y-54644066D01*
X122193498Y-54662488D01*
X122194100Y-54668600D01*
X122194100Y-55168600D01*
X122193498Y-55174712D01*
X122193498Y-55193134D01*
X122192535Y-55212740D01*
X122187725Y-55261571D01*
X122184846Y-55280980D01*
X122175274Y-55329105D01*
X122170504Y-55348148D01*
X122156260Y-55395103D01*
X122149649Y-55413580D01*
X122130872Y-55458913D01*
X122122477Y-55476661D01*
X122099346Y-55519934D01*
X122089260Y-55536762D01*
X122062000Y-55577561D01*
X122050305Y-55593330D01*
X122019177Y-55631259D01*
X122005997Y-55645800D01*
X121971300Y-55680497D01*
X121956759Y-55693677D01*
X121918830Y-55724805D01*
X121903061Y-55736500D01*
X121862262Y-55763760D01*
X121845434Y-55773846D01*
X121802161Y-55796977D01*
X121784413Y-55805372D01*
X121739080Y-55824149D01*
X121720603Y-55830760D01*
X121673648Y-55845004D01*
X121654605Y-55849774D01*
X121606480Y-55859346D01*
X121587071Y-55862225D01*
X121538240Y-55867035D01*
X121518634Y-55867998D01*
X121500212Y-55867998D01*
X121494100Y-55868600D01*
X120944100Y-55868600D01*
X120905082Y-55864757D01*
X120867563Y-55853376D01*
X120832986Y-55834894D01*
X120802679Y-55810021D01*
X120777806Y-55779714D01*
X120759324Y-55745137D01*
X120747943Y-55707618D01*
X120744100Y-55668600D01*
X120744100Y-54168600D01*
X120747943Y-54129582D01*
X120759324Y-54092063D01*
X120777806Y-54057486D01*
X120802679Y-54027179D01*
X120832986Y-54002306D01*
X120867563Y-53983824D01*
X120905082Y-53972443D01*
X120944100Y-53968600D01*
X121494100Y-53968600D01*
X121500212Y-53969202D01*
X121500212Y-53969202D01*
G37*
D15*
X118894100Y-54918600D03*
D11*
G36*
X119483118Y-53972443D02*
X119520637Y-53983824D01*
X119555214Y-54002306D01*
X119585521Y-54027179D01*
X119610394Y-54057486D01*
X119628876Y-54092063D01*
X119640257Y-54129582D01*
X119644100Y-54168600D01*
X119644100Y-54418600D01*
X119794100Y-54418600D01*
X119833118Y-54422443D01*
X119870637Y-54433824D01*
X119905214Y-54452306D01*
X119935521Y-54477179D01*
X119960394Y-54507486D01*
X119978876Y-54542063D01*
X119990257Y-54579582D01*
X119994100Y-54618600D01*
X119994100Y-55218600D01*
X119990257Y-55257618D01*
X119978876Y-55295137D01*
X119960394Y-55329714D01*
X119935521Y-55360021D01*
X119905214Y-55384894D01*
X119870637Y-55403376D01*
X119833118Y-55414757D01*
X119794100Y-55418600D01*
X119644100Y-55418600D01*
X119644100Y-55668600D01*
X119640257Y-55707618D01*
X119628876Y-55745137D01*
X119610394Y-55779714D01*
X119585521Y-55810021D01*
X119555214Y-55834894D01*
X119520637Y-55853376D01*
X119483118Y-55864757D01*
X119444100Y-55868600D01*
X118894100Y-55868600D01*
X118887988Y-55867998D01*
X118869566Y-55867998D01*
X118849960Y-55867035D01*
X118801129Y-55862225D01*
X118781720Y-55859346D01*
X118733595Y-55849774D01*
X118714552Y-55845004D01*
X118667597Y-55830760D01*
X118649120Y-55824149D01*
X118603787Y-55805372D01*
X118586039Y-55796977D01*
X118542766Y-55773846D01*
X118525938Y-55763760D01*
X118485139Y-55736500D01*
X118469370Y-55724805D01*
X118431441Y-55693677D01*
X118416900Y-55680497D01*
X118382203Y-55645800D01*
X118369023Y-55631259D01*
X118337895Y-55593330D01*
X118326200Y-55577561D01*
X118298940Y-55536762D01*
X118288854Y-55519934D01*
X118265723Y-55476661D01*
X118257328Y-55458913D01*
X118238551Y-55413580D01*
X118231940Y-55395103D01*
X118217696Y-55348148D01*
X118212926Y-55329105D01*
X118203354Y-55280980D01*
X118200475Y-55261571D01*
X118195665Y-55212740D01*
X118194702Y-55193134D01*
X118194702Y-55174712D01*
X118194100Y-55168600D01*
X118194100Y-54668600D01*
X118194702Y-54662488D01*
X118194702Y-54644066D01*
X118195665Y-54624460D01*
X118200475Y-54575629D01*
X118203354Y-54556220D01*
X118212926Y-54508095D01*
X118217696Y-54489052D01*
X118231940Y-54442097D01*
X118238551Y-54423620D01*
X118257328Y-54378287D01*
X118265723Y-54360539D01*
X118288854Y-54317266D01*
X118298940Y-54300438D01*
X118326200Y-54259639D01*
X118337895Y-54243870D01*
X118369023Y-54205941D01*
X118382203Y-54191400D01*
X118416900Y-54156703D01*
X118431441Y-54143523D01*
X118469370Y-54112395D01*
X118485139Y-54100700D01*
X118525938Y-54073440D01*
X118542766Y-54063354D01*
X118586039Y-54040223D01*
X118603787Y-54031828D01*
X118649120Y-54013051D01*
X118667597Y-54006440D01*
X118714552Y-53992196D01*
X118733595Y-53987426D01*
X118781720Y-53977854D01*
X118801129Y-53974975D01*
X118849960Y-53970165D01*
X118869566Y-53969202D01*
X118887988Y-53969202D01*
X118894100Y-53968600D01*
X119444100Y-53968600D01*
X119483118Y-53972443D01*
X119483118Y-53972443D01*
G37*
G04 #@! TD*
G04 #@! TO.C,C13*
G36*
X130424593Y-78883135D02*
X130455535Y-78887725D01*
X130485878Y-78895325D01*
X130515330Y-78905863D01*
X130543608Y-78919238D01*
X130570438Y-78935319D01*
X130595563Y-78953953D01*
X130618740Y-78974960D01*
X130639747Y-78998137D01*
X130658381Y-79023262D01*
X130674462Y-79050092D01*
X130687837Y-79078370D01*
X130698375Y-79107822D01*
X130705975Y-79138165D01*
X130710565Y-79169107D01*
X130712100Y-79200350D01*
X130712100Y-79912850D01*
X130710565Y-79944093D01*
X130705975Y-79975035D01*
X130698375Y-80005378D01*
X130687837Y-80034830D01*
X130674462Y-80063108D01*
X130658381Y-80089938D01*
X130639747Y-80115063D01*
X130618740Y-80138240D01*
X130595563Y-80159247D01*
X130570438Y-80177881D01*
X130543608Y-80193962D01*
X130515330Y-80207337D01*
X130485878Y-80217875D01*
X130455535Y-80225475D01*
X130424593Y-80230065D01*
X130393350Y-80231600D01*
X129755850Y-80231600D01*
X129724607Y-80230065D01*
X129693665Y-80225475D01*
X129663322Y-80217875D01*
X129633870Y-80207337D01*
X129605592Y-80193962D01*
X129578762Y-80177881D01*
X129553637Y-80159247D01*
X129530460Y-80138240D01*
X129509453Y-80115063D01*
X129490819Y-80089938D01*
X129474738Y-80063108D01*
X129461363Y-80034830D01*
X129450825Y-80005378D01*
X129443225Y-79975035D01*
X129438635Y-79944093D01*
X129437100Y-79912850D01*
X129437100Y-79200350D01*
X129438635Y-79169107D01*
X129443225Y-79138165D01*
X129450825Y-79107822D01*
X129461363Y-79078370D01*
X129474738Y-79050092D01*
X129490819Y-79023262D01*
X129509453Y-78998137D01*
X129530460Y-78974960D01*
X129553637Y-78953953D01*
X129578762Y-78935319D01*
X129605592Y-78919238D01*
X129633870Y-78905863D01*
X129663322Y-78895325D01*
X129693665Y-78887725D01*
X129724607Y-78883135D01*
X129755850Y-78881600D01*
X130393350Y-78881600D01*
X130424593Y-78883135D01*
X130424593Y-78883135D01*
G37*
D12*
X130074600Y-79556600D03*
D11*
G36*
X131999593Y-78883135D02*
X132030535Y-78887725D01*
X132060878Y-78895325D01*
X132090330Y-78905863D01*
X132118608Y-78919238D01*
X132145438Y-78935319D01*
X132170563Y-78953953D01*
X132193740Y-78974960D01*
X132214747Y-78998137D01*
X132233381Y-79023262D01*
X132249462Y-79050092D01*
X132262837Y-79078370D01*
X132273375Y-79107822D01*
X132280975Y-79138165D01*
X132285565Y-79169107D01*
X132287100Y-79200350D01*
X132287100Y-79912850D01*
X132285565Y-79944093D01*
X132280975Y-79975035D01*
X132273375Y-80005378D01*
X132262837Y-80034830D01*
X132249462Y-80063108D01*
X132233381Y-80089938D01*
X132214747Y-80115063D01*
X132193740Y-80138240D01*
X132170563Y-80159247D01*
X132145438Y-80177881D01*
X132118608Y-80193962D01*
X132090330Y-80207337D01*
X132060878Y-80217875D01*
X132030535Y-80225475D01*
X131999593Y-80230065D01*
X131968350Y-80231600D01*
X131330850Y-80231600D01*
X131299607Y-80230065D01*
X131268665Y-80225475D01*
X131238322Y-80217875D01*
X131208870Y-80207337D01*
X131180592Y-80193962D01*
X131153762Y-80177881D01*
X131128637Y-80159247D01*
X131105460Y-80138240D01*
X131084453Y-80115063D01*
X131065819Y-80089938D01*
X131049738Y-80063108D01*
X131036363Y-80034830D01*
X131025825Y-80005378D01*
X131018225Y-79975035D01*
X131013635Y-79944093D01*
X131012100Y-79912850D01*
X131012100Y-79200350D01*
X131013635Y-79169107D01*
X131018225Y-79138165D01*
X131025825Y-79107822D01*
X131036363Y-79078370D01*
X131049738Y-79050092D01*
X131065819Y-79023262D01*
X131084453Y-78998137D01*
X131105460Y-78974960D01*
X131128637Y-78953953D01*
X131153762Y-78935319D01*
X131180592Y-78919238D01*
X131208870Y-78905863D01*
X131238322Y-78895325D01*
X131268665Y-78887725D01*
X131299607Y-78883135D01*
X131330850Y-78881600D01*
X131968350Y-78881600D01*
X131999593Y-78883135D01*
X131999593Y-78883135D01*
G37*
D12*
X131649600Y-79556600D03*
G04 #@! TD*
D11*
G04 #@! TO.C,C12*
G36*
X138488593Y-70564135D02*
X138519535Y-70568725D01*
X138549878Y-70576325D01*
X138579330Y-70586863D01*
X138607608Y-70600238D01*
X138634438Y-70616319D01*
X138659563Y-70634953D01*
X138682740Y-70655960D01*
X138703747Y-70679137D01*
X138722381Y-70704262D01*
X138738462Y-70731092D01*
X138751837Y-70759370D01*
X138762375Y-70788822D01*
X138769975Y-70819165D01*
X138774565Y-70850107D01*
X138776100Y-70881350D01*
X138776100Y-71518850D01*
X138774565Y-71550093D01*
X138769975Y-71581035D01*
X138762375Y-71611378D01*
X138751837Y-71640830D01*
X138738462Y-71669108D01*
X138722381Y-71695938D01*
X138703747Y-71721063D01*
X138682740Y-71744240D01*
X138659563Y-71765247D01*
X138634438Y-71783881D01*
X138607608Y-71799962D01*
X138579330Y-71813337D01*
X138549878Y-71823875D01*
X138519535Y-71831475D01*
X138488593Y-71836065D01*
X138457350Y-71837600D01*
X137744850Y-71837600D01*
X137713607Y-71836065D01*
X137682665Y-71831475D01*
X137652322Y-71823875D01*
X137622870Y-71813337D01*
X137594592Y-71799962D01*
X137567762Y-71783881D01*
X137542637Y-71765247D01*
X137519460Y-71744240D01*
X137498453Y-71721063D01*
X137479819Y-71695938D01*
X137463738Y-71669108D01*
X137450363Y-71640830D01*
X137439825Y-71611378D01*
X137432225Y-71581035D01*
X137427635Y-71550093D01*
X137426100Y-71518850D01*
X137426100Y-70881350D01*
X137427635Y-70850107D01*
X137432225Y-70819165D01*
X137439825Y-70788822D01*
X137450363Y-70759370D01*
X137463738Y-70731092D01*
X137479819Y-70704262D01*
X137498453Y-70679137D01*
X137519460Y-70655960D01*
X137542637Y-70634953D01*
X137567762Y-70616319D01*
X137594592Y-70600238D01*
X137622870Y-70586863D01*
X137652322Y-70576325D01*
X137682665Y-70568725D01*
X137713607Y-70564135D01*
X137744850Y-70562600D01*
X138457350Y-70562600D01*
X138488593Y-70564135D01*
X138488593Y-70564135D01*
G37*
D12*
X138101100Y-71200100D03*
D11*
G36*
X138488593Y-68989135D02*
X138519535Y-68993725D01*
X138549878Y-69001325D01*
X138579330Y-69011863D01*
X138607608Y-69025238D01*
X138634438Y-69041319D01*
X138659563Y-69059953D01*
X138682740Y-69080960D01*
X138703747Y-69104137D01*
X138722381Y-69129262D01*
X138738462Y-69156092D01*
X138751837Y-69184370D01*
X138762375Y-69213822D01*
X138769975Y-69244165D01*
X138774565Y-69275107D01*
X138776100Y-69306350D01*
X138776100Y-69943850D01*
X138774565Y-69975093D01*
X138769975Y-70006035D01*
X138762375Y-70036378D01*
X138751837Y-70065830D01*
X138738462Y-70094108D01*
X138722381Y-70120938D01*
X138703747Y-70146063D01*
X138682740Y-70169240D01*
X138659563Y-70190247D01*
X138634438Y-70208881D01*
X138607608Y-70224962D01*
X138579330Y-70238337D01*
X138549878Y-70248875D01*
X138519535Y-70256475D01*
X138488593Y-70261065D01*
X138457350Y-70262600D01*
X137744850Y-70262600D01*
X137713607Y-70261065D01*
X137682665Y-70256475D01*
X137652322Y-70248875D01*
X137622870Y-70238337D01*
X137594592Y-70224962D01*
X137567762Y-70208881D01*
X137542637Y-70190247D01*
X137519460Y-70169240D01*
X137498453Y-70146063D01*
X137479819Y-70120938D01*
X137463738Y-70094108D01*
X137450363Y-70065830D01*
X137439825Y-70036378D01*
X137432225Y-70006035D01*
X137427635Y-69975093D01*
X137426100Y-69943850D01*
X137426100Y-69306350D01*
X137427635Y-69275107D01*
X137432225Y-69244165D01*
X137439825Y-69213822D01*
X137450363Y-69184370D01*
X137463738Y-69156092D01*
X137479819Y-69129262D01*
X137498453Y-69104137D01*
X137519460Y-69080960D01*
X137542637Y-69059953D01*
X137567762Y-69041319D01*
X137594592Y-69025238D01*
X137622870Y-69011863D01*
X137652322Y-69001325D01*
X137682665Y-68993725D01*
X137713607Y-68989135D01*
X137744850Y-68987600D01*
X138457350Y-68987600D01*
X138488593Y-68989135D01*
X138488593Y-68989135D01*
G37*
D12*
X138101100Y-69625100D03*
G04 #@! TD*
D11*
G04 #@! TO.C,C14*
G36*
X121788593Y-66818135D02*
X121819535Y-66822725D01*
X121849878Y-66830325D01*
X121879330Y-66840863D01*
X121907608Y-66854238D01*
X121934438Y-66870319D01*
X121959563Y-66888953D01*
X121982740Y-66909960D01*
X122003747Y-66933137D01*
X122022381Y-66958262D01*
X122038462Y-66985092D01*
X122051837Y-67013370D01*
X122062375Y-67042822D01*
X122069975Y-67073165D01*
X122074565Y-67104107D01*
X122076100Y-67135350D01*
X122076100Y-67847850D01*
X122074565Y-67879093D01*
X122069975Y-67910035D01*
X122062375Y-67940378D01*
X122051837Y-67969830D01*
X122038462Y-67998108D01*
X122022381Y-68024938D01*
X122003747Y-68050063D01*
X121982740Y-68073240D01*
X121959563Y-68094247D01*
X121934438Y-68112881D01*
X121907608Y-68128962D01*
X121879330Y-68142337D01*
X121849878Y-68152875D01*
X121819535Y-68160475D01*
X121788593Y-68165065D01*
X121757350Y-68166600D01*
X121119850Y-68166600D01*
X121088607Y-68165065D01*
X121057665Y-68160475D01*
X121027322Y-68152875D01*
X120997870Y-68142337D01*
X120969592Y-68128962D01*
X120942762Y-68112881D01*
X120917637Y-68094247D01*
X120894460Y-68073240D01*
X120873453Y-68050063D01*
X120854819Y-68024938D01*
X120838738Y-67998108D01*
X120825363Y-67969830D01*
X120814825Y-67940378D01*
X120807225Y-67910035D01*
X120802635Y-67879093D01*
X120801100Y-67847850D01*
X120801100Y-67135350D01*
X120802635Y-67104107D01*
X120807225Y-67073165D01*
X120814825Y-67042822D01*
X120825363Y-67013370D01*
X120838738Y-66985092D01*
X120854819Y-66958262D01*
X120873453Y-66933137D01*
X120894460Y-66909960D01*
X120917637Y-66888953D01*
X120942762Y-66870319D01*
X120969592Y-66854238D01*
X120997870Y-66840863D01*
X121027322Y-66830325D01*
X121057665Y-66822725D01*
X121088607Y-66818135D01*
X121119850Y-66816600D01*
X121757350Y-66816600D01*
X121788593Y-66818135D01*
X121788593Y-66818135D01*
G37*
D12*
X121438600Y-67491600D03*
D11*
G36*
X123363593Y-66818135D02*
X123394535Y-66822725D01*
X123424878Y-66830325D01*
X123454330Y-66840863D01*
X123482608Y-66854238D01*
X123509438Y-66870319D01*
X123534563Y-66888953D01*
X123557740Y-66909960D01*
X123578747Y-66933137D01*
X123597381Y-66958262D01*
X123613462Y-66985092D01*
X123626837Y-67013370D01*
X123637375Y-67042822D01*
X123644975Y-67073165D01*
X123649565Y-67104107D01*
X123651100Y-67135350D01*
X123651100Y-67847850D01*
X123649565Y-67879093D01*
X123644975Y-67910035D01*
X123637375Y-67940378D01*
X123626837Y-67969830D01*
X123613462Y-67998108D01*
X123597381Y-68024938D01*
X123578747Y-68050063D01*
X123557740Y-68073240D01*
X123534563Y-68094247D01*
X123509438Y-68112881D01*
X123482608Y-68128962D01*
X123454330Y-68142337D01*
X123424878Y-68152875D01*
X123394535Y-68160475D01*
X123363593Y-68165065D01*
X123332350Y-68166600D01*
X122694850Y-68166600D01*
X122663607Y-68165065D01*
X122632665Y-68160475D01*
X122602322Y-68152875D01*
X122572870Y-68142337D01*
X122544592Y-68128962D01*
X122517762Y-68112881D01*
X122492637Y-68094247D01*
X122469460Y-68073240D01*
X122448453Y-68050063D01*
X122429819Y-68024938D01*
X122413738Y-67998108D01*
X122400363Y-67969830D01*
X122389825Y-67940378D01*
X122382225Y-67910035D01*
X122377635Y-67879093D01*
X122376100Y-67847850D01*
X122376100Y-67135350D01*
X122377635Y-67104107D01*
X122382225Y-67073165D01*
X122389825Y-67042822D01*
X122400363Y-67013370D01*
X122413738Y-66985092D01*
X122429819Y-66958262D01*
X122448453Y-66933137D01*
X122469460Y-66909960D01*
X122492637Y-66888953D01*
X122517762Y-66870319D01*
X122544592Y-66854238D01*
X122572870Y-66840863D01*
X122602322Y-66830325D01*
X122632665Y-66822725D01*
X122663607Y-66818135D01*
X122694850Y-66816600D01*
X123332350Y-66816600D01*
X123363593Y-66818135D01*
X123363593Y-66818135D01*
G37*
D12*
X123013600Y-67491600D03*
G04 #@! TD*
D11*
G04 #@! TO.C,C11*
G36*
X133142593Y-76470135D02*
X133173535Y-76474725D01*
X133203878Y-76482325D01*
X133233330Y-76492863D01*
X133261608Y-76506238D01*
X133288438Y-76522319D01*
X133313563Y-76540953D01*
X133336740Y-76561960D01*
X133357747Y-76585137D01*
X133376381Y-76610262D01*
X133392462Y-76637092D01*
X133405837Y-76665370D01*
X133416375Y-76694822D01*
X133423975Y-76725165D01*
X133428565Y-76756107D01*
X133430100Y-76787350D01*
X133430100Y-77499850D01*
X133428565Y-77531093D01*
X133423975Y-77562035D01*
X133416375Y-77592378D01*
X133405837Y-77621830D01*
X133392462Y-77650108D01*
X133376381Y-77676938D01*
X133357747Y-77702063D01*
X133336740Y-77725240D01*
X133313563Y-77746247D01*
X133288438Y-77764881D01*
X133261608Y-77780962D01*
X133233330Y-77794337D01*
X133203878Y-77804875D01*
X133173535Y-77812475D01*
X133142593Y-77817065D01*
X133111350Y-77818600D01*
X132473850Y-77818600D01*
X132442607Y-77817065D01*
X132411665Y-77812475D01*
X132381322Y-77804875D01*
X132351870Y-77794337D01*
X132323592Y-77780962D01*
X132296762Y-77764881D01*
X132271637Y-77746247D01*
X132248460Y-77725240D01*
X132227453Y-77702063D01*
X132208819Y-77676938D01*
X132192738Y-77650108D01*
X132179363Y-77621830D01*
X132168825Y-77592378D01*
X132161225Y-77562035D01*
X132156635Y-77531093D01*
X132155100Y-77499850D01*
X132155100Y-76787350D01*
X132156635Y-76756107D01*
X132161225Y-76725165D01*
X132168825Y-76694822D01*
X132179363Y-76665370D01*
X132192738Y-76637092D01*
X132208819Y-76610262D01*
X132227453Y-76585137D01*
X132248460Y-76561960D01*
X132271637Y-76540953D01*
X132296762Y-76522319D01*
X132323592Y-76506238D01*
X132351870Y-76492863D01*
X132381322Y-76482325D01*
X132411665Y-76474725D01*
X132442607Y-76470135D01*
X132473850Y-76468600D01*
X133111350Y-76468600D01*
X133142593Y-76470135D01*
X133142593Y-76470135D01*
G37*
D12*
X132792600Y-77143600D03*
D11*
G36*
X131567593Y-76470135D02*
X131598535Y-76474725D01*
X131628878Y-76482325D01*
X131658330Y-76492863D01*
X131686608Y-76506238D01*
X131713438Y-76522319D01*
X131738563Y-76540953D01*
X131761740Y-76561960D01*
X131782747Y-76585137D01*
X131801381Y-76610262D01*
X131817462Y-76637092D01*
X131830837Y-76665370D01*
X131841375Y-76694822D01*
X131848975Y-76725165D01*
X131853565Y-76756107D01*
X131855100Y-76787350D01*
X131855100Y-77499850D01*
X131853565Y-77531093D01*
X131848975Y-77562035D01*
X131841375Y-77592378D01*
X131830837Y-77621830D01*
X131817462Y-77650108D01*
X131801381Y-77676938D01*
X131782747Y-77702063D01*
X131761740Y-77725240D01*
X131738563Y-77746247D01*
X131713438Y-77764881D01*
X131686608Y-77780962D01*
X131658330Y-77794337D01*
X131628878Y-77804875D01*
X131598535Y-77812475D01*
X131567593Y-77817065D01*
X131536350Y-77818600D01*
X130898850Y-77818600D01*
X130867607Y-77817065D01*
X130836665Y-77812475D01*
X130806322Y-77804875D01*
X130776870Y-77794337D01*
X130748592Y-77780962D01*
X130721762Y-77764881D01*
X130696637Y-77746247D01*
X130673460Y-77725240D01*
X130652453Y-77702063D01*
X130633819Y-77676938D01*
X130617738Y-77650108D01*
X130604363Y-77621830D01*
X130593825Y-77592378D01*
X130586225Y-77562035D01*
X130581635Y-77531093D01*
X130580100Y-77499850D01*
X130580100Y-76787350D01*
X130581635Y-76756107D01*
X130586225Y-76725165D01*
X130593825Y-76694822D01*
X130604363Y-76665370D01*
X130617738Y-76637092D01*
X130633819Y-76610262D01*
X130652453Y-76585137D01*
X130673460Y-76561960D01*
X130696637Y-76540953D01*
X130721762Y-76522319D01*
X130748592Y-76506238D01*
X130776870Y-76492863D01*
X130806322Y-76482325D01*
X130836665Y-76474725D01*
X130867607Y-76470135D01*
X130898850Y-76468600D01*
X131536350Y-76468600D01*
X131567593Y-76470135D01*
X131567593Y-76470135D01*
G37*
D12*
X131217600Y-77143600D03*
G04 #@! TD*
D19*
G04 #@! TO.C,X4*
X150001100Y-48203600D03*
X148001100Y-45803600D03*
X146001100Y-48203600D03*
X144001100Y-45803600D03*
X142001100Y-48203600D03*
X140001100Y-45803600D03*
X138001100Y-48203600D03*
X136001100Y-45803600D03*
X134001100Y-48203600D03*
X132001100Y-45803600D03*
X130001100Y-48203600D03*
X128001100Y-45803600D03*
X126001100Y-48003600D03*
X124001100Y-45803600D03*
X122001100Y-48203600D03*
X120001100Y-45803600D03*
X118001100Y-48203600D03*
X116001100Y-45803600D03*
X114001100Y-48203600D03*
X112001100Y-45803600D03*
D20*
X159601100Y-98003600D03*
X102401100Y-98003600D03*
X159601100Y-47003600D03*
X102401100Y-47003600D03*
G04 #@! TD*
D21*
G04 #@! TO.C,X4A1*
X150001100Y-47003600D03*
X148001100Y-47003600D03*
X146001100Y-47003600D03*
X144001100Y-47003600D03*
X142001100Y-47003600D03*
X140001100Y-47003600D03*
X138001100Y-47003600D03*
X136001100Y-47003600D03*
X134001100Y-47003600D03*
X132001100Y-47003600D03*
X130001100Y-47003600D03*
X128001100Y-47003600D03*
X126001100Y-47003600D03*
X124001100Y-47003600D03*
X122001100Y-47003600D03*
X120001100Y-47003600D03*
X118001100Y-47003600D03*
X116001100Y-47003600D03*
X114001100Y-47003600D03*
D22*
X112001100Y-47003600D03*
G04 #@! TD*
D13*
G04 #@! TO.C,X4B1*
X155881100Y-51743600D03*
X153341100Y-51743600D03*
X150801100Y-51743600D03*
X148261100Y-51743600D03*
X145721100Y-51743600D03*
X143181100Y-51743600D03*
X140641100Y-51743600D03*
X138101100Y-51743600D03*
X135561100Y-51743600D03*
X133021100Y-51743600D03*
X130481100Y-51743600D03*
X127941100Y-51743600D03*
X125401100Y-51743600D03*
X122861100Y-51743600D03*
X120321100Y-51743600D03*
X117781100Y-51743600D03*
X115241100Y-51743600D03*
X112701100Y-51743600D03*
X110161100Y-51743600D03*
D14*
X107621100Y-51743600D03*
G04 #@! TD*
D11*
G04 #@! TO.C,LED3*
G36*
X105456593Y-90440135D02*
X105487535Y-90444725D01*
X105517878Y-90452325D01*
X105547330Y-90462863D01*
X105575608Y-90476238D01*
X105602438Y-90492319D01*
X105627563Y-90510953D01*
X105650740Y-90531960D01*
X105671747Y-90555137D01*
X105690381Y-90580262D01*
X105706462Y-90607092D01*
X105719837Y-90635370D01*
X105730375Y-90664822D01*
X105737975Y-90695165D01*
X105742565Y-90726107D01*
X105744100Y-90757350D01*
X105744100Y-91469850D01*
X105742565Y-91501093D01*
X105737975Y-91532035D01*
X105730375Y-91562378D01*
X105719837Y-91591830D01*
X105706462Y-91620108D01*
X105690381Y-91646938D01*
X105671747Y-91672063D01*
X105650740Y-91695240D01*
X105627563Y-91716247D01*
X105602438Y-91734881D01*
X105575608Y-91750962D01*
X105547330Y-91764337D01*
X105517878Y-91774875D01*
X105487535Y-91782475D01*
X105456593Y-91787065D01*
X105425350Y-91788600D01*
X104787850Y-91788600D01*
X104756607Y-91787065D01*
X104725665Y-91782475D01*
X104695322Y-91774875D01*
X104665870Y-91764337D01*
X104637592Y-91750962D01*
X104610762Y-91734881D01*
X104585637Y-91716247D01*
X104562460Y-91695240D01*
X104541453Y-91672063D01*
X104522819Y-91646938D01*
X104506738Y-91620108D01*
X104493363Y-91591830D01*
X104482825Y-91562378D01*
X104475225Y-91532035D01*
X104470635Y-91501093D01*
X104469100Y-91469850D01*
X104469100Y-90757350D01*
X104470635Y-90726107D01*
X104475225Y-90695165D01*
X104482825Y-90664822D01*
X104493363Y-90635370D01*
X104506738Y-90607092D01*
X104522819Y-90580262D01*
X104541453Y-90555137D01*
X104562460Y-90531960D01*
X104585637Y-90510953D01*
X104610762Y-90492319D01*
X104637592Y-90476238D01*
X104665870Y-90462863D01*
X104695322Y-90452325D01*
X104725665Y-90444725D01*
X104756607Y-90440135D01*
X104787850Y-90438600D01*
X105425350Y-90438600D01*
X105456593Y-90440135D01*
X105456593Y-90440135D01*
G37*
D12*
X105106600Y-91113600D03*
D11*
G36*
X103881593Y-90440135D02*
X103912535Y-90444725D01*
X103942878Y-90452325D01*
X103972330Y-90462863D01*
X104000608Y-90476238D01*
X104027438Y-90492319D01*
X104052563Y-90510953D01*
X104075740Y-90531960D01*
X104096747Y-90555137D01*
X104115381Y-90580262D01*
X104131462Y-90607092D01*
X104144837Y-90635370D01*
X104155375Y-90664822D01*
X104162975Y-90695165D01*
X104167565Y-90726107D01*
X104169100Y-90757350D01*
X104169100Y-91469850D01*
X104167565Y-91501093D01*
X104162975Y-91532035D01*
X104155375Y-91562378D01*
X104144837Y-91591830D01*
X104131462Y-91620108D01*
X104115381Y-91646938D01*
X104096747Y-91672063D01*
X104075740Y-91695240D01*
X104052563Y-91716247D01*
X104027438Y-91734881D01*
X104000608Y-91750962D01*
X103972330Y-91764337D01*
X103942878Y-91774875D01*
X103912535Y-91782475D01*
X103881593Y-91787065D01*
X103850350Y-91788600D01*
X103212850Y-91788600D01*
X103181607Y-91787065D01*
X103150665Y-91782475D01*
X103120322Y-91774875D01*
X103090870Y-91764337D01*
X103062592Y-91750962D01*
X103035762Y-91734881D01*
X103010637Y-91716247D01*
X102987460Y-91695240D01*
X102966453Y-91672063D01*
X102947819Y-91646938D01*
X102931738Y-91620108D01*
X102918363Y-91591830D01*
X102907825Y-91562378D01*
X102900225Y-91532035D01*
X102895635Y-91501093D01*
X102894100Y-91469850D01*
X102894100Y-90757350D01*
X102895635Y-90726107D01*
X102900225Y-90695165D01*
X102907825Y-90664822D01*
X102918363Y-90635370D01*
X102931738Y-90607092D01*
X102947819Y-90580262D01*
X102966453Y-90555137D01*
X102987460Y-90531960D01*
X103010637Y-90510953D01*
X103035762Y-90492319D01*
X103062592Y-90476238D01*
X103090870Y-90462863D01*
X103120322Y-90452325D01*
X103150665Y-90444725D01*
X103181607Y-90440135D01*
X103212850Y-90438600D01*
X103850350Y-90438600D01*
X103881593Y-90440135D01*
X103881593Y-90440135D01*
G37*
D12*
X103531600Y-91113600D03*
G04 #@! TD*
D11*
G04 #@! TO.C,R6*
G36*
X108453593Y-90440135D02*
X108484535Y-90444725D01*
X108514878Y-90452325D01*
X108544330Y-90462863D01*
X108572608Y-90476238D01*
X108599438Y-90492319D01*
X108624563Y-90510953D01*
X108647740Y-90531960D01*
X108668747Y-90555137D01*
X108687381Y-90580262D01*
X108703462Y-90607092D01*
X108716837Y-90635370D01*
X108727375Y-90664822D01*
X108734975Y-90695165D01*
X108739565Y-90726107D01*
X108741100Y-90757350D01*
X108741100Y-91469850D01*
X108739565Y-91501093D01*
X108734975Y-91532035D01*
X108727375Y-91562378D01*
X108716837Y-91591830D01*
X108703462Y-91620108D01*
X108687381Y-91646938D01*
X108668747Y-91672063D01*
X108647740Y-91695240D01*
X108624563Y-91716247D01*
X108599438Y-91734881D01*
X108572608Y-91750962D01*
X108544330Y-91764337D01*
X108514878Y-91774875D01*
X108484535Y-91782475D01*
X108453593Y-91787065D01*
X108422350Y-91788600D01*
X107784850Y-91788600D01*
X107753607Y-91787065D01*
X107722665Y-91782475D01*
X107692322Y-91774875D01*
X107662870Y-91764337D01*
X107634592Y-91750962D01*
X107607762Y-91734881D01*
X107582637Y-91716247D01*
X107559460Y-91695240D01*
X107538453Y-91672063D01*
X107519819Y-91646938D01*
X107503738Y-91620108D01*
X107490363Y-91591830D01*
X107479825Y-91562378D01*
X107472225Y-91532035D01*
X107467635Y-91501093D01*
X107466100Y-91469850D01*
X107466100Y-90757350D01*
X107467635Y-90726107D01*
X107472225Y-90695165D01*
X107479825Y-90664822D01*
X107490363Y-90635370D01*
X107503738Y-90607092D01*
X107519819Y-90580262D01*
X107538453Y-90555137D01*
X107559460Y-90531960D01*
X107582637Y-90510953D01*
X107607762Y-90492319D01*
X107634592Y-90476238D01*
X107662870Y-90462863D01*
X107692322Y-90452325D01*
X107722665Y-90444725D01*
X107753607Y-90440135D01*
X107784850Y-90438600D01*
X108422350Y-90438600D01*
X108453593Y-90440135D01*
X108453593Y-90440135D01*
G37*
D12*
X108103600Y-91113600D03*
D11*
G36*
X110028593Y-90440135D02*
X110059535Y-90444725D01*
X110089878Y-90452325D01*
X110119330Y-90462863D01*
X110147608Y-90476238D01*
X110174438Y-90492319D01*
X110199563Y-90510953D01*
X110222740Y-90531960D01*
X110243747Y-90555137D01*
X110262381Y-90580262D01*
X110278462Y-90607092D01*
X110291837Y-90635370D01*
X110302375Y-90664822D01*
X110309975Y-90695165D01*
X110314565Y-90726107D01*
X110316100Y-90757350D01*
X110316100Y-91469850D01*
X110314565Y-91501093D01*
X110309975Y-91532035D01*
X110302375Y-91562378D01*
X110291837Y-91591830D01*
X110278462Y-91620108D01*
X110262381Y-91646938D01*
X110243747Y-91672063D01*
X110222740Y-91695240D01*
X110199563Y-91716247D01*
X110174438Y-91734881D01*
X110147608Y-91750962D01*
X110119330Y-91764337D01*
X110089878Y-91774875D01*
X110059535Y-91782475D01*
X110028593Y-91787065D01*
X109997350Y-91788600D01*
X109359850Y-91788600D01*
X109328607Y-91787065D01*
X109297665Y-91782475D01*
X109267322Y-91774875D01*
X109237870Y-91764337D01*
X109209592Y-91750962D01*
X109182762Y-91734881D01*
X109157637Y-91716247D01*
X109134460Y-91695240D01*
X109113453Y-91672063D01*
X109094819Y-91646938D01*
X109078738Y-91620108D01*
X109065363Y-91591830D01*
X109054825Y-91562378D01*
X109047225Y-91532035D01*
X109042635Y-91501093D01*
X109041100Y-91469850D01*
X109041100Y-90757350D01*
X109042635Y-90726107D01*
X109047225Y-90695165D01*
X109054825Y-90664822D01*
X109065363Y-90635370D01*
X109078738Y-90607092D01*
X109094819Y-90580262D01*
X109113453Y-90555137D01*
X109134460Y-90531960D01*
X109157637Y-90510953D01*
X109182762Y-90492319D01*
X109209592Y-90476238D01*
X109237870Y-90462863D01*
X109267322Y-90452325D01*
X109297665Y-90444725D01*
X109328607Y-90440135D01*
X109359850Y-90438600D01*
X109997350Y-90438600D01*
X110028593Y-90440135D01*
X110028593Y-90440135D01*
G37*
D12*
X109678600Y-91113600D03*
G04 #@! TD*
D15*
G04 #@! TO.C,JP2*
X126051100Y-94923600D03*
D11*
G36*
X126057212Y-93974202D02*
X126075634Y-93974202D01*
X126095240Y-93975165D01*
X126144071Y-93979975D01*
X126163480Y-93982854D01*
X126211605Y-93992426D01*
X126230648Y-93997196D01*
X126277603Y-94011440D01*
X126296080Y-94018051D01*
X126341413Y-94036828D01*
X126359161Y-94045223D01*
X126402434Y-94068354D01*
X126419262Y-94078440D01*
X126460061Y-94105700D01*
X126475830Y-94117395D01*
X126513759Y-94148523D01*
X126528300Y-94161703D01*
X126562997Y-94196400D01*
X126576177Y-94210941D01*
X126607305Y-94248870D01*
X126619000Y-94264639D01*
X126646260Y-94305438D01*
X126656346Y-94322266D01*
X126679477Y-94365539D01*
X126687872Y-94383287D01*
X126706649Y-94428620D01*
X126713260Y-94447097D01*
X126727504Y-94494052D01*
X126732274Y-94513095D01*
X126741846Y-94561220D01*
X126744725Y-94580629D01*
X126749535Y-94629460D01*
X126750498Y-94649066D01*
X126750498Y-94667488D01*
X126751100Y-94673600D01*
X126751100Y-95173600D01*
X126750498Y-95179712D01*
X126750498Y-95198134D01*
X126749535Y-95217740D01*
X126744725Y-95266571D01*
X126741846Y-95285980D01*
X126732274Y-95334105D01*
X126727504Y-95353148D01*
X126713260Y-95400103D01*
X126706649Y-95418580D01*
X126687872Y-95463913D01*
X126679477Y-95481661D01*
X126656346Y-95524934D01*
X126646260Y-95541762D01*
X126619000Y-95582561D01*
X126607305Y-95598330D01*
X126576177Y-95636259D01*
X126562997Y-95650800D01*
X126528300Y-95685497D01*
X126513759Y-95698677D01*
X126475830Y-95729805D01*
X126460061Y-95741500D01*
X126419262Y-95768760D01*
X126402434Y-95778846D01*
X126359161Y-95801977D01*
X126341413Y-95810372D01*
X126296080Y-95829149D01*
X126277603Y-95835760D01*
X126230648Y-95850004D01*
X126211605Y-95854774D01*
X126163480Y-95864346D01*
X126144071Y-95867225D01*
X126095240Y-95872035D01*
X126075634Y-95872998D01*
X126057212Y-95872998D01*
X126051100Y-95873600D01*
X125551100Y-95873600D01*
X125512082Y-95869757D01*
X125474563Y-95858376D01*
X125439986Y-95839894D01*
X125409679Y-95815021D01*
X125384806Y-95784714D01*
X125366324Y-95750137D01*
X125354943Y-95712618D01*
X125351100Y-95673600D01*
X125351100Y-94173600D01*
X125354943Y-94134582D01*
X125366324Y-94097063D01*
X125384806Y-94062486D01*
X125409679Y-94032179D01*
X125439986Y-94007306D01*
X125474563Y-93988824D01*
X125512082Y-93977443D01*
X125551100Y-93973600D01*
X126051100Y-93973600D01*
X126057212Y-93974202D01*
X126057212Y-93974202D01*
G37*
D15*
X124751100Y-94923600D03*
D11*
G36*
X125290118Y-93977443D02*
X125327637Y-93988824D01*
X125362214Y-94007306D01*
X125392521Y-94032179D01*
X125417394Y-94062486D01*
X125435876Y-94097063D01*
X125447257Y-94134582D01*
X125451100Y-94173600D01*
X125451100Y-95673600D01*
X125447257Y-95712618D01*
X125435876Y-95750137D01*
X125417394Y-95784714D01*
X125392521Y-95815021D01*
X125362214Y-95839894D01*
X125327637Y-95858376D01*
X125290118Y-95869757D01*
X125251100Y-95873600D01*
X124751100Y-95873600D01*
X124744988Y-95872998D01*
X124726566Y-95872998D01*
X124706960Y-95872035D01*
X124658129Y-95867225D01*
X124638720Y-95864346D01*
X124590595Y-95854774D01*
X124571552Y-95850004D01*
X124524597Y-95835760D01*
X124506120Y-95829149D01*
X124460787Y-95810372D01*
X124443039Y-95801977D01*
X124399766Y-95778846D01*
X124382938Y-95768760D01*
X124342139Y-95741500D01*
X124326370Y-95729805D01*
X124288441Y-95698677D01*
X124273900Y-95685497D01*
X124239203Y-95650800D01*
X124226023Y-95636259D01*
X124194895Y-95598330D01*
X124183200Y-95582561D01*
X124155940Y-95541762D01*
X124145854Y-95524934D01*
X124122723Y-95481661D01*
X124114328Y-95463913D01*
X124095551Y-95418580D01*
X124088940Y-95400103D01*
X124074696Y-95353148D01*
X124069926Y-95334105D01*
X124060354Y-95285980D01*
X124057475Y-95266571D01*
X124052665Y-95217740D01*
X124051702Y-95198134D01*
X124051702Y-95179712D01*
X124051100Y-95173600D01*
X124051100Y-94673600D01*
X124051702Y-94667488D01*
X124051702Y-94649066D01*
X124052665Y-94629460D01*
X124057475Y-94580629D01*
X124060354Y-94561220D01*
X124069926Y-94513095D01*
X124074696Y-94494052D01*
X124088940Y-94447097D01*
X124095551Y-94428620D01*
X124114328Y-94383287D01*
X124122723Y-94365539D01*
X124145854Y-94322266D01*
X124155940Y-94305438D01*
X124183200Y-94264639D01*
X124194895Y-94248870D01*
X124226023Y-94210941D01*
X124239203Y-94196400D01*
X124273900Y-94161703D01*
X124288441Y-94148523D01*
X124326370Y-94117395D01*
X124342139Y-94105700D01*
X124382938Y-94078440D01*
X124399766Y-94068354D01*
X124443039Y-94045223D01*
X124460787Y-94036828D01*
X124506120Y-94018051D01*
X124524597Y-94011440D01*
X124571552Y-93997196D01*
X124590595Y-93992426D01*
X124638720Y-93982854D01*
X124658129Y-93979975D01*
X124706960Y-93975165D01*
X124726566Y-93974202D01*
X124744988Y-93974202D01*
X124751100Y-93973600D01*
X125251100Y-93973600D01*
X125290118Y-93977443D01*
X125290118Y-93977443D01*
G37*
G04 #@! TD*
D23*
G04 #@! TO.C,R2*
X157405100Y-62411600D03*
D24*
X159905100Y-59911600D03*
X154905100Y-62411600D03*
X159905100Y-64911600D03*
G04 #@! TD*
D11*
G04 #@! TO.C,R3*
G36*
X154118446Y-53965189D02*
X154150480Y-53969941D01*
X154181894Y-53977810D01*
X154212386Y-53988720D01*
X154241661Y-54002566D01*
X154269438Y-54019215D01*
X154295450Y-54038507D01*
X154319445Y-54060255D01*
X154341193Y-54084250D01*
X154360485Y-54110262D01*
X154377134Y-54138039D01*
X154390980Y-54167314D01*
X154401890Y-54197806D01*
X154409759Y-54229220D01*
X154414511Y-54261254D01*
X154416100Y-54293600D01*
X154416100Y-55283600D01*
X154414511Y-55315946D01*
X154409759Y-55347980D01*
X154401890Y-55379394D01*
X154390980Y-55409886D01*
X154377134Y-55439161D01*
X154360485Y-55466938D01*
X154341193Y-55492950D01*
X154319445Y-55516945D01*
X154295450Y-55538693D01*
X154269438Y-55557985D01*
X154241661Y-55574634D01*
X154212386Y-55588480D01*
X154181894Y-55599390D01*
X154150480Y-55607259D01*
X154118446Y-55612011D01*
X154086100Y-55613600D01*
X152596100Y-55613600D01*
X152563754Y-55612011D01*
X152531720Y-55607259D01*
X152500306Y-55599390D01*
X152469814Y-55588480D01*
X152440539Y-55574634D01*
X152412762Y-55557985D01*
X152386750Y-55538693D01*
X152362755Y-55516945D01*
X152341007Y-55492950D01*
X152321715Y-55466938D01*
X152305066Y-55439161D01*
X152291220Y-55409886D01*
X152280310Y-55379394D01*
X152272441Y-55347980D01*
X152267689Y-55315946D01*
X152266100Y-55283600D01*
X152266100Y-54293600D01*
X152267689Y-54261254D01*
X152272441Y-54229220D01*
X152280310Y-54197806D01*
X152291220Y-54167314D01*
X152305066Y-54138039D01*
X152321715Y-54110262D01*
X152341007Y-54084250D01*
X152362755Y-54060255D01*
X152386750Y-54038507D01*
X152412762Y-54019215D01*
X152440539Y-54002566D01*
X152469814Y-53988720D01*
X152500306Y-53977810D01*
X152531720Y-53969941D01*
X152563754Y-53965189D01*
X152596100Y-53963600D01*
X154086100Y-53963600D01*
X154118446Y-53965189D01*
X154118446Y-53965189D01*
G37*
D25*
X153341100Y-54788600D03*
D11*
G36*
X154118446Y-56765189D02*
X154150480Y-56769941D01*
X154181894Y-56777810D01*
X154212386Y-56788720D01*
X154241661Y-56802566D01*
X154269438Y-56819215D01*
X154295450Y-56838507D01*
X154319445Y-56860255D01*
X154341193Y-56884250D01*
X154360485Y-56910262D01*
X154377134Y-56938039D01*
X154390980Y-56967314D01*
X154401890Y-56997806D01*
X154409759Y-57029220D01*
X154414511Y-57061254D01*
X154416100Y-57093600D01*
X154416100Y-58083600D01*
X154414511Y-58115946D01*
X154409759Y-58147980D01*
X154401890Y-58179394D01*
X154390980Y-58209886D01*
X154377134Y-58239161D01*
X154360485Y-58266938D01*
X154341193Y-58292950D01*
X154319445Y-58316945D01*
X154295450Y-58338693D01*
X154269438Y-58357985D01*
X154241661Y-58374634D01*
X154212386Y-58388480D01*
X154181894Y-58399390D01*
X154150480Y-58407259D01*
X154118446Y-58412011D01*
X154086100Y-58413600D01*
X152596100Y-58413600D01*
X152563754Y-58412011D01*
X152531720Y-58407259D01*
X152500306Y-58399390D01*
X152469814Y-58388480D01*
X152440539Y-58374634D01*
X152412762Y-58357985D01*
X152386750Y-58338693D01*
X152362755Y-58316945D01*
X152341007Y-58292950D01*
X152321715Y-58266938D01*
X152305066Y-58239161D01*
X152291220Y-58209886D01*
X152280310Y-58179394D01*
X152272441Y-58147980D01*
X152267689Y-58115946D01*
X152266100Y-58083600D01*
X152266100Y-57093600D01*
X152267689Y-57061254D01*
X152272441Y-57029220D01*
X152280310Y-56997806D01*
X152291220Y-56967314D01*
X152305066Y-56938039D01*
X152321715Y-56910262D01*
X152341007Y-56884250D01*
X152362755Y-56860255D01*
X152386750Y-56838507D01*
X152412762Y-56819215D01*
X152440539Y-56802566D01*
X152469814Y-56788720D01*
X152500306Y-56777810D01*
X152531720Y-56769941D01*
X152563754Y-56765189D01*
X152596100Y-56763600D01*
X154086100Y-56763600D01*
X154118446Y-56765189D01*
X154118446Y-56765189D01*
G37*
D25*
X153341100Y-57588600D03*
G04 #@! TD*
D11*
G04 #@! TO.C,C9*
G36*
X151315593Y-60658135D02*
X151346535Y-60662725D01*
X151376878Y-60670325D01*
X151406330Y-60680863D01*
X151434608Y-60694238D01*
X151461438Y-60710319D01*
X151486563Y-60728953D01*
X151509740Y-60749960D01*
X151530747Y-60773137D01*
X151549381Y-60798262D01*
X151565462Y-60825092D01*
X151578837Y-60853370D01*
X151589375Y-60882822D01*
X151596975Y-60913165D01*
X151601565Y-60944107D01*
X151603100Y-60975350D01*
X151603100Y-61612850D01*
X151601565Y-61644093D01*
X151596975Y-61675035D01*
X151589375Y-61705378D01*
X151578837Y-61734830D01*
X151565462Y-61763108D01*
X151549381Y-61789938D01*
X151530747Y-61815063D01*
X151509740Y-61838240D01*
X151486563Y-61859247D01*
X151461438Y-61877881D01*
X151434608Y-61893962D01*
X151406330Y-61907337D01*
X151376878Y-61917875D01*
X151346535Y-61925475D01*
X151315593Y-61930065D01*
X151284350Y-61931600D01*
X150571850Y-61931600D01*
X150540607Y-61930065D01*
X150509665Y-61925475D01*
X150479322Y-61917875D01*
X150449870Y-61907337D01*
X150421592Y-61893962D01*
X150394762Y-61877881D01*
X150369637Y-61859247D01*
X150346460Y-61838240D01*
X150325453Y-61815063D01*
X150306819Y-61789938D01*
X150290738Y-61763108D01*
X150277363Y-61734830D01*
X150266825Y-61705378D01*
X150259225Y-61675035D01*
X150254635Y-61644093D01*
X150253100Y-61612850D01*
X150253100Y-60975350D01*
X150254635Y-60944107D01*
X150259225Y-60913165D01*
X150266825Y-60882822D01*
X150277363Y-60853370D01*
X150290738Y-60825092D01*
X150306819Y-60798262D01*
X150325453Y-60773137D01*
X150346460Y-60749960D01*
X150369637Y-60728953D01*
X150394762Y-60710319D01*
X150421592Y-60694238D01*
X150449870Y-60680863D01*
X150479322Y-60670325D01*
X150509665Y-60662725D01*
X150540607Y-60658135D01*
X150571850Y-60656600D01*
X151284350Y-60656600D01*
X151315593Y-60658135D01*
X151315593Y-60658135D01*
G37*
D12*
X150928100Y-61294100D03*
D11*
G36*
X151315593Y-59083135D02*
X151346535Y-59087725D01*
X151376878Y-59095325D01*
X151406330Y-59105863D01*
X151434608Y-59119238D01*
X151461438Y-59135319D01*
X151486563Y-59153953D01*
X151509740Y-59174960D01*
X151530747Y-59198137D01*
X151549381Y-59223262D01*
X151565462Y-59250092D01*
X151578837Y-59278370D01*
X151589375Y-59307822D01*
X151596975Y-59338165D01*
X151601565Y-59369107D01*
X151603100Y-59400350D01*
X151603100Y-60037850D01*
X151601565Y-60069093D01*
X151596975Y-60100035D01*
X151589375Y-60130378D01*
X151578837Y-60159830D01*
X151565462Y-60188108D01*
X151549381Y-60214938D01*
X151530747Y-60240063D01*
X151509740Y-60263240D01*
X151486563Y-60284247D01*
X151461438Y-60302881D01*
X151434608Y-60318962D01*
X151406330Y-60332337D01*
X151376878Y-60342875D01*
X151346535Y-60350475D01*
X151315593Y-60355065D01*
X151284350Y-60356600D01*
X150571850Y-60356600D01*
X150540607Y-60355065D01*
X150509665Y-60350475D01*
X150479322Y-60342875D01*
X150449870Y-60332337D01*
X150421592Y-60318962D01*
X150394762Y-60302881D01*
X150369637Y-60284247D01*
X150346460Y-60263240D01*
X150325453Y-60240063D01*
X150306819Y-60214938D01*
X150290738Y-60188108D01*
X150277363Y-60159830D01*
X150266825Y-60130378D01*
X150259225Y-60100035D01*
X150254635Y-60069093D01*
X150253100Y-60037850D01*
X150253100Y-59400350D01*
X150254635Y-59369107D01*
X150259225Y-59338165D01*
X150266825Y-59307822D01*
X150277363Y-59278370D01*
X150290738Y-59250092D01*
X150306819Y-59223262D01*
X150325453Y-59198137D01*
X150346460Y-59174960D01*
X150369637Y-59153953D01*
X150394762Y-59135319D01*
X150421592Y-59119238D01*
X150449870Y-59105863D01*
X150479322Y-59095325D01*
X150509665Y-59087725D01*
X150540607Y-59083135D01*
X150571850Y-59081600D01*
X151284350Y-59081600D01*
X151315593Y-59083135D01*
X151315593Y-59083135D01*
G37*
D12*
X150928100Y-59719100D03*
G04 #@! TD*
D11*
G04 #@! TO.C,C10*
G36*
X104579593Y-52276135D02*
X104610535Y-52280725D01*
X104640878Y-52288325D01*
X104670330Y-52298863D01*
X104698608Y-52312238D01*
X104725438Y-52328319D01*
X104750563Y-52346953D01*
X104773740Y-52367960D01*
X104794747Y-52391137D01*
X104813381Y-52416262D01*
X104829462Y-52443092D01*
X104842837Y-52471370D01*
X104853375Y-52500822D01*
X104860975Y-52531165D01*
X104865565Y-52562107D01*
X104867100Y-52593350D01*
X104867100Y-53230850D01*
X104865565Y-53262093D01*
X104860975Y-53293035D01*
X104853375Y-53323378D01*
X104842837Y-53352830D01*
X104829462Y-53381108D01*
X104813381Y-53407938D01*
X104794747Y-53433063D01*
X104773740Y-53456240D01*
X104750563Y-53477247D01*
X104725438Y-53495881D01*
X104698608Y-53511962D01*
X104670330Y-53525337D01*
X104640878Y-53535875D01*
X104610535Y-53543475D01*
X104579593Y-53548065D01*
X104548350Y-53549600D01*
X103835850Y-53549600D01*
X103804607Y-53548065D01*
X103773665Y-53543475D01*
X103743322Y-53535875D01*
X103713870Y-53525337D01*
X103685592Y-53511962D01*
X103658762Y-53495881D01*
X103633637Y-53477247D01*
X103610460Y-53456240D01*
X103589453Y-53433063D01*
X103570819Y-53407938D01*
X103554738Y-53381108D01*
X103541363Y-53352830D01*
X103530825Y-53323378D01*
X103523225Y-53293035D01*
X103518635Y-53262093D01*
X103517100Y-53230850D01*
X103517100Y-52593350D01*
X103518635Y-52562107D01*
X103523225Y-52531165D01*
X103530825Y-52500822D01*
X103541363Y-52471370D01*
X103554738Y-52443092D01*
X103570819Y-52416262D01*
X103589453Y-52391137D01*
X103610460Y-52367960D01*
X103633637Y-52346953D01*
X103658762Y-52328319D01*
X103685592Y-52312238D01*
X103713870Y-52298863D01*
X103743322Y-52288325D01*
X103773665Y-52280725D01*
X103804607Y-52276135D01*
X103835850Y-52274600D01*
X104548350Y-52274600D01*
X104579593Y-52276135D01*
X104579593Y-52276135D01*
G37*
D12*
X104192100Y-52912100D03*
D11*
G36*
X104579593Y-50701135D02*
X104610535Y-50705725D01*
X104640878Y-50713325D01*
X104670330Y-50723863D01*
X104698608Y-50737238D01*
X104725438Y-50753319D01*
X104750563Y-50771953D01*
X104773740Y-50792960D01*
X104794747Y-50816137D01*
X104813381Y-50841262D01*
X104829462Y-50868092D01*
X104842837Y-50896370D01*
X104853375Y-50925822D01*
X104860975Y-50956165D01*
X104865565Y-50987107D01*
X104867100Y-51018350D01*
X104867100Y-51655850D01*
X104865565Y-51687093D01*
X104860975Y-51718035D01*
X104853375Y-51748378D01*
X104842837Y-51777830D01*
X104829462Y-51806108D01*
X104813381Y-51832938D01*
X104794747Y-51858063D01*
X104773740Y-51881240D01*
X104750563Y-51902247D01*
X104725438Y-51920881D01*
X104698608Y-51936962D01*
X104670330Y-51950337D01*
X104640878Y-51960875D01*
X104610535Y-51968475D01*
X104579593Y-51973065D01*
X104548350Y-51974600D01*
X103835850Y-51974600D01*
X103804607Y-51973065D01*
X103773665Y-51968475D01*
X103743322Y-51960875D01*
X103713870Y-51950337D01*
X103685592Y-51936962D01*
X103658762Y-51920881D01*
X103633637Y-51902247D01*
X103610460Y-51881240D01*
X103589453Y-51858063D01*
X103570819Y-51832938D01*
X103554738Y-51806108D01*
X103541363Y-51777830D01*
X103530825Y-51748378D01*
X103523225Y-51718035D01*
X103518635Y-51687093D01*
X103517100Y-51655850D01*
X103517100Y-51018350D01*
X103518635Y-50987107D01*
X103523225Y-50956165D01*
X103530825Y-50925822D01*
X103541363Y-50896370D01*
X103554738Y-50868092D01*
X103570819Y-50841262D01*
X103589453Y-50816137D01*
X103610460Y-50792960D01*
X103633637Y-50771953D01*
X103658762Y-50753319D01*
X103685592Y-50737238D01*
X103713870Y-50723863D01*
X103743322Y-50713325D01*
X103773665Y-50705725D01*
X103804607Y-50701135D01*
X103835850Y-50699600D01*
X104548350Y-50699600D01*
X104579593Y-50701135D01*
X104579593Y-50701135D01*
G37*
D12*
X104192100Y-51337100D03*
G04 #@! TD*
D11*
G04 #@! TO.C,C1*
G36*
X139645993Y-65949235D02*
X139676935Y-65953825D01*
X139707278Y-65961425D01*
X139736730Y-65971963D01*
X139765008Y-65985338D01*
X139791838Y-66001419D01*
X139816963Y-66020053D01*
X139840140Y-66041060D01*
X139861147Y-66064237D01*
X139879781Y-66089362D01*
X139895862Y-66116192D01*
X139909237Y-66144470D01*
X139919775Y-66173922D01*
X139927375Y-66204265D01*
X139931965Y-66235207D01*
X139933500Y-66266450D01*
X139933500Y-66978950D01*
X139931965Y-67010193D01*
X139927375Y-67041135D01*
X139919775Y-67071478D01*
X139909237Y-67100930D01*
X139895862Y-67129208D01*
X139879781Y-67156038D01*
X139861147Y-67181163D01*
X139840140Y-67204340D01*
X139816963Y-67225347D01*
X139791838Y-67243981D01*
X139765008Y-67260062D01*
X139736730Y-67273437D01*
X139707278Y-67283975D01*
X139676935Y-67291575D01*
X139645993Y-67296165D01*
X139614750Y-67297700D01*
X138977250Y-67297700D01*
X138946007Y-67296165D01*
X138915065Y-67291575D01*
X138884722Y-67283975D01*
X138855270Y-67273437D01*
X138826992Y-67260062D01*
X138800162Y-67243981D01*
X138775037Y-67225347D01*
X138751860Y-67204340D01*
X138730853Y-67181163D01*
X138712219Y-67156038D01*
X138696138Y-67129208D01*
X138682763Y-67100930D01*
X138672225Y-67071478D01*
X138664625Y-67041135D01*
X138660035Y-67010193D01*
X138658500Y-66978950D01*
X138658500Y-66266450D01*
X138660035Y-66235207D01*
X138664625Y-66204265D01*
X138672225Y-66173922D01*
X138682763Y-66144470D01*
X138696138Y-66116192D01*
X138712219Y-66089362D01*
X138730853Y-66064237D01*
X138751860Y-66041060D01*
X138775037Y-66020053D01*
X138800162Y-66001419D01*
X138826992Y-65985338D01*
X138855270Y-65971963D01*
X138884722Y-65961425D01*
X138915065Y-65953825D01*
X138946007Y-65949235D01*
X138977250Y-65947700D01*
X139614750Y-65947700D01*
X139645993Y-65949235D01*
X139645993Y-65949235D01*
G37*
D12*
X139296000Y-66622700D03*
D11*
G36*
X141220993Y-65949235D02*
X141251935Y-65953825D01*
X141282278Y-65961425D01*
X141311730Y-65971963D01*
X141340008Y-65985338D01*
X141366838Y-66001419D01*
X141391963Y-66020053D01*
X141415140Y-66041060D01*
X141436147Y-66064237D01*
X141454781Y-66089362D01*
X141470862Y-66116192D01*
X141484237Y-66144470D01*
X141494775Y-66173922D01*
X141502375Y-66204265D01*
X141506965Y-66235207D01*
X141508500Y-66266450D01*
X141508500Y-66978950D01*
X141506965Y-67010193D01*
X141502375Y-67041135D01*
X141494775Y-67071478D01*
X141484237Y-67100930D01*
X141470862Y-67129208D01*
X141454781Y-67156038D01*
X141436147Y-67181163D01*
X141415140Y-67204340D01*
X141391963Y-67225347D01*
X141366838Y-67243981D01*
X141340008Y-67260062D01*
X141311730Y-67273437D01*
X141282278Y-67283975D01*
X141251935Y-67291575D01*
X141220993Y-67296165D01*
X141189750Y-67297700D01*
X140552250Y-67297700D01*
X140521007Y-67296165D01*
X140490065Y-67291575D01*
X140459722Y-67283975D01*
X140430270Y-67273437D01*
X140401992Y-67260062D01*
X140375162Y-67243981D01*
X140350037Y-67225347D01*
X140326860Y-67204340D01*
X140305853Y-67181163D01*
X140287219Y-67156038D01*
X140271138Y-67129208D01*
X140257763Y-67100930D01*
X140247225Y-67071478D01*
X140239625Y-67041135D01*
X140235035Y-67010193D01*
X140233500Y-66978950D01*
X140233500Y-66266450D01*
X140235035Y-66235207D01*
X140239625Y-66204265D01*
X140247225Y-66173922D01*
X140257763Y-66144470D01*
X140271138Y-66116192D01*
X140287219Y-66089362D01*
X140305853Y-66064237D01*
X140326860Y-66041060D01*
X140350037Y-66020053D01*
X140375162Y-66001419D01*
X140401992Y-65985338D01*
X140430270Y-65971963D01*
X140459722Y-65961425D01*
X140490065Y-65953825D01*
X140521007Y-65949235D01*
X140552250Y-65947700D01*
X141189750Y-65947700D01*
X141220993Y-65949235D01*
X141220993Y-65949235D01*
G37*
D12*
X140871000Y-66622700D03*
G04 #@! TD*
D11*
G04 #@! TO.C,C2*
G36*
X139620493Y-57567235D02*
X139651435Y-57571825D01*
X139681778Y-57579425D01*
X139711230Y-57589963D01*
X139739508Y-57603338D01*
X139766338Y-57619419D01*
X139791463Y-57638053D01*
X139814640Y-57659060D01*
X139835647Y-57682237D01*
X139854281Y-57707362D01*
X139870362Y-57734192D01*
X139883737Y-57762470D01*
X139894275Y-57791922D01*
X139901875Y-57822265D01*
X139906465Y-57853207D01*
X139908000Y-57884450D01*
X139908000Y-58596950D01*
X139906465Y-58628193D01*
X139901875Y-58659135D01*
X139894275Y-58689478D01*
X139883737Y-58718930D01*
X139870362Y-58747208D01*
X139854281Y-58774038D01*
X139835647Y-58799163D01*
X139814640Y-58822340D01*
X139791463Y-58843347D01*
X139766338Y-58861981D01*
X139739508Y-58878062D01*
X139711230Y-58891437D01*
X139681778Y-58901975D01*
X139651435Y-58909575D01*
X139620493Y-58914165D01*
X139589250Y-58915700D01*
X138951750Y-58915700D01*
X138920507Y-58914165D01*
X138889565Y-58909575D01*
X138859222Y-58901975D01*
X138829770Y-58891437D01*
X138801492Y-58878062D01*
X138774662Y-58861981D01*
X138749537Y-58843347D01*
X138726360Y-58822340D01*
X138705353Y-58799163D01*
X138686719Y-58774038D01*
X138670638Y-58747208D01*
X138657263Y-58718930D01*
X138646725Y-58689478D01*
X138639125Y-58659135D01*
X138634535Y-58628193D01*
X138633000Y-58596950D01*
X138633000Y-57884450D01*
X138634535Y-57853207D01*
X138639125Y-57822265D01*
X138646725Y-57791922D01*
X138657263Y-57762470D01*
X138670638Y-57734192D01*
X138686719Y-57707362D01*
X138705353Y-57682237D01*
X138726360Y-57659060D01*
X138749537Y-57638053D01*
X138774662Y-57619419D01*
X138801492Y-57603338D01*
X138829770Y-57589963D01*
X138859222Y-57579425D01*
X138889565Y-57571825D01*
X138920507Y-57567235D01*
X138951750Y-57565700D01*
X139589250Y-57565700D01*
X139620493Y-57567235D01*
X139620493Y-57567235D01*
G37*
D12*
X139270500Y-58240700D03*
D11*
G36*
X141195493Y-57567235D02*
X141226435Y-57571825D01*
X141256778Y-57579425D01*
X141286230Y-57589963D01*
X141314508Y-57603338D01*
X141341338Y-57619419D01*
X141366463Y-57638053D01*
X141389640Y-57659060D01*
X141410647Y-57682237D01*
X141429281Y-57707362D01*
X141445362Y-57734192D01*
X141458737Y-57762470D01*
X141469275Y-57791922D01*
X141476875Y-57822265D01*
X141481465Y-57853207D01*
X141483000Y-57884450D01*
X141483000Y-58596950D01*
X141481465Y-58628193D01*
X141476875Y-58659135D01*
X141469275Y-58689478D01*
X141458737Y-58718930D01*
X141445362Y-58747208D01*
X141429281Y-58774038D01*
X141410647Y-58799163D01*
X141389640Y-58822340D01*
X141366463Y-58843347D01*
X141341338Y-58861981D01*
X141314508Y-58878062D01*
X141286230Y-58891437D01*
X141256778Y-58901975D01*
X141226435Y-58909575D01*
X141195493Y-58914165D01*
X141164250Y-58915700D01*
X140526750Y-58915700D01*
X140495507Y-58914165D01*
X140464565Y-58909575D01*
X140434222Y-58901975D01*
X140404770Y-58891437D01*
X140376492Y-58878062D01*
X140349662Y-58861981D01*
X140324537Y-58843347D01*
X140301360Y-58822340D01*
X140280353Y-58799163D01*
X140261719Y-58774038D01*
X140245638Y-58747208D01*
X140232263Y-58718930D01*
X140221725Y-58689478D01*
X140214125Y-58659135D01*
X140209535Y-58628193D01*
X140208000Y-58596950D01*
X140208000Y-57884450D01*
X140209535Y-57853207D01*
X140214125Y-57822265D01*
X140221725Y-57791922D01*
X140232263Y-57762470D01*
X140245638Y-57734192D01*
X140261719Y-57707362D01*
X140280353Y-57682237D01*
X140301360Y-57659060D01*
X140324537Y-57638053D01*
X140349662Y-57619419D01*
X140376492Y-57603338D01*
X140404770Y-57589963D01*
X140434222Y-57579425D01*
X140464565Y-57571825D01*
X140495507Y-57567235D01*
X140526750Y-57565700D01*
X141164250Y-57565700D01*
X141195493Y-57567235D01*
X141195493Y-57567235D01*
G37*
D12*
X140845500Y-58240700D03*
G04 #@! TD*
D11*
G04 #@! TO.C,C7*
G36*
X151315593Y-63274135D02*
X151346535Y-63278725D01*
X151376878Y-63286325D01*
X151406330Y-63296863D01*
X151434608Y-63310238D01*
X151461438Y-63326319D01*
X151486563Y-63344953D01*
X151509740Y-63365960D01*
X151530747Y-63389137D01*
X151549381Y-63414262D01*
X151565462Y-63441092D01*
X151578837Y-63469370D01*
X151589375Y-63498822D01*
X151596975Y-63529165D01*
X151601565Y-63560107D01*
X151603100Y-63591350D01*
X151603100Y-64228850D01*
X151601565Y-64260093D01*
X151596975Y-64291035D01*
X151589375Y-64321378D01*
X151578837Y-64350830D01*
X151565462Y-64379108D01*
X151549381Y-64405938D01*
X151530747Y-64431063D01*
X151509740Y-64454240D01*
X151486563Y-64475247D01*
X151461438Y-64493881D01*
X151434608Y-64509962D01*
X151406330Y-64523337D01*
X151376878Y-64533875D01*
X151346535Y-64541475D01*
X151315593Y-64546065D01*
X151284350Y-64547600D01*
X150571850Y-64547600D01*
X150540607Y-64546065D01*
X150509665Y-64541475D01*
X150479322Y-64533875D01*
X150449870Y-64523337D01*
X150421592Y-64509962D01*
X150394762Y-64493881D01*
X150369637Y-64475247D01*
X150346460Y-64454240D01*
X150325453Y-64431063D01*
X150306819Y-64405938D01*
X150290738Y-64379108D01*
X150277363Y-64350830D01*
X150266825Y-64321378D01*
X150259225Y-64291035D01*
X150254635Y-64260093D01*
X150253100Y-64228850D01*
X150253100Y-63591350D01*
X150254635Y-63560107D01*
X150259225Y-63529165D01*
X150266825Y-63498822D01*
X150277363Y-63469370D01*
X150290738Y-63441092D01*
X150306819Y-63414262D01*
X150325453Y-63389137D01*
X150346460Y-63365960D01*
X150369637Y-63344953D01*
X150394762Y-63326319D01*
X150421592Y-63310238D01*
X150449870Y-63296863D01*
X150479322Y-63286325D01*
X150509665Y-63278725D01*
X150540607Y-63274135D01*
X150571850Y-63272600D01*
X151284350Y-63272600D01*
X151315593Y-63274135D01*
X151315593Y-63274135D01*
G37*
D12*
X150928100Y-63910100D03*
D11*
G36*
X151315593Y-64849135D02*
X151346535Y-64853725D01*
X151376878Y-64861325D01*
X151406330Y-64871863D01*
X151434608Y-64885238D01*
X151461438Y-64901319D01*
X151486563Y-64919953D01*
X151509740Y-64940960D01*
X151530747Y-64964137D01*
X151549381Y-64989262D01*
X151565462Y-65016092D01*
X151578837Y-65044370D01*
X151589375Y-65073822D01*
X151596975Y-65104165D01*
X151601565Y-65135107D01*
X151603100Y-65166350D01*
X151603100Y-65803850D01*
X151601565Y-65835093D01*
X151596975Y-65866035D01*
X151589375Y-65896378D01*
X151578837Y-65925830D01*
X151565462Y-65954108D01*
X151549381Y-65980938D01*
X151530747Y-66006063D01*
X151509740Y-66029240D01*
X151486563Y-66050247D01*
X151461438Y-66068881D01*
X151434608Y-66084962D01*
X151406330Y-66098337D01*
X151376878Y-66108875D01*
X151346535Y-66116475D01*
X151315593Y-66121065D01*
X151284350Y-66122600D01*
X150571850Y-66122600D01*
X150540607Y-66121065D01*
X150509665Y-66116475D01*
X150479322Y-66108875D01*
X150449870Y-66098337D01*
X150421592Y-66084962D01*
X150394762Y-66068881D01*
X150369637Y-66050247D01*
X150346460Y-66029240D01*
X150325453Y-66006063D01*
X150306819Y-65980938D01*
X150290738Y-65954108D01*
X150277363Y-65925830D01*
X150266825Y-65896378D01*
X150259225Y-65866035D01*
X150254635Y-65835093D01*
X150253100Y-65803850D01*
X150253100Y-65166350D01*
X150254635Y-65135107D01*
X150259225Y-65104165D01*
X150266825Y-65073822D01*
X150277363Y-65044370D01*
X150290738Y-65016092D01*
X150306819Y-64989262D01*
X150325453Y-64964137D01*
X150346460Y-64940960D01*
X150369637Y-64919953D01*
X150394762Y-64901319D01*
X150421592Y-64885238D01*
X150449870Y-64871863D01*
X150479322Y-64861325D01*
X150509665Y-64853725D01*
X150540607Y-64849135D01*
X150571850Y-64847600D01*
X151284350Y-64847600D01*
X151315593Y-64849135D01*
X151315593Y-64849135D01*
G37*
D12*
X150928100Y-65485100D03*
G04 #@! TD*
D11*
G04 #@! TO.C,C8*
G36*
X123363593Y-68469135D02*
X123394535Y-68473725D01*
X123424878Y-68481325D01*
X123454330Y-68491863D01*
X123482608Y-68505238D01*
X123509438Y-68521319D01*
X123534563Y-68539953D01*
X123557740Y-68560960D01*
X123578747Y-68584137D01*
X123597381Y-68609262D01*
X123613462Y-68636092D01*
X123626837Y-68664370D01*
X123637375Y-68693822D01*
X123644975Y-68724165D01*
X123649565Y-68755107D01*
X123651100Y-68786350D01*
X123651100Y-69498850D01*
X123649565Y-69530093D01*
X123644975Y-69561035D01*
X123637375Y-69591378D01*
X123626837Y-69620830D01*
X123613462Y-69649108D01*
X123597381Y-69675938D01*
X123578747Y-69701063D01*
X123557740Y-69724240D01*
X123534563Y-69745247D01*
X123509438Y-69763881D01*
X123482608Y-69779962D01*
X123454330Y-69793337D01*
X123424878Y-69803875D01*
X123394535Y-69811475D01*
X123363593Y-69816065D01*
X123332350Y-69817600D01*
X122694850Y-69817600D01*
X122663607Y-69816065D01*
X122632665Y-69811475D01*
X122602322Y-69803875D01*
X122572870Y-69793337D01*
X122544592Y-69779962D01*
X122517762Y-69763881D01*
X122492637Y-69745247D01*
X122469460Y-69724240D01*
X122448453Y-69701063D01*
X122429819Y-69675938D01*
X122413738Y-69649108D01*
X122400363Y-69620830D01*
X122389825Y-69591378D01*
X122382225Y-69561035D01*
X122377635Y-69530093D01*
X122376100Y-69498850D01*
X122376100Y-68786350D01*
X122377635Y-68755107D01*
X122382225Y-68724165D01*
X122389825Y-68693822D01*
X122400363Y-68664370D01*
X122413738Y-68636092D01*
X122429819Y-68609262D01*
X122448453Y-68584137D01*
X122469460Y-68560960D01*
X122492637Y-68539953D01*
X122517762Y-68521319D01*
X122544592Y-68505238D01*
X122572870Y-68491863D01*
X122602322Y-68481325D01*
X122632665Y-68473725D01*
X122663607Y-68469135D01*
X122694850Y-68467600D01*
X123332350Y-68467600D01*
X123363593Y-68469135D01*
X123363593Y-68469135D01*
G37*
D12*
X123013600Y-69142600D03*
D11*
G36*
X121788593Y-68469135D02*
X121819535Y-68473725D01*
X121849878Y-68481325D01*
X121879330Y-68491863D01*
X121907608Y-68505238D01*
X121934438Y-68521319D01*
X121959563Y-68539953D01*
X121982740Y-68560960D01*
X122003747Y-68584137D01*
X122022381Y-68609262D01*
X122038462Y-68636092D01*
X122051837Y-68664370D01*
X122062375Y-68693822D01*
X122069975Y-68724165D01*
X122074565Y-68755107D01*
X122076100Y-68786350D01*
X122076100Y-69498850D01*
X122074565Y-69530093D01*
X122069975Y-69561035D01*
X122062375Y-69591378D01*
X122051837Y-69620830D01*
X122038462Y-69649108D01*
X122022381Y-69675938D01*
X122003747Y-69701063D01*
X121982740Y-69724240D01*
X121959563Y-69745247D01*
X121934438Y-69763881D01*
X121907608Y-69779962D01*
X121879330Y-69793337D01*
X121849878Y-69803875D01*
X121819535Y-69811475D01*
X121788593Y-69816065D01*
X121757350Y-69817600D01*
X121119850Y-69817600D01*
X121088607Y-69816065D01*
X121057665Y-69811475D01*
X121027322Y-69803875D01*
X120997870Y-69793337D01*
X120969592Y-69779962D01*
X120942762Y-69763881D01*
X120917637Y-69745247D01*
X120894460Y-69724240D01*
X120873453Y-69701063D01*
X120854819Y-69675938D01*
X120838738Y-69649108D01*
X120825363Y-69620830D01*
X120814825Y-69591378D01*
X120807225Y-69561035D01*
X120802635Y-69530093D01*
X120801100Y-69498850D01*
X120801100Y-68786350D01*
X120802635Y-68755107D01*
X120807225Y-68724165D01*
X120814825Y-68693822D01*
X120825363Y-68664370D01*
X120838738Y-68636092D01*
X120854819Y-68609262D01*
X120873453Y-68584137D01*
X120894460Y-68560960D01*
X120917637Y-68539953D01*
X120942762Y-68521319D01*
X120969592Y-68505238D01*
X120997870Y-68491863D01*
X121027322Y-68481325D01*
X121057665Y-68473725D01*
X121088607Y-68469135D01*
X121119850Y-68467600D01*
X121757350Y-68467600D01*
X121788593Y-68469135D01*
X121788593Y-68469135D01*
G37*
D12*
X121438600Y-69142600D03*
G04 #@! TD*
D11*
G04 #@! TO.C,C5*
G36*
X120708593Y-87632635D02*
X120739535Y-87637225D01*
X120769878Y-87644825D01*
X120799330Y-87655363D01*
X120827608Y-87668738D01*
X120854438Y-87684819D01*
X120879563Y-87703453D01*
X120902740Y-87724460D01*
X120923747Y-87747637D01*
X120942381Y-87772762D01*
X120958462Y-87799592D01*
X120971837Y-87827870D01*
X120982375Y-87857322D01*
X120989975Y-87887665D01*
X120994565Y-87918607D01*
X120996100Y-87949850D01*
X120996100Y-88587350D01*
X120994565Y-88618593D01*
X120989975Y-88649535D01*
X120982375Y-88679878D01*
X120971837Y-88709330D01*
X120958462Y-88737608D01*
X120942381Y-88764438D01*
X120923747Y-88789563D01*
X120902740Y-88812740D01*
X120879563Y-88833747D01*
X120854438Y-88852381D01*
X120827608Y-88868462D01*
X120799330Y-88881837D01*
X120769878Y-88892375D01*
X120739535Y-88899975D01*
X120708593Y-88904565D01*
X120677350Y-88906100D01*
X119964850Y-88906100D01*
X119933607Y-88904565D01*
X119902665Y-88899975D01*
X119872322Y-88892375D01*
X119842870Y-88881837D01*
X119814592Y-88868462D01*
X119787762Y-88852381D01*
X119762637Y-88833747D01*
X119739460Y-88812740D01*
X119718453Y-88789563D01*
X119699819Y-88764438D01*
X119683738Y-88737608D01*
X119670363Y-88709330D01*
X119659825Y-88679878D01*
X119652225Y-88649535D01*
X119647635Y-88618593D01*
X119646100Y-88587350D01*
X119646100Y-87949850D01*
X119647635Y-87918607D01*
X119652225Y-87887665D01*
X119659825Y-87857322D01*
X119670363Y-87827870D01*
X119683738Y-87799592D01*
X119699819Y-87772762D01*
X119718453Y-87747637D01*
X119739460Y-87724460D01*
X119762637Y-87703453D01*
X119787762Y-87684819D01*
X119814592Y-87668738D01*
X119842870Y-87655363D01*
X119872322Y-87644825D01*
X119902665Y-87637225D01*
X119933607Y-87632635D01*
X119964850Y-87631100D01*
X120677350Y-87631100D01*
X120708593Y-87632635D01*
X120708593Y-87632635D01*
G37*
D12*
X120321100Y-88268600D03*
D11*
G36*
X120708593Y-89207635D02*
X120739535Y-89212225D01*
X120769878Y-89219825D01*
X120799330Y-89230363D01*
X120827608Y-89243738D01*
X120854438Y-89259819D01*
X120879563Y-89278453D01*
X120902740Y-89299460D01*
X120923747Y-89322637D01*
X120942381Y-89347762D01*
X120958462Y-89374592D01*
X120971837Y-89402870D01*
X120982375Y-89432322D01*
X120989975Y-89462665D01*
X120994565Y-89493607D01*
X120996100Y-89524850D01*
X120996100Y-90162350D01*
X120994565Y-90193593D01*
X120989975Y-90224535D01*
X120982375Y-90254878D01*
X120971837Y-90284330D01*
X120958462Y-90312608D01*
X120942381Y-90339438D01*
X120923747Y-90364563D01*
X120902740Y-90387740D01*
X120879563Y-90408747D01*
X120854438Y-90427381D01*
X120827608Y-90443462D01*
X120799330Y-90456837D01*
X120769878Y-90467375D01*
X120739535Y-90474975D01*
X120708593Y-90479565D01*
X120677350Y-90481100D01*
X119964850Y-90481100D01*
X119933607Y-90479565D01*
X119902665Y-90474975D01*
X119872322Y-90467375D01*
X119842870Y-90456837D01*
X119814592Y-90443462D01*
X119787762Y-90427381D01*
X119762637Y-90408747D01*
X119739460Y-90387740D01*
X119718453Y-90364563D01*
X119699819Y-90339438D01*
X119683738Y-90312608D01*
X119670363Y-90284330D01*
X119659825Y-90254878D01*
X119652225Y-90224535D01*
X119647635Y-90193593D01*
X119646100Y-90162350D01*
X119646100Y-89524850D01*
X119647635Y-89493607D01*
X119652225Y-89462665D01*
X119659825Y-89432322D01*
X119670363Y-89402870D01*
X119683738Y-89374592D01*
X119699819Y-89347762D01*
X119718453Y-89322637D01*
X119739460Y-89299460D01*
X119762637Y-89278453D01*
X119787762Y-89259819D01*
X119814592Y-89243738D01*
X119842870Y-89230363D01*
X119872322Y-89219825D01*
X119902665Y-89212225D01*
X119933607Y-89207635D01*
X119964850Y-89206100D01*
X120677350Y-89206100D01*
X120708593Y-89207635D01*
X120708593Y-89207635D01*
G37*
D12*
X120321100Y-89843600D03*
G04 #@! TD*
D11*
G04 #@! TO.C,C6*
G36*
X130868593Y-87937635D02*
X130899535Y-87942225D01*
X130929878Y-87949825D01*
X130959330Y-87960363D01*
X130987608Y-87973738D01*
X131014438Y-87989819D01*
X131039563Y-88008453D01*
X131062740Y-88029460D01*
X131083747Y-88052637D01*
X131102381Y-88077762D01*
X131118462Y-88104592D01*
X131131837Y-88132870D01*
X131142375Y-88162322D01*
X131149975Y-88192665D01*
X131154565Y-88223607D01*
X131156100Y-88254850D01*
X131156100Y-88892350D01*
X131154565Y-88923593D01*
X131149975Y-88954535D01*
X131142375Y-88984878D01*
X131131837Y-89014330D01*
X131118462Y-89042608D01*
X131102381Y-89069438D01*
X131083747Y-89094563D01*
X131062740Y-89117740D01*
X131039563Y-89138747D01*
X131014438Y-89157381D01*
X130987608Y-89173462D01*
X130959330Y-89186837D01*
X130929878Y-89197375D01*
X130899535Y-89204975D01*
X130868593Y-89209565D01*
X130837350Y-89211100D01*
X130124850Y-89211100D01*
X130093607Y-89209565D01*
X130062665Y-89204975D01*
X130032322Y-89197375D01*
X130002870Y-89186837D01*
X129974592Y-89173462D01*
X129947762Y-89157381D01*
X129922637Y-89138747D01*
X129899460Y-89117740D01*
X129878453Y-89094563D01*
X129859819Y-89069438D01*
X129843738Y-89042608D01*
X129830363Y-89014330D01*
X129819825Y-88984878D01*
X129812225Y-88954535D01*
X129807635Y-88923593D01*
X129806100Y-88892350D01*
X129806100Y-88254850D01*
X129807635Y-88223607D01*
X129812225Y-88192665D01*
X129819825Y-88162322D01*
X129830363Y-88132870D01*
X129843738Y-88104592D01*
X129859819Y-88077762D01*
X129878453Y-88052637D01*
X129899460Y-88029460D01*
X129922637Y-88008453D01*
X129947762Y-87989819D01*
X129974592Y-87973738D01*
X130002870Y-87960363D01*
X130032322Y-87949825D01*
X130062665Y-87942225D01*
X130093607Y-87937635D01*
X130124850Y-87936100D01*
X130837350Y-87936100D01*
X130868593Y-87937635D01*
X130868593Y-87937635D01*
G37*
D12*
X130481100Y-88573600D03*
D11*
G36*
X130868593Y-89512635D02*
X130899535Y-89517225D01*
X130929878Y-89524825D01*
X130959330Y-89535363D01*
X130987608Y-89548738D01*
X131014438Y-89564819D01*
X131039563Y-89583453D01*
X131062740Y-89604460D01*
X131083747Y-89627637D01*
X131102381Y-89652762D01*
X131118462Y-89679592D01*
X131131837Y-89707870D01*
X131142375Y-89737322D01*
X131149975Y-89767665D01*
X131154565Y-89798607D01*
X131156100Y-89829850D01*
X131156100Y-90467350D01*
X131154565Y-90498593D01*
X131149975Y-90529535D01*
X131142375Y-90559878D01*
X131131837Y-90589330D01*
X131118462Y-90617608D01*
X131102381Y-90644438D01*
X131083747Y-90669563D01*
X131062740Y-90692740D01*
X131039563Y-90713747D01*
X131014438Y-90732381D01*
X130987608Y-90748462D01*
X130959330Y-90761837D01*
X130929878Y-90772375D01*
X130899535Y-90779975D01*
X130868593Y-90784565D01*
X130837350Y-90786100D01*
X130124850Y-90786100D01*
X130093607Y-90784565D01*
X130062665Y-90779975D01*
X130032322Y-90772375D01*
X130002870Y-90761837D01*
X129974592Y-90748462D01*
X129947762Y-90732381D01*
X129922637Y-90713747D01*
X129899460Y-90692740D01*
X129878453Y-90669563D01*
X129859819Y-90644438D01*
X129843738Y-90617608D01*
X129830363Y-90589330D01*
X129819825Y-90559878D01*
X129812225Y-90529535D01*
X129807635Y-90498593D01*
X129806100Y-90467350D01*
X129806100Y-89829850D01*
X129807635Y-89798607D01*
X129812225Y-89767665D01*
X129819825Y-89737322D01*
X129830363Y-89707870D01*
X129843738Y-89679592D01*
X129859819Y-89652762D01*
X129878453Y-89627637D01*
X129899460Y-89604460D01*
X129922637Y-89583453D01*
X129947762Y-89564819D01*
X129974592Y-89548738D01*
X130002870Y-89535363D01*
X130032322Y-89524825D01*
X130062665Y-89517225D01*
X130093607Y-89512635D01*
X130124850Y-89511100D01*
X130837350Y-89511100D01*
X130868593Y-89512635D01*
X130868593Y-89512635D01*
G37*
D12*
X130481100Y-90148600D03*
G04 #@! TD*
D26*
G04 #@! TO.C,IC1*
X133281100Y-73773600D03*
X132481100Y-73773600D03*
X131681100Y-73773600D03*
X130881100Y-73773600D03*
X130081100Y-73773600D03*
X129281100Y-73773600D03*
X128481100Y-73773600D03*
X127681100Y-73773600D03*
D27*
X126231100Y-72323600D03*
X126231100Y-71523600D03*
X126231100Y-70723600D03*
X126231100Y-69923600D03*
X126231100Y-69123600D03*
X126231100Y-68323600D03*
X126231100Y-67523600D03*
X126231100Y-66723600D03*
D26*
X127681100Y-65273600D03*
X128481100Y-65273600D03*
X129281100Y-65273600D03*
X130081100Y-65273600D03*
X130881100Y-65273600D03*
X131681100Y-65273600D03*
X132481100Y-65273600D03*
X133281100Y-65273600D03*
D27*
X134731100Y-66723600D03*
X134731100Y-67523600D03*
X134731100Y-68323600D03*
X134731100Y-69123600D03*
X134731100Y-69923600D03*
X134731100Y-70723600D03*
X134731100Y-71523600D03*
X134731100Y-72323600D03*
G04 #@! TD*
D28*
G04 #@! TO.C,IC2*
X125401100Y-84763600D03*
D29*
X127681100Y-91063600D03*
X123121100Y-91063600D03*
G04 #@! TD*
D30*
G04 #@! TO.C,C3*
X115241100Y-85103600D03*
X115241100Y-89503600D03*
G04 #@! TD*
G04 #@! TO.C,C4*
X135561100Y-85103600D03*
X135561100Y-89503600D03*
G04 #@! TD*
D11*
G04 #@! TO.C,LED1*
G36*
X105456593Y-92980135D02*
X105487535Y-92984725D01*
X105517878Y-92992325D01*
X105547330Y-93002863D01*
X105575608Y-93016238D01*
X105602438Y-93032319D01*
X105627563Y-93050953D01*
X105650740Y-93071960D01*
X105671747Y-93095137D01*
X105690381Y-93120262D01*
X105706462Y-93147092D01*
X105719837Y-93175370D01*
X105730375Y-93204822D01*
X105737975Y-93235165D01*
X105742565Y-93266107D01*
X105744100Y-93297350D01*
X105744100Y-94009850D01*
X105742565Y-94041093D01*
X105737975Y-94072035D01*
X105730375Y-94102378D01*
X105719837Y-94131830D01*
X105706462Y-94160108D01*
X105690381Y-94186938D01*
X105671747Y-94212063D01*
X105650740Y-94235240D01*
X105627563Y-94256247D01*
X105602438Y-94274881D01*
X105575608Y-94290962D01*
X105547330Y-94304337D01*
X105517878Y-94314875D01*
X105487535Y-94322475D01*
X105456593Y-94327065D01*
X105425350Y-94328600D01*
X104787850Y-94328600D01*
X104756607Y-94327065D01*
X104725665Y-94322475D01*
X104695322Y-94314875D01*
X104665870Y-94304337D01*
X104637592Y-94290962D01*
X104610762Y-94274881D01*
X104585637Y-94256247D01*
X104562460Y-94235240D01*
X104541453Y-94212063D01*
X104522819Y-94186938D01*
X104506738Y-94160108D01*
X104493363Y-94131830D01*
X104482825Y-94102378D01*
X104475225Y-94072035D01*
X104470635Y-94041093D01*
X104469100Y-94009850D01*
X104469100Y-93297350D01*
X104470635Y-93266107D01*
X104475225Y-93235165D01*
X104482825Y-93204822D01*
X104493363Y-93175370D01*
X104506738Y-93147092D01*
X104522819Y-93120262D01*
X104541453Y-93095137D01*
X104562460Y-93071960D01*
X104585637Y-93050953D01*
X104610762Y-93032319D01*
X104637592Y-93016238D01*
X104665870Y-93002863D01*
X104695322Y-92992325D01*
X104725665Y-92984725D01*
X104756607Y-92980135D01*
X104787850Y-92978600D01*
X105425350Y-92978600D01*
X105456593Y-92980135D01*
X105456593Y-92980135D01*
G37*
D12*
X105106600Y-93653600D03*
D11*
G36*
X103881593Y-92980135D02*
X103912535Y-92984725D01*
X103942878Y-92992325D01*
X103972330Y-93002863D01*
X104000608Y-93016238D01*
X104027438Y-93032319D01*
X104052563Y-93050953D01*
X104075740Y-93071960D01*
X104096747Y-93095137D01*
X104115381Y-93120262D01*
X104131462Y-93147092D01*
X104144837Y-93175370D01*
X104155375Y-93204822D01*
X104162975Y-93235165D01*
X104167565Y-93266107D01*
X104169100Y-93297350D01*
X104169100Y-94009850D01*
X104167565Y-94041093D01*
X104162975Y-94072035D01*
X104155375Y-94102378D01*
X104144837Y-94131830D01*
X104131462Y-94160108D01*
X104115381Y-94186938D01*
X104096747Y-94212063D01*
X104075740Y-94235240D01*
X104052563Y-94256247D01*
X104027438Y-94274881D01*
X104000608Y-94290962D01*
X103972330Y-94304337D01*
X103942878Y-94314875D01*
X103912535Y-94322475D01*
X103881593Y-94327065D01*
X103850350Y-94328600D01*
X103212850Y-94328600D01*
X103181607Y-94327065D01*
X103150665Y-94322475D01*
X103120322Y-94314875D01*
X103090870Y-94304337D01*
X103062592Y-94290962D01*
X103035762Y-94274881D01*
X103010637Y-94256247D01*
X102987460Y-94235240D01*
X102966453Y-94212063D01*
X102947819Y-94186938D01*
X102931738Y-94160108D01*
X102918363Y-94131830D01*
X102907825Y-94102378D01*
X102900225Y-94072035D01*
X102895635Y-94041093D01*
X102894100Y-94009850D01*
X102894100Y-93297350D01*
X102895635Y-93266107D01*
X102900225Y-93235165D01*
X102907825Y-93204822D01*
X102918363Y-93175370D01*
X102931738Y-93147092D01*
X102947819Y-93120262D01*
X102966453Y-93095137D01*
X102987460Y-93071960D01*
X103010637Y-93050953D01*
X103035762Y-93032319D01*
X103062592Y-93016238D01*
X103090870Y-93002863D01*
X103120322Y-92992325D01*
X103150665Y-92984725D01*
X103181607Y-92980135D01*
X103212850Y-92978600D01*
X103850350Y-92978600D01*
X103881593Y-92980135D01*
X103881593Y-92980135D01*
G37*
D12*
X103531600Y-93653600D03*
G04 #@! TD*
D11*
G04 #@! TO.C,R4*
G36*
X108453593Y-92980135D02*
X108484535Y-92984725D01*
X108514878Y-92992325D01*
X108544330Y-93002863D01*
X108572608Y-93016238D01*
X108599438Y-93032319D01*
X108624563Y-93050953D01*
X108647740Y-93071960D01*
X108668747Y-93095137D01*
X108687381Y-93120262D01*
X108703462Y-93147092D01*
X108716837Y-93175370D01*
X108727375Y-93204822D01*
X108734975Y-93235165D01*
X108739565Y-93266107D01*
X108741100Y-93297350D01*
X108741100Y-94009850D01*
X108739565Y-94041093D01*
X108734975Y-94072035D01*
X108727375Y-94102378D01*
X108716837Y-94131830D01*
X108703462Y-94160108D01*
X108687381Y-94186938D01*
X108668747Y-94212063D01*
X108647740Y-94235240D01*
X108624563Y-94256247D01*
X108599438Y-94274881D01*
X108572608Y-94290962D01*
X108544330Y-94304337D01*
X108514878Y-94314875D01*
X108484535Y-94322475D01*
X108453593Y-94327065D01*
X108422350Y-94328600D01*
X107784850Y-94328600D01*
X107753607Y-94327065D01*
X107722665Y-94322475D01*
X107692322Y-94314875D01*
X107662870Y-94304337D01*
X107634592Y-94290962D01*
X107607762Y-94274881D01*
X107582637Y-94256247D01*
X107559460Y-94235240D01*
X107538453Y-94212063D01*
X107519819Y-94186938D01*
X107503738Y-94160108D01*
X107490363Y-94131830D01*
X107479825Y-94102378D01*
X107472225Y-94072035D01*
X107467635Y-94041093D01*
X107466100Y-94009850D01*
X107466100Y-93297350D01*
X107467635Y-93266107D01*
X107472225Y-93235165D01*
X107479825Y-93204822D01*
X107490363Y-93175370D01*
X107503738Y-93147092D01*
X107519819Y-93120262D01*
X107538453Y-93095137D01*
X107559460Y-93071960D01*
X107582637Y-93050953D01*
X107607762Y-93032319D01*
X107634592Y-93016238D01*
X107662870Y-93002863D01*
X107692322Y-92992325D01*
X107722665Y-92984725D01*
X107753607Y-92980135D01*
X107784850Y-92978600D01*
X108422350Y-92978600D01*
X108453593Y-92980135D01*
X108453593Y-92980135D01*
G37*
D12*
X108103600Y-93653600D03*
D11*
G36*
X110028593Y-92980135D02*
X110059535Y-92984725D01*
X110089878Y-92992325D01*
X110119330Y-93002863D01*
X110147608Y-93016238D01*
X110174438Y-93032319D01*
X110199563Y-93050953D01*
X110222740Y-93071960D01*
X110243747Y-93095137D01*
X110262381Y-93120262D01*
X110278462Y-93147092D01*
X110291837Y-93175370D01*
X110302375Y-93204822D01*
X110309975Y-93235165D01*
X110314565Y-93266107D01*
X110316100Y-93297350D01*
X110316100Y-94009850D01*
X110314565Y-94041093D01*
X110309975Y-94072035D01*
X110302375Y-94102378D01*
X110291837Y-94131830D01*
X110278462Y-94160108D01*
X110262381Y-94186938D01*
X110243747Y-94212063D01*
X110222740Y-94235240D01*
X110199563Y-94256247D01*
X110174438Y-94274881D01*
X110147608Y-94290962D01*
X110119330Y-94304337D01*
X110089878Y-94314875D01*
X110059535Y-94322475D01*
X110028593Y-94327065D01*
X109997350Y-94328600D01*
X109359850Y-94328600D01*
X109328607Y-94327065D01*
X109297665Y-94322475D01*
X109267322Y-94314875D01*
X109237870Y-94304337D01*
X109209592Y-94290962D01*
X109182762Y-94274881D01*
X109157637Y-94256247D01*
X109134460Y-94235240D01*
X109113453Y-94212063D01*
X109094819Y-94186938D01*
X109078738Y-94160108D01*
X109065363Y-94131830D01*
X109054825Y-94102378D01*
X109047225Y-94072035D01*
X109042635Y-94041093D01*
X109041100Y-94009850D01*
X109041100Y-93297350D01*
X109042635Y-93266107D01*
X109047225Y-93235165D01*
X109054825Y-93204822D01*
X109065363Y-93175370D01*
X109078738Y-93147092D01*
X109094819Y-93120262D01*
X109113453Y-93095137D01*
X109134460Y-93071960D01*
X109157637Y-93050953D01*
X109182762Y-93032319D01*
X109209592Y-93016238D01*
X109237870Y-93002863D01*
X109267322Y-92992325D01*
X109297665Y-92984725D01*
X109328607Y-92980135D01*
X109359850Y-92978600D01*
X109997350Y-92978600D01*
X110028593Y-92980135D01*
X110028593Y-92980135D01*
G37*
D12*
X109678600Y-93653600D03*
G04 #@! TD*
D31*
G04 #@! TO.C,D1*
X133811100Y-79683600D03*
X137311100Y-79683600D03*
G04 #@! TD*
D11*
G04 #@! TO.C,R1*
G36*
X135123593Y-76470135D02*
X135154535Y-76474725D01*
X135184878Y-76482325D01*
X135214330Y-76492863D01*
X135242608Y-76506238D01*
X135269438Y-76522319D01*
X135294563Y-76540953D01*
X135317740Y-76561960D01*
X135338747Y-76585137D01*
X135357381Y-76610262D01*
X135373462Y-76637092D01*
X135386837Y-76665370D01*
X135397375Y-76694822D01*
X135404975Y-76725165D01*
X135409565Y-76756107D01*
X135411100Y-76787350D01*
X135411100Y-77499850D01*
X135409565Y-77531093D01*
X135404975Y-77562035D01*
X135397375Y-77592378D01*
X135386837Y-77621830D01*
X135373462Y-77650108D01*
X135357381Y-77676938D01*
X135338747Y-77702063D01*
X135317740Y-77725240D01*
X135294563Y-77746247D01*
X135269438Y-77764881D01*
X135242608Y-77780962D01*
X135214330Y-77794337D01*
X135184878Y-77804875D01*
X135154535Y-77812475D01*
X135123593Y-77817065D01*
X135092350Y-77818600D01*
X134454850Y-77818600D01*
X134423607Y-77817065D01*
X134392665Y-77812475D01*
X134362322Y-77804875D01*
X134332870Y-77794337D01*
X134304592Y-77780962D01*
X134277762Y-77764881D01*
X134252637Y-77746247D01*
X134229460Y-77725240D01*
X134208453Y-77702063D01*
X134189819Y-77676938D01*
X134173738Y-77650108D01*
X134160363Y-77621830D01*
X134149825Y-77592378D01*
X134142225Y-77562035D01*
X134137635Y-77531093D01*
X134136100Y-77499850D01*
X134136100Y-76787350D01*
X134137635Y-76756107D01*
X134142225Y-76725165D01*
X134149825Y-76694822D01*
X134160363Y-76665370D01*
X134173738Y-76637092D01*
X134189819Y-76610262D01*
X134208453Y-76585137D01*
X134229460Y-76561960D01*
X134252637Y-76540953D01*
X134277762Y-76522319D01*
X134304592Y-76506238D01*
X134332870Y-76492863D01*
X134362322Y-76482325D01*
X134392665Y-76474725D01*
X134423607Y-76470135D01*
X134454850Y-76468600D01*
X135092350Y-76468600D01*
X135123593Y-76470135D01*
X135123593Y-76470135D01*
G37*
D12*
X134773600Y-77143600D03*
D11*
G36*
X136698593Y-76470135D02*
X136729535Y-76474725D01*
X136759878Y-76482325D01*
X136789330Y-76492863D01*
X136817608Y-76506238D01*
X136844438Y-76522319D01*
X136869563Y-76540953D01*
X136892740Y-76561960D01*
X136913747Y-76585137D01*
X136932381Y-76610262D01*
X136948462Y-76637092D01*
X136961837Y-76665370D01*
X136972375Y-76694822D01*
X136979975Y-76725165D01*
X136984565Y-76756107D01*
X136986100Y-76787350D01*
X136986100Y-77499850D01*
X136984565Y-77531093D01*
X136979975Y-77562035D01*
X136972375Y-77592378D01*
X136961837Y-77621830D01*
X136948462Y-77650108D01*
X136932381Y-77676938D01*
X136913747Y-77702063D01*
X136892740Y-77725240D01*
X136869563Y-77746247D01*
X136844438Y-77764881D01*
X136817608Y-77780962D01*
X136789330Y-77794337D01*
X136759878Y-77804875D01*
X136729535Y-77812475D01*
X136698593Y-77817065D01*
X136667350Y-77818600D01*
X136029850Y-77818600D01*
X135998607Y-77817065D01*
X135967665Y-77812475D01*
X135937322Y-77804875D01*
X135907870Y-77794337D01*
X135879592Y-77780962D01*
X135852762Y-77764881D01*
X135827637Y-77746247D01*
X135804460Y-77725240D01*
X135783453Y-77702063D01*
X135764819Y-77676938D01*
X135748738Y-77650108D01*
X135735363Y-77621830D01*
X135724825Y-77592378D01*
X135717225Y-77562035D01*
X135712635Y-77531093D01*
X135711100Y-77499850D01*
X135711100Y-76787350D01*
X135712635Y-76756107D01*
X135717225Y-76725165D01*
X135724825Y-76694822D01*
X135735363Y-76665370D01*
X135748738Y-76637092D01*
X135764819Y-76610262D01*
X135783453Y-76585137D01*
X135804460Y-76561960D01*
X135827637Y-76540953D01*
X135852762Y-76522319D01*
X135879592Y-76506238D01*
X135907870Y-76492863D01*
X135937322Y-76482325D01*
X135967665Y-76474725D01*
X135998607Y-76470135D01*
X136029850Y-76468600D01*
X136667350Y-76468600D01*
X136698593Y-76470135D01*
X136698593Y-76470135D01*
G37*
D12*
X136348600Y-77143600D03*
G04 #@! TD*
D13*
G04 #@! TO.C,X3*
X110161100Y-69523600D03*
X110161100Y-72063600D03*
X110161100Y-74603600D03*
D14*
X110161100Y-77143600D03*
G04 #@! TD*
D13*
G04 #@! TO.C,X5*
X110161100Y-56823600D03*
X110161100Y-59363600D03*
X110161100Y-61903600D03*
D14*
X110161100Y-64443600D03*
G04 #@! TD*
D11*
G04 #@! TO.C,LED2*
G36*
X160713593Y-91087135D02*
X160744535Y-91091725D01*
X160774878Y-91099325D01*
X160804330Y-91109863D01*
X160832608Y-91123238D01*
X160859438Y-91139319D01*
X160884563Y-91157953D01*
X160907740Y-91178960D01*
X160928747Y-91202137D01*
X160947381Y-91227262D01*
X160963462Y-91254092D01*
X160976837Y-91282370D01*
X160987375Y-91311822D01*
X160994975Y-91342165D01*
X160999565Y-91373107D01*
X161001100Y-91404350D01*
X161001100Y-92041850D01*
X160999565Y-92073093D01*
X160994975Y-92104035D01*
X160987375Y-92134378D01*
X160976837Y-92163830D01*
X160963462Y-92192108D01*
X160947381Y-92218938D01*
X160928747Y-92244063D01*
X160907740Y-92267240D01*
X160884563Y-92288247D01*
X160859438Y-92306881D01*
X160832608Y-92322962D01*
X160804330Y-92336337D01*
X160774878Y-92346875D01*
X160744535Y-92354475D01*
X160713593Y-92359065D01*
X160682350Y-92360600D01*
X159969850Y-92360600D01*
X159938607Y-92359065D01*
X159907665Y-92354475D01*
X159877322Y-92346875D01*
X159847870Y-92336337D01*
X159819592Y-92322962D01*
X159792762Y-92306881D01*
X159767637Y-92288247D01*
X159744460Y-92267240D01*
X159723453Y-92244063D01*
X159704819Y-92218938D01*
X159688738Y-92192108D01*
X159675363Y-92163830D01*
X159664825Y-92134378D01*
X159657225Y-92104035D01*
X159652635Y-92073093D01*
X159651100Y-92041850D01*
X159651100Y-91404350D01*
X159652635Y-91373107D01*
X159657225Y-91342165D01*
X159664825Y-91311822D01*
X159675363Y-91282370D01*
X159688738Y-91254092D01*
X159704819Y-91227262D01*
X159723453Y-91202137D01*
X159744460Y-91178960D01*
X159767637Y-91157953D01*
X159792762Y-91139319D01*
X159819592Y-91123238D01*
X159847870Y-91109863D01*
X159877322Y-91099325D01*
X159907665Y-91091725D01*
X159938607Y-91087135D01*
X159969850Y-91085600D01*
X160682350Y-91085600D01*
X160713593Y-91087135D01*
X160713593Y-91087135D01*
G37*
D12*
X160326100Y-91723100D03*
D11*
G36*
X160713593Y-92662135D02*
X160744535Y-92666725D01*
X160774878Y-92674325D01*
X160804330Y-92684863D01*
X160832608Y-92698238D01*
X160859438Y-92714319D01*
X160884563Y-92732953D01*
X160907740Y-92753960D01*
X160928747Y-92777137D01*
X160947381Y-92802262D01*
X160963462Y-92829092D01*
X160976837Y-92857370D01*
X160987375Y-92886822D01*
X160994975Y-92917165D01*
X160999565Y-92948107D01*
X161001100Y-92979350D01*
X161001100Y-93616850D01*
X160999565Y-93648093D01*
X160994975Y-93679035D01*
X160987375Y-93709378D01*
X160976837Y-93738830D01*
X160963462Y-93767108D01*
X160947381Y-93793938D01*
X160928747Y-93819063D01*
X160907740Y-93842240D01*
X160884563Y-93863247D01*
X160859438Y-93881881D01*
X160832608Y-93897962D01*
X160804330Y-93911337D01*
X160774878Y-93921875D01*
X160744535Y-93929475D01*
X160713593Y-93934065D01*
X160682350Y-93935600D01*
X159969850Y-93935600D01*
X159938607Y-93934065D01*
X159907665Y-93929475D01*
X159877322Y-93921875D01*
X159847870Y-93911337D01*
X159819592Y-93897962D01*
X159792762Y-93881881D01*
X159767637Y-93863247D01*
X159744460Y-93842240D01*
X159723453Y-93819063D01*
X159704819Y-93793938D01*
X159688738Y-93767108D01*
X159675363Y-93738830D01*
X159664825Y-93709378D01*
X159657225Y-93679035D01*
X159652635Y-93648093D01*
X159651100Y-93616850D01*
X159651100Y-92979350D01*
X159652635Y-92948107D01*
X159657225Y-92917165D01*
X159664825Y-92886822D01*
X159675363Y-92857370D01*
X159688738Y-92829092D01*
X159704819Y-92802262D01*
X159723453Y-92777137D01*
X159744460Y-92753960D01*
X159767637Y-92732953D01*
X159792762Y-92714319D01*
X159819592Y-92698238D01*
X159847870Y-92684863D01*
X159877322Y-92674325D01*
X159907665Y-92666725D01*
X159938607Y-92662135D01*
X159969850Y-92660600D01*
X160682350Y-92660600D01*
X160713593Y-92662135D01*
X160713593Y-92662135D01*
G37*
D12*
X160326100Y-93298100D03*
G04 #@! TD*
D11*
G04 #@! TO.C,R5*
G36*
X158300593Y-92662135D02*
X158331535Y-92666725D01*
X158361878Y-92674325D01*
X158391330Y-92684863D01*
X158419608Y-92698238D01*
X158446438Y-92714319D01*
X158471563Y-92732953D01*
X158494740Y-92753960D01*
X158515747Y-92777137D01*
X158534381Y-92802262D01*
X158550462Y-92829092D01*
X158563837Y-92857370D01*
X158574375Y-92886822D01*
X158581975Y-92917165D01*
X158586565Y-92948107D01*
X158588100Y-92979350D01*
X158588100Y-93616850D01*
X158586565Y-93648093D01*
X158581975Y-93679035D01*
X158574375Y-93709378D01*
X158563837Y-93738830D01*
X158550462Y-93767108D01*
X158534381Y-93793938D01*
X158515747Y-93819063D01*
X158494740Y-93842240D01*
X158471563Y-93863247D01*
X158446438Y-93881881D01*
X158419608Y-93897962D01*
X158391330Y-93911337D01*
X158361878Y-93921875D01*
X158331535Y-93929475D01*
X158300593Y-93934065D01*
X158269350Y-93935600D01*
X157556850Y-93935600D01*
X157525607Y-93934065D01*
X157494665Y-93929475D01*
X157464322Y-93921875D01*
X157434870Y-93911337D01*
X157406592Y-93897962D01*
X157379762Y-93881881D01*
X157354637Y-93863247D01*
X157331460Y-93842240D01*
X157310453Y-93819063D01*
X157291819Y-93793938D01*
X157275738Y-93767108D01*
X157262363Y-93738830D01*
X157251825Y-93709378D01*
X157244225Y-93679035D01*
X157239635Y-93648093D01*
X157238100Y-93616850D01*
X157238100Y-92979350D01*
X157239635Y-92948107D01*
X157244225Y-92917165D01*
X157251825Y-92886822D01*
X157262363Y-92857370D01*
X157275738Y-92829092D01*
X157291819Y-92802262D01*
X157310453Y-92777137D01*
X157331460Y-92753960D01*
X157354637Y-92732953D01*
X157379762Y-92714319D01*
X157406592Y-92698238D01*
X157434870Y-92684863D01*
X157464322Y-92674325D01*
X157494665Y-92666725D01*
X157525607Y-92662135D01*
X157556850Y-92660600D01*
X158269350Y-92660600D01*
X158300593Y-92662135D01*
X158300593Y-92662135D01*
G37*
D12*
X157913100Y-93298100D03*
D11*
G36*
X158300593Y-91087135D02*
X158331535Y-91091725D01*
X158361878Y-91099325D01*
X158391330Y-91109863D01*
X158419608Y-91123238D01*
X158446438Y-91139319D01*
X158471563Y-91157953D01*
X158494740Y-91178960D01*
X158515747Y-91202137D01*
X158534381Y-91227262D01*
X158550462Y-91254092D01*
X158563837Y-91282370D01*
X158574375Y-91311822D01*
X158581975Y-91342165D01*
X158586565Y-91373107D01*
X158588100Y-91404350D01*
X158588100Y-92041850D01*
X158586565Y-92073093D01*
X158581975Y-92104035D01*
X158574375Y-92134378D01*
X158563837Y-92163830D01*
X158550462Y-92192108D01*
X158534381Y-92218938D01*
X158515747Y-92244063D01*
X158494740Y-92267240D01*
X158471563Y-92288247D01*
X158446438Y-92306881D01*
X158419608Y-92322962D01*
X158391330Y-92336337D01*
X158361878Y-92346875D01*
X158331535Y-92354475D01*
X158300593Y-92359065D01*
X158269350Y-92360600D01*
X157556850Y-92360600D01*
X157525607Y-92359065D01*
X157494665Y-92354475D01*
X157464322Y-92346875D01*
X157434870Y-92336337D01*
X157406592Y-92322962D01*
X157379762Y-92306881D01*
X157354637Y-92288247D01*
X157331460Y-92267240D01*
X157310453Y-92244063D01*
X157291819Y-92218938D01*
X157275738Y-92192108D01*
X157262363Y-92163830D01*
X157251825Y-92134378D01*
X157244225Y-92104035D01*
X157239635Y-92073093D01*
X157238100Y-92041850D01*
X157238100Y-91404350D01*
X157239635Y-91373107D01*
X157244225Y-91342165D01*
X157251825Y-91311822D01*
X157262363Y-91282370D01*
X157275738Y-91254092D01*
X157291819Y-91227262D01*
X157310453Y-91202137D01*
X157331460Y-91178960D01*
X157354637Y-91157953D01*
X157379762Y-91139319D01*
X157406592Y-91123238D01*
X157434870Y-91109863D01*
X157464322Y-91099325D01*
X157494665Y-91091725D01*
X157525607Y-91087135D01*
X157556850Y-91085600D01*
X158269350Y-91085600D01*
X158300593Y-91087135D01*
X158300593Y-91087135D01*
G37*
D12*
X157913100Y-91723100D03*
G04 #@! TD*
D13*
G04 #@! TO.C,X1*
X110161100Y-82223600D03*
X110161100Y-84763600D03*
D14*
X110161100Y-87303600D03*
G04 #@! TD*
M02*
