%FSLAX45Y45*%
G04 Gerber Fmt 4.5, Leading zero omitted, Abs format (unit mm)*
G04 Created by KiCad (PCBNEW (5.0.0)) date 11/19/18 10:01:11*
%MOMM*%
%LPD*%
G01*
G04 APERTURE LIST*
%ADD10C,0.150000*%
%ADD11C,0.200000*%
%ADD12C,0.300000*%
G04 APERTURE END LIST*
D10*
X10000110Y-10000360D02*
X16200110Y-10000360D01*
X16200110Y-10000360D02*
X16200110Y-4400360D01*
X16200110Y-4400360D02*
X10000110Y-4400360D01*
X10000110Y-4400360D02*
X10000110Y-10000360D01*
D11*
X15640510Y-6141160D02*
X15840510Y-6341160D01*
X15840510Y-6141160D02*
X15640510Y-6341160D01*
X10365110Y-4700360D02*
G75*
G03X10365110Y-4700360I-125000J0D01*
G01*
X10365110Y-9800360D02*
G75*
G03X10365110Y-9800360I-125000J0D01*
G01*
X16085110Y-4700360D02*
G75*
G03X16085110Y-4700360I-125000J0D01*
G01*
X16085110Y-9800360D02*
G75*
G03X16085110Y-9800360I-125000J0D01*
G01*
D12*
X10279038Y-10473574D02*
X10279038Y-10173574D01*
X10350467Y-10173574D01*
X10393324Y-10187860D01*
X10421896Y-10216432D01*
X10436181Y-10245003D01*
X10450467Y-10302146D01*
X10450467Y-10345003D01*
X10436181Y-10402146D01*
X10421896Y-10430717D01*
X10393324Y-10459289D01*
X10350467Y-10473574D01*
X10279038Y-10473574D01*
X10579038Y-10473574D02*
X10579038Y-10273574D01*
X10579038Y-10330717D02*
X10593324Y-10302146D01*
X10607610Y-10287860D01*
X10636181Y-10273574D01*
X10664753Y-10273574D01*
X10764753Y-10473574D02*
X10764753Y-10273574D01*
X10764753Y-10173574D02*
X10750467Y-10187860D01*
X10764753Y-10202146D01*
X10779038Y-10187860D01*
X10764753Y-10173574D01*
X10764753Y-10202146D01*
X10950467Y-10473574D02*
X10921896Y-10459289D01*
X10907610Y-10430717D01*
X10907610Y-10173574D01*
X11107610Y-10473574D02*
X11079038Y-10459289D01*
X11064753Y-10430717D01*
X11064753Y-10173574D01*
X11450467Y-10473574D02*
X11450467Y-10173574D01*
X11550467Y-10387860D01*
X11650467Y-10173574D01*
X11650467Y-10473574D01*
X11921896Y-10473574D02*
X11921896Y-10316432D01*
X11907610Y-10287860D01*
X11879038Y-10273574D01*
X11821896Y-10273574D01*
X11793324Y-10287860D01*
X11921896Y-10459289D02*
X11893324Y-10473574D01*
X11821896Y-10473574D01*
X11793324Y-10459289D01*
X11779038Y-10430717D01*
X11779038Y-10402146D01*
X11793324Y-10373574D01*
X11821896Y-10359289D01*
X11893324Y-10359289D01*
X11921896Y-10345003D01*
X12064753Y-10273574D02*
X12064753Y-10573574D01*
X12064753Y-10287860D02*
X12093324Y-10273574D01*
X12150467Y-10273574D01*
X12179038Y-10287860D01*
X12193324Y-10302146D01*
X12207610Y-10330717D01*
X12207610Y-10416432D01*
X12193324Y-10445003D01*
X12179038Y-10459289D01*
X12150467Y-10473574D01*
X12093324Y-10473574D01*
X12064753Y-10459289D01*
X12336181Y-10445003D02*
X12350467Y-10459289D01*
X12336181Y-10473574D01*
X12321896Y-10459289D01*
X12336181Y-10445003D01*
X12336181Y-10473574D01*
X12336181Y-10287860D02*
X12350467Y-10302146D01*
X12336181Y-10316432D01*
X12321896Y-10302146D01*
X12336181Y-10287860D01*
X12336181Y-10316432D01*
X9792610Y-10867860D02*
X9992610Y-11067860D01*
X9992610Y-10867860D02*
X9792610Y-11067860D01*
X10264753Y-10832146D02*
X10279038Y-10817860D01*
X10307610Y-10803574D01*
X10379038Y-10803574D01*
X10407610Y-10817860D01*
X10421896Y-10832146D01*
X10436181Y-10860717D01*
X10436181Y-10889289D01*
X10421896Y-10932146D01*
X10250467Y-11103574D01*
X10436181Y-11103574D01*
X10564753Y-11075003D02*
X10579038Y-11089289D01*
X10564753Y-11103574D01*
X10550467Y-11089289D01*
X10564753Y-11075003D01*
X10564753Y-11103574D01*
X10764753Y-10803574D02*
X10793324Y-10803574D01*
X10821896Y-10817860D01*
X10836181Y-10832146D01*
X10850467Y-10860717D01*
X10864753Y-10917860D01*
X10864753Y-10989289D01*
X10850467Y-11046432D01*
X10836181Y-11075003D01*
X10821896Y-11089289D01*
X10793324Y-11103574D01*
X10764753Y-11103574D01*
X10736181Y-11089289D01*
X10721896Y-11075003D01*
X10707610Y-11046432D01*
X10693324Y-10989289D01*
X10693324Y-10917860D01*
X10707610Y-10860717D01*
X10721896Y-10832146D01*
X10736181Y-10817860D01*
X10764753Y-10803574D01*
X11050467Y-10803574D02*
X11079038Y-10803574D01*
X11107610Y-10817860D01*
X11121896Y-10832146D01*
X11136181Y-10860717D01*
X11150467Y-10917860D01*
X11150467Y-10989289D01*
X11136181Y-11046432D01*
X11121896Y-11075003D01*
X11107610Y-11089289D01*
X11079038Y-11103574D01*
X11050467Y-11103574D01*
X11021896Y-11089289D01*
X11007610Y-11075003D01*
X10993324Y-11046432D01*
X10979038Y-10989289D01*
X10979038Y-10917860D01*
X10993324Y-10860717D01*
X11007610Y-10832146D01*
X11021896Y-10817860D01*
X11050467Y-10803574D01*
X11279038Y-11103574D02*
X11279038Y-10903574D01*
X11279038Y-10932146D02*
X11293324Y-10917860D01*
X11321896Y-10903574D01*
X11364753Y-10903574D01*
X11393324Y-10917860D01*
X11407610Y-10946432D01*
X11407610Y-11103574D01*
X11407610Y-10946432D02*
X11421896Y-10917860D01*
X11450467Y-10903574D01*
X11493324Y-10903574D01*
X11521896Y-10917860D01*
X11536181Y-10946432D01*
X11536181Y-11103574D01*
X11679038Y-11103574D02*
X11679038Y-10903574D01*
X11679038Y-10932146D02*
X11693324Y-10917860D01*
X11721896Y-10903574D01*
X11764753Y-10903574D01*
X11793324Y-10917860D01*
X11807610Y-10946432D01*
X11807610Y-11103574D01*
X11807610Y-10946432D02*
X11821896Y-10917860D01*
X11850467Y-10903574D01*
X11893324Y-10903574D01*
X11921896Y-10917860D01*
X11936181Y-10946432D01*
X11936181Y-11103574D01*
X12521896Y-10789289D02*
X12264753Y-11175003D01*
X12907610Y-10803574D02*
X12936181Y-10803574D01*
X12964753Y-10817860D01*
X12979038Y-10832146D01*
X12993324Y-10860717D01*
X13007610Y-10917860D01*
X13007610Y-10989289D01*
X12993324Y-11046432D01*
X12979038Y-11075003D01*
X12964753Y-11089289D01*
X12936181Y-11103574D01*
X12907610Y-11103574D01*
X12879038Y-11089289D01*
X12864753Y-11075003D01*
X12850467Y-11046432D01*
X12836181Y-10989289D01*
X12836181Y-10917860D01*
X12850467Y-10860717D01*
X12864753Y-10832146D01*
X12879038Y-10817860D01*
X12907610Y-10803574D01*
X13136181Y-11075003D02*
X13150467Y-11089289D01*
X13136181Y-11103574D01*
X13121896Y-11089289D01*
X13136181Y-11075003D01*
X13136181Y-11103574D01*
X13336181Y-10803574D02*
X13364753Y-10803574D01*
X13393324Y-10817860D01*
X13407610Y-10832146D01*
X13421896Y-10860717D01*
X13436181Y-10917860D01*
X13436181Y-10989289D01*
X13421896Y-11046432D01*
X13407610Y-11075003D01*
X13393324Y-11089289D01*
X13364753Y-11103574D01*
X13336181Y-11103574D01*
X13307610Y-11089289D01*
X13293324Y-11075003D01*
X13279038Y-11046432D01*
X13264753Y-10989289D01*
X13264753Y-10917860D01*
X13279038Y-10860717D01*
X13293324Y-10832146D01*
X13307610Y-10817860D01*
X13336181Y-10803574D01*
X13536181Y-10803574D02*
X13736181Y-10803574D01*
X13607610Y-11103574D01*
X13864753Y-11103574D02*
X13921896Y-11103574D01*
X13950467Y-11089289D01*
X13964753Y-11075003D01*
X13993324Y-11032146D01*
X14007610Y-10975003D01*
X14007610Y-10860717D01*
X13993324Y-10832146D01*
X13979038Y-10817860D01*
X13950467Y-10803574D01*
X13893324Y-10803574D01*
X13864753Y-10817860D01*
X13850467Y-10832146D01*
X13836181Y-10860717D01*
X13836181Y-10932146D01*
X13850467Y-10960717D01*
X13864753Y-10975003D01*
X13893324Y-10989289D01*
X13950467Y-10989289D01*
X13979038Y-10975003D01*
X13993324Y-10960717D01*
X14007610Y-10932146D01*
X14121896Y-10803574D02*
X14121896Y-10860717D01*
X14236181Y-10803574D02*
X14236181Y-10860717D01*
X14679038Y-11217860D02*
X14664753Y-11203574D01*
X14636181Y-11160717D01*
X14621896Y-11132146D01*
X14607610Y-11089289D01*
X14593324Y-11017860D01*
X14593324Y-10960717D01*
X14607610Y-10889289D01*
X14621896Y-10846432D01*
X14636181Y-10817860D01*
X14664753Y-10775003D01*
X14679038Y-10760717D01*
X14950467Y-11103574D02*
X14779038Y-11103574D01*
X14864753Y-11103574D02*
X14864753Y-10803574D01*
X14836181Y-10846432D01*
X14807610Y-10875003D01*
X14779038Y-10889289D01*
X15307610Y-11103574D02*
X15307610Y-10803574D01*
X15436181Y-11103574D02*
X15436181Y-10946432D01*
X15421896Y-10917860D01*
X15393324Y-10903574D01*
X15350467Y-10903574D01*
X15321896Y-10917860D01*
X15307610Y-10932146D01*
X15621896Y-11103574D02*
X15593324Y-11089289D01*
X15579038Y-11075003D01*
X15564753Y-11046432D01*
X15564753Y-10960717D01*
X15579038Y-10932146D01*
X15593324Y-10917860D01*
X15621896Y-10903574D01*
X15664753Y-10903574D01*
X15693324Y-10917860D01*
X15707610Y-10932146D01*
X15721896Y-10960717D01*
X15721896Y-11046432D01*
X15707610Y-11075003D01*
X15693324Y-11089289D01*
X15664753Y-11103574D01*
X15621896Y-11103574D01*
X15893324Y-11103574D02*
X15864753Y-11089289D01*
X15850467Y-11060717D01*
X15850467Y-10803574D01*
X16121896Y-11089289D02*
X16093324Y-11103574D01*
X16036181Y-11103574D01*
X16007610Y-11089289D01*
X15993324Y-11060717D01*
X15993324Y-10946432D01*
X16007610Y-10917860D01*
X16036181Y-10903574D01*
X16093324Y-10903574D01*
X16121896Y-10917860D01*
X16136181Y-10946432D01*
X16136181Y-10975003D01*
X15993324Y-11003574D01*
X16236181Y-11217860D02*
X16250467Y-11203574D01*
X16279038Y-11160717D01*
X16293324Y-11132146D01*
X16307610Y-11089289D01*
X16321896Y-11017860D01*
X16321896Y-10960717D01*
X16307610Y-10889289D01*
X16293324Y-10846432D01*
X16279038Y-10817860D01*
X16250467Y-10775003D01*
X16236181Y-10760717D01*
X16779038Y-11217860D02*
X16764753Y-11203574D01*
X16736181Y-11160717D01*
X16721896Y-11132146D01*
X16707610Y-11089289D01*
X16693324Y-11017860D01*
X16693324Y-10960717D01*
X16707610Y-10889289D01*
X16721896Y-10846432D01*
X16736181Y-10817860D01*
X16764753Y-10775003D01*
X16779038Y-10760717D01*
X16893324Y-10903574D02*
X16893324Y-11103574D01*
X16893324Y-10932146D02*
X16907610Y-10917860D01*
X16936181Y-10903574D01*
X16979038Y-10903574D01*
X17007610Y-10917860D01*
X17021896Y-10946432D01*
X17021896Y-11103574D01*
X17207610Y-11103574D02*
X17179038Y-11089289D01*
X17164753Y-11075003D01*
X17150467Y-11046432D01*
X17150467Y-10960717D01*
X17164753Y-10932146D01*
X17179038Y-10917860D01*
X17207610Y-10903574D01*
X17250467Y-10903574D01*
X17279038Y-10917860D01*
X17293324Y-10932146D01*
X17307610Y-10960717D01*
X17307610Y-11046432D01*
X17293324Y-11075003D01*
X17279038Y-11089289D01*
X17250467Y-11103574D01*
X17207610Y-11103574D01*
X17393324Y-10903574D02*
X17507610Y-10903574D01*
X17436181Y-10803574D02*
X17436181Y-11060717D01*
X17450467Y-11089289D01*
X17479038Y-11103574D01*
X17507610Y-11103574D01*
X17836181Y-10903574D02*
X17836181Y-11203574D01*
X17836181Y-10917860D02*
X17864753Y-10903574D01*
X17921896Y-10903574D01*
X17950467Y-10917860D01*
X17964753Y-10932146D01*
X17979038Y-10960717D01*
X17979038Y-11046432D01*
X17964753Y-11075003D01*
X17950467Y-11089289D01*
X17921896Y-11103574D01*
X17864753Y-11103574D01*
X17836181Y-11089289D01*
X18150467Y-11103574D02*
X18121896Y-11089289D01*
X18107610Y-11060717D01*
X18107610Y-10803574D01*
X18393324Y-11103574D02*
X18393324Y-10946432D01*
X18379038Y-10917860D01*
X18350467Y-10903574D01*
X18293324Y-10903574D01*
X18264753Y-10917860D01*
X18393324Y-11089289D02*
X18364753Y-11103574D01*
X18293324Y-11103574D01*
X18264753Y-11089289D01*
X18250467Y-11060717D01*
X18250467Y-11032146D01*
X18264753Y-11003574D01*
X18293324Y-10989289D01*
X18364753Y-10989289D01*
X18393324Y-10975003D01*
X18493324Y-10903574D02*
X18607610Y-10903574D01*
X18536181Y-10803574D02*
X18536181Y-11060717D01*
X18550467Y-11089289D01*
X18579038Y-11103574D01*
X18607610Y-11103574D01*
X18821896Y-11089289D02*
X18793324Y-11103574D01*
X18736181Y-11103574D01*
X18707610Y-11089289D01*
X18693324Y-11060717D01*
X18693324Y-10946432D01*
X18707610Y-10917860D01*
X18736181Y-10903574D01*
X18793324Y-10903574D01*
X18821896Y-10917860D01*
X18836181Y-10946432D01*
X18836181Y-10975003D01*
X18693324Y-11003574D01*
X19093324Y-11103574D02*
X19093324Y-10803574D01*
X19093324Y-11089289D02*
X19064753Y-11103574D01*
X19007610Y-11103574D01*
X18979038Y-11089289D01*
X18964753Y-11075003D01*
X18950467Y-11046432D01*
X18950467Y-10960717D01*
X18964753Y-10932146D01*
X18979038Y-10917860D01*
X19007610Y-10903574D01*
X19064753Y-10903574D01*
X19093324Y-10917860D01*
X19207610Y-11217860D02*
X19221896Y-11203574D01*
X19250467Y-11160717D01*
X19264753Y-11132146D01*
X19279038Y-11089289D01*
X19293324Y-11017860D01*
X19293324Y-10960717D01*
X19279038Y-10889289D01*
X19264753Y-10846432D01*
X19250467Y-10817860D01*
X19221896Y-10775003D01*
X19207610Y-10760717D01*
X9992610Y-11363860D02*
G75*
G03X9992610Y-11363860I-125000J0D01*
G01*
X10264753Y-11228146D02*
X10279038Y-11213860D01*
X10307610Y-11199574D01*
X10379038Y-11199574D01*
X10407610Y-11213860D01*
X10421896Y-11228146D01*
X10436181Y-11256717D01*
X10436181Y-11285289D01*
X10421896Y-11328146D01*
X10250467Y-11499574D01*
X10436181Y-11499574D01*
X10564753Y-11471003D02*
X10579038Y-11485289D01*
X10564753Y-11499574D01*
X10550467Y-11485289D01*
X10564753Y-11471003D01*
X10564753Y-11499574D01*
X10850467Y-11199574D02*
X10707610Y-11199574D01*
X10693324Y-11342431D01*
X10707610Y-11328146D01*
X10736181Y-11313860D01*
X10807610Y-11313860D01*
X10836181Y-11328146D01*
X10850467Y-11342431D01*
X10864753Y-11371003D01*
X10864753Y-11442431D01*
X10850467Y-11471003D01*
X10836181Y-11485289D01*
X10807610Y-11499574D01*
X10736181Y-11499574D01*
X10707610Y-11485289D01*
X10693324Y-11471003D01*
X11050467Y-11199574D02*
X11079038Y-11199574D01*
X11107610Y-11213860D01*
X11121896Y-11228146D01*
X11136181Y-11256717D01*
X11150467Y-11313860D01*
X11150467Y-11385289D01*
X11136181Y-11442431D01*
X11121896Y-11471003D01*
X11107610Y-11485289D01*
X11079038Y-11499574D01*
X11050467Y-11499574D01*
X11021896Y-11485289D01*
X11007610Y-11471003D01*
X10993324Y-11442431D01*
X10979038Y-11385289D01*
X10979038Y-11313860D01*
X10993324Y-11256717D01*
X11007610Y-11228146D01*
X11021896Y-11213860D01*
X11050467Y-11199574D01*
X11279038Y-11499574D02*
X11279038Y-11299574D01*
X11279038Y-11328146D02*
X11293324Y-11313860D01*
X11321896Y-11299574D01*
X11364753Y-11299574D01*
X11393324Y-11313860D01*
X11407610Y-11342431D01*
X11407610Y-11499574D01*
X11407610Y-11342431D02*
X11421896Y-11313860D01*
X11450467Y-11299574D01*
X11493324Y-11299574D01*
X11521896Y-11313860D01*
X11536181Y-11342431D01*
X11536181Y-11499574D01*
X11679038Y-11499574D02*
X11679038Y-11299574D01*
X11679038Y-11328146D02*
X11693324Y-11313860D01*
X11721896Y-11299574D01*
X11764753Y-11299574D01*
X11793324Y-11313860D01*
X11807610Y-11342431D01*
X11807610Y-11499574D01*
X11807610Y-11342431D02*
X11821896Y-11313860D01*
X11850467Y-11299574D01*
X11893324Y-11299574D01*
X11921896Y-11313860D01*
X11936181Y-11342431D01*
X11936181Y-11499574D01*
X12521896Y-11185289D02*
X12264753Y-11571003D01*
X12907610Y-11199574D02*
X12936181Y-11199574D01*
X12964753Y-11213860D01*
X12979038Y-11228146D01*
X12993324Y-11256717D01*
X13007610Y-11313860D01*
X13007610Y-11385289D01*
X12993324Y-11442431D01*
X12979038Y-11471003D01*
X12964753Y-11485289D01*
X12936181Y-11499574D01*
X12907610Y-11499574D01*
X12879038Y-11485289D01*
X12864753Y-11471003D01*
X12850467Y-11442431D01*
X12836181Y-11385289D01*
X12836181Y-11313860D01*
X12850467Y-11256717D01*
X12864753Y-11228146D01*
X12879038Y-11213860D01*
X12907610Y-11199574D01*
X13136181Y-11471003D02*
X13150467Y-11485289D01*
X13136181Y-11499574D01*
X13121896Y-11485289D01*
X13136181Y-11471003D01*
X13136181Y-11499574D01*
X13336181Y-11199574D02*
X13364753Y-11199574D01*
X13393324Y-11213860D01*
X13407610Y-11228146D01*
X13421896Y-11256717D01*
X13436181Y-11313860D01*
X13436181Y-11385289D01*
X13421896Y-11442431D01*
X13407610Y-11471003D01*
X13393324Y-11485289D01*
X13364753Y-11499574D01*
X13336181Y-11499574D01*
X13307610Y-11485289D01*
X13293324Y-11471003D01*
X13279038Y-11442431D01*
X13264753Y-11385289D01*
X13264753Y-11313860D01*
X13279038Y-11256717D01*
X13293324Y-11228146D01*
X13307610Y-11213860D01*
X13336181Y-11199574D01*
X13579038Y-11499574D02*
X13636181Y-11499574D01*
X13664753Y-11485289D01*
X13679038Y-11471003D01*
X13707610Y-11428146D01*
X13721896Y-11371003D01*
X13721896Y-11256717D01*
X13707610Y-11228146D01*
X13693324Y-11213860D01*
X13664753Y-11199574D01*
X13607610Y-11199574D01*
X13579038Y-11213860D01*
X13564753Y-11228146D01*
X13550467Y-11256717D01*
X13550467Y-11328146D01*
X13564753Y-11356717D01*
X13579038Y-11371003D01*
X13607610Y-11385289D01*
X13664753Y-11385289D01*
X13693324Y-11371003D01*
X13707610Y-11356717D01*
X13721896Y-11328146D01*
X13893324Y-11328146D02*
X13864753Y-11313860D01*
X13850467Y-11299574D01*
X13836181Y-11271003D01*
X13836181Y-11256717D01*
X13850467Y-11228146D01*
X13864753Y-11213860D01*
X13893324Y-11199574D01*
X13950467Y-11199574D01*
X13979038Y-11213860D01*
X13993324Y-11228146D01*
X14007610Y-11256717D01*
X14007610Y-11271003D01*
X13993324Y-11299574D01*
X13979038Y-11313860D01*
X13950467Y-11328146D01*
X13893324Y-11328146D01*
X13864753Y-11342431D01*
X13850467Y-11356717D01*
X13836181Y-11385289D01*
X13836181Y-11442431D01*
X13850467Y-11471003D01*
X13864753Y-11485289D01*
X13893324Y-11499574D01*
X13950467Y-11499574D01*
X13979038Y-11485289D01*
X13993324Y-11471003D01*
X14007610Y-11442431D01*
X14007610Y-11385289D01*
X13993324Y-11356717D01*
X13979038Y-11342431D01*
X13950467Y-11328146D01*
X14121896Y-11199574D02*
X14121896Y-11256717D01*
X14236181Y-11199574D02*
X14236181Y-11256717D01*
X14679038Y-11613860D02*
X14664753Y-11599574D01*
X14636181Y-11556717D01*
X14621896Y-11528146D01*
X14607610Y-11485289D01*
X14593324Y-11413860D01*
X14593324Y-11356717D01*
X14607610Y-11285289D01*
X14621896Y-11242431D01*
X14636181Y-11213860D01*
X14664753Y-11171003D01*
X14679038Y-11156717D01*
X14921896Y-11299574D02*
X14921896Y-11499574D01*
X14850467Y-11185289D02*
X14779038Y-11399574D01*
X14964753Y-11399574D01*
X15307610Y-11499574D02*
X15307610Y-11199574D01*
X15436181Y-11499574D02*
X15436181Y-11342431D01*
X15421896Y-11313860D01*
X15393324Y-11299574D01*
X15350467Y-11299574D01*
X15321896Y-11313860D01*
X15307610Y-11328146D01*
X15621896Y-11499574D02*
X15593324Y-11485289D01*
X15579038Y-11471003D01*
X15564753Y-11442431D01*
X15564753Y-11356717D01*
X15579038Y-11328146D01*
X15593324Y-11313860D01*
X15621896Y-11299574D01*
X15664753Y-11299574D01*
X15693324Y-11313860D01*
X15707610Y-11328146D01*
X15721896Y-11356717D01*
X15721896Y-11442431D01*
X15707610Y-11471003D01*
X15693324Y-11485289D01*
X15664753Y-11499574D01*
X15621896Y-11499574D01*
X15893324Y-11499574D02*
X15864753Y-11485289D01*
X15850467Y-11456717D01*
X15850467Y-11199574D01*
X16121896Y-11485289D02*
X16093324Y-11499574D01*
X16036181Y-11499574D01*
X16007610Y-11485289D01*
X15993324Y-11456717D01*
X15993324Y-11342431D01*
X16007610Y-11313860D01*
X16036181Y-11299574D01*
X16093324Y-11299574D01*
X16121896Y-11313860D01*
X16136181Y-11342431D01*
X16136181Y-11371003D01*
X15993324Y-11399574D01*
X16250467Y-11485289D02*
X16279038Y-11499574D01*
X16336181Y-11499574D01*
X16364753Y-11485289D01*
X16379038Y-11456717D01*
X16379038Y-11442431D01*
X16364753Y-11413860D01*
X16336181Y-11399574D01*
X16293324Y-11399574D01*
X16264753Y-11385289D01*
X16250467Y-11356717D01*
X16250467Y-11342431D01*
X16264753Y-11313860D01*
X16293324Y-11299574D01*
X16336181Y-11299574D01*
X16364753Y-11313860D01*
X16479038Y-11613860D02*
X16493324Y-11599574D01*
X16521896Y-11556717D01*
X16536181Y-11528146D01*
X16550467Y-11485289D01*
X16564753Y-11413860D01*
X16564753Y-11356717D01*
X16550467Y-11285289D01*
X16536181Y-11242431D01*
X16521896Y-11213860D01*
X16493324Y-11171003D01*
X16479038Y-11156717D01*
X17021896Y-11613860D02*
X17007610Y-11599574D01*
X16979038Y-11556717D01*
X16964753Y-11528146D01*
X16950467Y-11485289D01*
X16936181Y-11413860D01*
X16936181Y-11356717D01*
X16950467Y-11285289D01*
X16964753Y-11242431D01*
X16979038Y-11213860D01*
X17007610Y-11171003D01*
X17021896Y-11156717D01*
X17136181Y-11299574D02*
X17136181Y-11499574D01*
X17136181Y-11328146D02*
X17150467Y-11313860D01*
X17179038Y-11299574D01*
X17221896Y-11299574D01*
X17250467Y-11313860D01*
X17264753Y-11342431D01*
X17264753Y-11499574D01*
X17450467Y-11499574D02*
X17421896Y-11485289D01*
X17407610Y-11471003D01*
X17393324Y-11442431D01*
X17393324Y-11356717D01*
X17407610Y-11328146D01*
X17421896Y-11313860D01*
X17450467Y-11299574D01*
X17493324Y-11299574D01*
X17521896Y-11313860D01*
X17536181Y-11328146D01*
X17550467Y-11356717D01*
X17550467Y-11442431D01*
X17536181Y-11471003D01*
X17521896Y-11485289D01*
X17493324Y-11499574D01*
X17450467Y-11499574D01*
X17636181Y-11299574D02*
X17750467Y-11299574D01*
X17679038Y-11199574D02*
X17679038Y-11456717D01*
X17693324Y-11485289D01*
X17721896Y-11499574D01*
X17750467Y-11499574D01*
X18079038Y-11299574D02*
X18079038Y-11599574D01*
X18079038Y-11313860D02*
X18107610Y-11299574D01*
X18164753Y-11299574D01*
X18193324Y-11313860D01*
X18207610Y-11328146D01*
X18221896Y-11356717D01*
X18221896Y-11442431D01*
X18207610Y-11471003D01*
X18193324Y-11485289D01*
X18164753Y-11499574D01*
X18107610Y-11499574D01*
X18079038Y-11485289D01*
X18393324Y-11499574D02*
X18364753Y-11485289D01*
X18350467Y-11456717D01*
X18350467Y-11199574D01*
X18636181Y-11499574D02*
X18636181Y-11342431D01*
X18621896Y-11313860D01*
X18593324Y-11299574D01*
X18536181Y-11299574D01*
X18507610Y-11313860D01*
X18636181Y-11485289D02*
X18607610Y-11499574D01*
X18536181Y-11499574D01*
X18507610Y-11485289D01*
X18493324Y-11456717D01*
X18493324Y-11428146D01*
X18507610Y-11399574D01*
X18536181Y-11385289D01*
X18607610Y-11385289D01*
X18636181Y-11371003D01*
X18736181Y-11299574D02*
X18850467Y-11299574D01*
X18779038Y-11199574D02*
X18779038Y-11456717D01*
X18793324Y-11485289D01*
X18821896Y-11499574D01*
X18850467Y-11499574D01*
X19064753Y-11485289D02*
X19036181Y-11499574D01*
X18979038Y-11499574D01*
X18950467Y-11485289D01*
X18936181Y-11456717D01*
X18936181Y-11342431D01*
X18950467Y-11313860D01*
X18979038Y-11299574D01*
X19036181Y-11299574D01*
X19064753Y-11313860D01*
X19079038Y-11342431D01*
X19079038Y-11371003D01*
X18936181Y-11399574D01*
X19336181Y-11499574D02*
X19336181Y-11199574D01*
X19336181Y-11485289D02*
X19307610Y-11499574D01*
X19250467Y-11499574D01*
X19221896Y-11485289D01*
X19207610Y-11471003D01*
X19193324Y-11442431D01*
X19193324Y-11356717D01*
X19207610Y-11328146D01*
X19221896Y-11313860D01*
X19250467Y-11299574D01*
X19307610Y-11299574D01*
X19336181Y-11313860D01*
X19450467Y-11613860D02*
X19464753Y-11599574D01*
X19493324Y-11556717D01*
X19507610Y-11528146D01*
X19521896Y-11485289D01*
X19536181Y-11413860D01*
X19536181Y-11356717D01*
X19521896Y-11285289D01*
X19507610Y-11242431D01*
X19493324Y-11213860D01*
X19464753Y-11171003D01*
X19450467Y-11156717D01*
M02*
